<ttFont>
    <TTGlyph name=".notdef" xMin="32" yMin="0" xMax="440" yMax="780">
      <contour>
        <pt x="32" y="0" on="1"/>
        <pt x="32" y="780" on="1"/>
        <pt x="440" y="780" on="1"/>
        <pt x="440" y="0" on="1"/>
      </contour>
      <contour>
        <pt x="120" y="88" on="1"/>
        <pt x="352" y="88" on="1"/>
        <pt x="352" y="692" on="1"/>
        <pt x="120" y="692" on="1"/>
      </contour>
    </TTGlyph>
    <TTGlyph name="A" xMin="21" yMin="0" xMax="651" yMax="698">
      <contour>
        <pt x="514" y="0" on="1"/>
        <pt x="458" y="178" on="1"/>
        <pt x="210" y="178" on="1"/>
        <pt x="155" y="0" on="1"/>
        <pt x="21" y="0" on="1"/>
        <pt x="255" y="698" on="1"/>
        <pt x="419" y="698" on="1"/>
        <pt x="651" y="0" on="1"/>
      </contour>
      <contour>
        <pt x="336" y="578" on="1"/>
        <pt x="331" y="578" on="1"/>
        <pt x="242" y="291" on="1"/>
        <pt x="426" y="291" on="1"/>
      </contour>
    </TTGlyph>
    <TTGlyph name="AE" xMin="0" yMin="0" xMax="892" yMax="698">
      <contour>
        <pt x="432" y="178" on="1"/>
        <pt x="218" y="178" on="1"/>
        <pt x="133" y="0" on="1"/>
        <pt x="0" y="0" on="1"/>
        <pt x="346" y="698" on="1"/>
        <pt x="892" y="698" on="1"/>
        <pt x="892" y="581" on="1"/>
        <pt x="563" y="581" on="1"/>
        <pt x="563" y="412" on="1"/>
        <pt x="854" y="412" on="1"/>
        <pt x="854" y="295" on="1"/>
        <pt x="563" y="295" on="1"/>
        <pt x="563" y="117" on="1"/>
        <pt x="892" y="117" on="1"/>
        <pt x="892" y="0" on="1"/>
        <pt x="432" y="0" on="1"/>
      </contour>
      <contour>
        <pt x="412" y="581" on="1"/>
        <pt x="271" y="290" on="1"/>
        <pt x="432" y="290" on="1"/>
        <pt x="432" y="581" on="1"/>
      </contour>
    </TTGlyph>
    <TTGlyph name="Aacute" xMin="21" yMin="0" xMax="651" yMax="969">
      <component glyphName="A" x="0" y="0" flags="0x204"/>
      <component glyphName="acute.case" x="34" y="0" flags="0x4"/>
    </TTGlyph>
    <TTGlyph name="Acircumflex" xMin="21" yMin="0" xMax="651" yMax="950">
      <component glyphName="A" x="0" y="0" flags="0x204"/>
      <component glyphName="circumflex.case" x="34" y="0" flags="0x4"/>
    </TTGlyph>
    <TTGlyph name="Adieresis" xMin="21" yMin="0" xMax="651" yMax="907">
      <component glyphName="A" x="0" y="0" flags="0x204"/>
      <component glyphName="dieresis.case" x="34" y="0" flags="0x4"/>
    </TTGlyph>
    <TTGlyph name="Agrave" xMin="21" yMin="0" xMax="651" yMax="969">
      <component glyphName="A" x="0" y="0" flags="0x204"/>
      <component glyphName="grave.case" x="34" y="0" flags="0x4"/>
    </TTGlyph>
    <TTGlyph name="Aring" xMin="21" yMin="0" xMax="651" yMax="996">
      <component glyphName="A" x="0" y="0" flags="0x204"/>
      <component glyphName="ring.case" x="34" y="0" flags="0x4"/>
    </TTGlyph>
    <TTGlyph name="Atilde" xMin="21" yMin="0" xMax="651" yMax="907">
      <component glyphName="A" x="0" y="0" flags="0x204"/>
      <component glyphName="tilde.case" x="34" y="0" flags="0x4"/>
    </TTGlyph>
    <TTGlyph name="B" xMin="82" yMin="0" xMax="616" yMax="698">
      <contour>
        <pt x="82" y="698" on="1"/>
        <pt x="405" y="698" on="1"/>
        <pt x="448" y="698" on="0"/>
        <pt x="517" y="672" on="0"/>
        <pt x="565" y="626" on="0"/>
        <pt x="590" y="559" on="0"/>
        <pt x="590" y="519" on="1"/>
        <pt x="590" y="479" on="0"/>
        <pt x="569" y="424" on="0"/>
        <pt x="534" y="388" on="0"/>
        <pt x="489" y="370" on="0"/>
        <pt x="465" y="369" on="1"/>
        <pt x="465" y="363" on="1"/>
        <pt x="488" y="363" on="0"/>
        <pt x="541" y="345" on="0"/>
        <pt x="586" y="306" on="0"/>
        <pt x="616" y="245" on="0"/>
        <pt x="616" y="200" on="1"/>
        <pt x="616" y="158" on="0"/>
        <pt x="589" y="85" on="0"/>
        <pt x="541" y="31" on="0"/>
        <pt x="475" y="0" on="0"/>
        <pt x="436" y="0" on="1"/>
        <pt x="82" y="0" on="1"/>
      </contour>
      <contour>
        <pt x="214" y="112" on="1"/>
        <pt x="398" y="112" on="1"/>
        <pt x="436" y="112" on="0"/>
        <pt x="478" y="151" on="0"/>
        <pt x="478" y="188" on="1"/>
        <pt x="478" y="222" on="1"/>
        <pt x="478" y="259" on="0"/>
        <pt x="436" y="299" on="0"/>
        <pt x="398" y="299" on="1"/>
        <pt x="214" y="299" on="1"/>
      </contour>
      <contour>
        <pt x="214" y="407" on="1"/>
        <pt x="377" y="407" on="1"/>
        <pt x="413" y="407" on="0"/>
        <pt x="453" y="446" on="0"/>
        <pt x="453" y="481" on="1"/>
        <pt x="453" y="512" on="1"/>
        <pt x="453" y="547" on="0"/>
        <pt x="413" y="586" on="0"/>
        <pt x="377" y="586" on="1"/>
        <pt x="214" y="586" on="1"/>
      </contour>
    </TTGlyph>
    <TTGlyph name="C" xMin="52" yMin="-12" xMax="611" yMax="710">
      <contour>
        <pt x="353" y="-12" on="1"/>
        <pt x="284" y="-12" on="0"/>
        <pt x="173" y="33" on="0"/>
        <pt x="94" y="123" on="0"/>
        <pt x="52" y="256" on="0"/>
        <pt x="52" y="344" on="1"/>
        <pt x="52" y="432" on="0"/>
        <pt x="94" y="569" on="0"/>
        <pt x="173" y="662" on="0"/>
        <pt x="284" y="710" on="0"/>
        <pt x="353" y="710" on="1"/>
        <pt x="447" y="710" on="0"/>
        <pt x="571" y="630" on="0"/>
        <pt x="608" y="549" on="1"/>
        <pt x="495" y="489" on="1"/>
        <pt x="480" y="536" on="0"/>
        <pt x="412" y="593" on="0"/>
        <pt x="353" y="593" on="1"/>
        <pt x="279" y="593" on="0"/>
        <pt x="192" y="493" on="0"/>
        <pt x="192" y="403" on="1"/>
        <pt x="192" y="293" on="1"/>
        <pt x="192" y="202" on="0"/>
        <pt x="279" y="105" on="0"/>
        <pt x="353" y="105" on="1"/>
        <pt x="412" y="105" on="0"/>
        <pt x="487" y="169" on="0"/>
        <pt x="504" y="216" on="1"/>
        <pt x="611" y="153" on="1"/>
        <pt x="573" y="75" on="0"/>
        <pt x="447" y="-12" on="0"/>
      </contour>
    </TTGlyph>
    <TTGlyph name="Ccedilla" xMin="52" yMin="-211" xMax="611" yMax="710">
      <contour>
        <pt x="353" y="593" on="1"/>
        <pt x="279" y="593" on="0"/>
        <pt x="192" y="493" on="0"/>
        <pt x="192" y="403" on="1"/>
        <pt x="192" y="293" on="1"/>
        <pt x="192" y="202" on="0"/>
        <pt x="279" y="105" on="0"/>
        <pt x="353" y="105" on="1"/>
        <pt x="412" y="105" on="0"/>
        <pt x="487" y="169" on="0"/>
        <pt x="504" y="216" on="1"/>
        <pt x="611" y="153" on="1"/>
        <pt x="574" y="76" on="0"/>
        <pt x="452" y="-10" on="0"/>
        <pt x="363" y="-12" on="1"/>
        <pt x="354" y="-57" on="1"/>
        <pt x="358" y="-60" on="1"/>
        <pt x="380" y="-54" on="0"/>
        <pt x="403" y="-54" on="1"/>
        <pt x="433" y="-54" on="0"/>
        <pt x="474" y="-87" on="0"/>
        <pt x="474" y="-122" on="1"/>
        <pt x="474" y="-146" on="0"/>
        <pt x="453" y="-180" on="0"/>
        <pt x="419" y="-201" on="0"/>
        <pt x="373" y="-211" on="0"/>
        <pt x="349" y="-211" on="1"/>
        <pt x="300" y="-211" on="0"/>
        <pt x="244" y="-182" on="0"/>
        <pt x="232" y="-167" on="1"/>
        <pt x="276" y="-116" on="1"/>
        <pt x="285" y="-128" on="0"/>
        <pt x="317" y="-145" on="0"/>
        <pt x="340" y="-145" on="1"/>
        <pt x="359" y="-145" on="0"/>
        <pt x="384" y="-132" on="0"/>
        <pt x="384" y="-118" on="1"/>
        <pt x="384" y="-106" on="0"/>
        <pt x="356" y="-82" on="0"/>
        <pt x="311" y="-77" on="1"/>
        <pt x="288" y="-75" on="1"/>
        <pt x="302" y="-8" on="1"/>
        <pt x="185" y="7" on="0"/>
        <pt x="52" y="184" on="0"/>
        <pt x="52" y="344" on="1"/>
        <pt x="52" y="432" on="0"/>
        <pt x="94" y="569" on="0"/>
        <pt x="173" y="662" on="0"/>
        <pt x="284" y="710" on="0"/>
        <pt x="353" y="710" on="1"/>
        <pt x="447" y="710" on="0"/>
        <pt x="571" y="630" on="0"/>
        <pt x="608" y="549" on="1"/>
        <pt x="495" y="489" on="1"/>
        <pt x="480" y="536" on="0"/>
        <pt x="412" y="593" on="0"/>
      </contour>
    </TTGlyph>
    <TTGlyph name="D" xMin="82" yMin="0" xMax="637" yMax="698">
      <contour>
        <pt x="82" y="698" on="1"/>
        <pt x="336" y="698" on="1"/>
        <pt x="404" y="698" on="0"/>
        <pt x="515" y="654" on="0"/>
        <pt x="594" y="567" on="0"/>
        <pt x="637" y="436" on="0"/>
        <pt x="637" y="349" on="1"/>
        <pt x="637" y="262" on="0"/>
        <pt x="594" y="131" on="0"/>
        <pt x="515" y="44" on="0"/>
        <pt x="404" y="0" on="0"/>
        <pt x="336" y="0" on="1"/>
        <pt x="82" y="0" on="1"/>
      </contour>
      <contour>
        <pt x="336" y="117" on="1"/>
        <pt x="410" y="117" on="0"/>
        <pt x="497" y="204" on="0"/>
        <pt x="497" y="294" on="1"/>
        <pt x="497" y="404" on="1"/>
        <pt x="497" y="494" on="0"/>
        <pt x="410" y="581" on="0"/>
        <pt x="336" y="581" on="1"/>
        <pt x="214" y="581" on="1"/>
        <pt x="214" y="117" on="1"/>
      </contour>
    </TTGlyph>
    <TTGlyph name="Dcroat" xMin="10" yMin="0" xMax="641" yMax="698">
      <contour>
        <pt x="86" y="309" on="1"/>
        <pt x="10" y="309" on="1"/>
        <pt x="10" y="408" on="1"/>
        <pt x="86" y="408" on="1"/>
        <pt x="86" y="698" on="1"/>
        <pt x="341" y="698" on="1"/>
        <pt x="409" y="698" on="0"/>
        <pt x="520" y="654" on="0"/>
        <pt x="598" y="567" on="0"/>
        <pt x="641" y="436" on="0"/>
        <pt x="641" y="349" on="1"/>
        <pt x="641" y="262" on="0"/>
        <pt x="598" y="131" on="0"/>
        <pt x="520" y="44" on="0"/>
        <pt x="409" y="0" on="0"/>
        <pt x="341" y="0" on="1"/>
        <pt x="86" y="0" on="1"/>
      </contour>
      <contour>
        <pt x="341" y="117" on="1"/>
        <pt x="414" y="117" on="0"/>
        <pt x="501" y="204" on="0"/>
        <pt x="501" y="294" on="1"/>
        <pt x="501" y="404" on="1"/>
        <pt x="501" y="494" on="0"/>
        <pt x="414" y="581" on="0"/>
        <pt x="341" y="581" on="1"/>
        <pt x="218" y="581" on="1"/>
        <pt x="218" y="408" on="1"/>
        <pt x="342" y="408" on="1"/>
        <pt x="342" y="309" on="1"/>
        <pt x="218" y="309" on="1"/>
        <pt x="218" y="117" on="1"/>
      </contour>
    </TTGlyph>
    <TTGlyph name="Delta" xMin="48" yMin="0" xMax="624" yMax="698">
      <contour>
        <pt x="48" y="107" on="1"/>
        <pt x="254" y="698" on="1"/>
        <pt x="418" y="698" on="1"/>
        <pt x="624" y="107" on="1"/>
        <pt x="624" y="0" on="1"/>
        <pt x="48" y="0" on="1"/>
      </contour>
      <contour>
        <pt x="336" y="578" on="1"/>
        <pt x="331" y="578" on="1"/>
        <pt x="182" y="117" on="1"/>
        <pt x="485" y="117" on="1"/>
      </contour>
    </TTGlyph>
    <TTGlyph name="E" xMin="82" yMin="0" xMax="542" yMax="698">
      <contour>
        <pt x="82" y="0" on="1"/>
        <pt x="82" y="698" on="1"/>
        <pt x="542" y="698" on="1"/>
        <pt x="542" y="581" on="1"/>
        <pt x="214" y="581" on="1"/>
        <pt x="214" y="412" on="1"/>
        <pt x="504" y="412" on="1"/>
        <pt x="504" y="295" on="1"/>
        <pt x="214" y="295" on="1"/>
        <pt x="214" y="117" on="1"/>
        <pt x="542" y="117" on="1"/>
        <pt x="542" y="0" on="1"/>
      </contour>
    </TTGlyph>
    <TTGlyph name="Eacute" xMin="82" yMin="0" xMax="542" yMax="969">
      <component glyphName="E" x="0" y="0" flags="0x204"/>
      <component glyphName="acute.case" x="12" y="0" flags="0x4"/>
    </TTGlyph>
    <TTGlyph name="Ecircumflex" xMin="82" yMin="0" xMax="542" yMax="950">
      <component glyphName="circumflex.case" x="12" y="0" flags="0x204"/>
      <component glyphName="E" x="0" y="0" flags="0x4"/>
    </TTGlyph>
    <TTGlyph name="Edieresis" xMin="82" yMin="0" xMax="542" yMax="907">
      <component glyphName="E" x="0" y="0" flags="0x204"/>
      <component glyphName="dieresis.case" x="12" y="0" flags="0x4"/>
    </TTGlyph>
    <TTGlyph name="Egrave" xMin="82" yMin="0" xMax="542" yMax="969">
      <component glyphName="grave.case" x="12" y="0" flags="0x204"/>
      <component glyphName="E" x="0" y="0" flags="0x4"/>
    </TTGlyph>
    <TTGlyph name="Eth" xMin="10" yMin="0" xMax="641" yMax="698">
      <component glyphName="Dcroat" x="0" y="0" flags="0x204"/>
    </TTGlyph>
    <TTGlyph name="Euro" xMin="52" yMin="-12" xMax="593" yMax="710">
      <contour>
        <pt x="351" y="-12" on="1"/>
        <pt x="283" y="-12" on="0"/>
        <pt x="173" y="36" on="0"/>
        <pt x="95" y="129" on="0"/>
        <pt x="52" y="263" on="0"/>
        <pt x="52" y="349" on="1"/>
        <pt x="52" y="435" on="0"/>
        <pt x="95" y="569" on="0"/>
        <pt x="173" y="662" on="0"/>
        <pt x="283" y="710" on="0"/>
        <pt x="351" y="710" on="1"/>
        <pt x="399" y="710" on="0"/>
        <pt x="472" y="689" on="0"/>
        <pt x="527" y="654" on="0"/>
        <pt x="568" y="607" on="0"/>
        <pt x="584" y="580" on="1"/>
        <pt x="488" y="513" on="1"/>
        <pt x="467" y="556" on="0"/>
        <pt x="401" y="603" on="0"/>
        <pt x="351" y="603" on="1"/>
        <pt x="293" y="603" on="0"/>
        <pt x="212" y="533" on="0"/>
        <pt x="198" y="472" on="1"/>
        <pt x="436" y="472" on="1"/>
        <pt x="436" y="389" on="1"/>
        <pt x="191" y="389" on="1"/>
        <pt x="191" y="309" on="1"/>
        <pt x="435" y="309" on="1"/>
        <pt x="435" y="226" on="1"/>
        <pt x="198" y="226" on="1"/>
        <pt x="212" y="163" on="0"/>
        <pt x="292" y="95" on="0"/>
        <pt x="351" y="95" on="1"/>
        <pt x="402" y="95" on="0"/>
        <pt x="473" y="145" on="0"/>
        <pt x="497" y="193" on="1"/>
        <pt x="593" y="123" on="1"/>
        <pt x="578" y="97" on="0"/>
        <pt x="536" y="48" on="0"/>
        <pt x="477" y="10" on="0"/>
        <pt x="400" y="-12" on="0"/>
      </contour>
    </TTGlyph>
    <TTGlyph name="F" xMin="82" yMin="0" xMax="531" yMax="698">
      <contour>
        <pt x="82" y="0" on="1"/>
        <pt x="82" y="698" on="1"/>
        <pt x="531" y="698" on="1"/>
        <pt x="531" y="581" on="1"/>
        <pt x="214" y="581" on="1"/>
        <pt x="214" y="412" on="1"/>
        <pt x="490" y="412" on="1"/>
        <pt x="490" y="295" on="1"/>
        <pt x="214" y="295" on="1"/>
        <pt x="214" y="0" on="1"/>
      </contour>
    </TTGlyph>
    <TTGlyph name="G" xMin="52" yMin="-12" xMax="641" yMax="710">
      <contour>
        <pt x="527" y="108" on="1"/>
        <pt x="523" y="108" on="1"/>
        <pt x="514" y="57" on="0"/>
        <pt x="419" y="-12" on="0"/>
        <pt x="340" y="-12" on="1"/>
        <pt x="278" y="-12" on="0"/>
        <pt x="173" y="34" on="0"/>
        <pt x="96" y="125" on="0"/>
        <pt x="52" y="259" on="0"/>
        <pt x="52" y="347" on="1"/>
        <pt x="52" y="435" on="0"/>
        <pt x="97" y="570" on="0"/>
        <pt x="179" y="662" on="0"/>
        <pt x="293" y="710" on="0"/>
        <pt x="363" y="710" on="1"/>
        <pt x="457" y="710" on="0"/>
        <pt x="589" y="628" on="0"/>
        <pt x="627" y="551" on="1"/>
        <pt x="520" y="488" on="1"/>
        <pt x="501" y="533" on="0"/>
        <pt x="426" y="593" on="0"/>
        <pt x="363" y="593" on="1"/>
        <pt x="285" y="593" on="0"/>
        <pt x="192" y="498" on="0"/>
        <pt x="192" y="405" on="1"/>
        <pt x="192" y="293" on="1"/>
        <pt x="192" y="201" on="0"/>
        <pt x="286" y="105" on="0"/>
        <pt x="365" y="105" on="1"/>
        <pt x="396" y="105" on="0"/>
        <pt x="450" y="120" on="0"/>
        <pt x="490" y="150" on="0"/>
        <pt x="514" y="194" on="0"/>
        <pt x="514" y="224" on="1"/>
        <pt x="514" y="269" on="1"/>
        <pt x="377" y="269" on="1"/>
        <pt x="377" y="380" on="1"/>
        <pt x="641" y="380" on="1"/>
        <pt x="641" y="0" on="1"/>
        <pt x="527" y="0" on="1"/>
      </contour>
    </TTGlyph>
    <TTGlyph name="H" xMin="82" yMin="0" xMax="637" yMax="698">
      <contour>
        <pt x="505" y="295" on="1"/>
        <pt x="214" y="295" on="1"/>
        <pt x="214" y="0" on="1"/>
        <pt x="82" y="0" on="1"/>
        <pt x="82" y="698" on="1"/>
        <pt x="214" y="698" on="1"/>
        <pt x="214" y="412" on="1"/>
        <pt x="505" y="412" on="1"/>
        <pt x="505" y="698" on="1"/>
        <pt x="637" y="698" on="1"/>
        <pt x="637" y="0" on="1"/>
        <pt x="505" y="0" on="1"/>
      </contour>
    </TTGlyph>
    <TTGlyph name="I" xMin="53" yMin="0" xMax="370" yMax="698">
      <contour>
        <pt x="53" y="0" on="1"/>
        <pt x="53" y="106" on="1"/>
        <pt x="145" y="106" on="1"/>
        <pt x="145" y="592" on="1"/>
        <pt x="53" y="592" on="1"/>
        <pt x="53" y="698" on="1"/>
        <pt x="370" y="698" on="1"/>
        <pt x="370" y="592" on="1"/>
        <pt x="277" y="592" on="1"/>
        <pt x="277" y="106" on="1"/>
        <pt x="370" y="106" on="1"/>
        <pt x="370" y="0" on="1"/>
      </contour>
    </TTGlyph>
    <TTGlyph name="IJ" xMin="77" yMin="-11" xMax="575" yMax="698">
      <contour>
        <pt x="575" y="698" on="1"/>
        <pt x="575" y="214" on="1"/>
        <pt x="575" y="162" on="0"/>
        <pt x="540" y="79" on="0"/>
        <pt x="475" y="20" on="0"/>
        <pt x="384" y="-11" on="0"/>
        <pt x="327" y="-11" on="1"/>
        <pt x="273" y="-11" on="0"/>
        <pt x="189" y="16" on="0"/>
        <pt x="129" y="66" on="0"/>
        <pt x="91" y="134" on="0"/>
        <pt x="84" y="176" on="1"/>
        <pt x="206" y="201" on="1"/>
        <pt x="216" y="156" on="0"/>
        <pt x="276" y="105" on="0"/>
        <pt x="327" y="105" on="1"/>
        <pt x="375" y="105" on="0"/>
        <pt x="443" y="157" on="0"/>
        <pt x="443" y="216" on="1"/>
        <pt x="443" y="590" on="1"/>
        <pt x="337" y="590" on="1"/>
        <pt x="337" y="698" on="1"/>
      </contour>
      <contour>
        <pt x="77" y="698" on="1"/>
        <pt x="209" y="698" on="1"/>
        <pt x="209" y="303" on="1"/>
        <pt x="77" y="303" on="1"/>
      </contour>
    </TTGlyph>
    <TTGlyph name="Iacute" xMin="53" yMin="0" xMax="370" yMax="969">
      <component glyphName="I" x="0" y="0" flags="0x204"/>
      <component glyphName="acute.case" x="-88" y="0" flags="0x4"/>
    </TTGlyph>
    <TTGlyph name="Icircumflex" xMin="28" yMin="0" xMax="396" yMax="950">
      <component glyphName="I" x="0" y="0" flags="0x204"/>
      <component glyphName="circumflex.case" x="-88" y="0" flags="0x4"/>
    </TTGlyph>
    <TTGlyph name="Idieresis" xMin="36" yMin="0" xMax="388" yMax="907">
      <component glyphName="I" x="0" y="0" flags="0x204"/>
      <component glyphName="dieresis.case" x="-88" y="0" flags="0x4"/>
    </TTGlyph>
    <TTGlyph name="Igrave" xMin="53" yMin="0" xMax="370" yMax="969">
      <component glyphName="I" x="0" y="0" flags="0x204"/>
      <component glyphName="grave.case" x="-88" y="0" flags="0x4"/>
    </TTGlyph>
    <TTGlyph name="J" xMin="26" yMin="-11" xMax="467" yMax="698">
      <contour>
        <pt x="467" y="698" on="1"/>
        <pt x="467" y="196" on="1"/>
        <pt x="467" y="149" on="0"/>
        <pt x="436" y="73" on="0"/>
        <pt x="379" y="19" on="0"/>
        <pt x="297" y="-11" on="0"/>
        <pt x="246" y="-11" on="1"/>
        <pt x="149" y="-11" on="0"/>
        <pt x="41" y="90" on="0"/>
        <pt x="26" y="174" on="1"/>
        <pt x="148" y="199" on="1"/>
        <pt x="157" y="154" on="0"/>
        <pt x="204" y="105" on="0"/>
        <pt x="245" y="105" on="1"/>
        <pt x="284" y="105" on="0"/>
        <pt x="335" y="154" on="0"/>
        <pt x="335" y="205" on="1"/>
        <pt x="335" y="590" on="1"/>
        <pt x="115" y="590" on="1"/>
        <pt x="115" y="698" on="1"/>
      </contour>
    </TTGlyph>
    <TTGlyph name="K" xMin="82" yMin="0" xMax="663" yMax="698">
      <contour>
        <pt x="307" y="316" on="1"/>
        <pt x="214" y="206" on="1"/>
        <pt x="214" y="0" on="1"/>
        <pt x="82" y="0" on="1"/>
        <pt x="82" y="698" on="1"/>
        <pt x="214" y="698" on="1"/>
        <pt x="214" y="354" on="1"/>
        <pt x="219" y="354" on="1"/>
        <pt x="318" y="485" on="1"/>
        <pt x="491" y="698" on="1"/>
        <pt x="643" y="698" on="1"/>
        <pt x="400" y="407" on="1"/>
        <pt x="663" y="0" on="1"/>
        <pt x="506" y="0" on="1"/>
      </contour>
    </TTGlyph>
    <TTGlyph name="L" xMin="82" yMin="0" xMax="489" yMax="698">
      <contour>
        <pt x="82" y="0" on="1"/>
        <pt x="82" y="698" on="1"/>
        <pt x="214" y="698" on="1"/>
        <pt x="214" y="117" on="1"/>
        <pt x="489" y="117" on="1"/>
        <pt x="489" y="0" on="1"/>
      </contour>
    </TTGlyph>
    <TTGlyph name="Lslash" xMin="-7" yMin="0" xMax="493" yMax="698">
      <contour>
        <pt x="493" y="0" on="1"/>
        <pt x="86" y="0" on="1"/>
        <pt x="86" y="251" on="1"/>
        <pt x="-7" y="221" on="1"/>
        <pt x="-7" y="320" on="1"/>
        <pt x="86" y="351" on="1"/>
        <pt x="86" y="698" on="1"/>
        <pt x="218" y="698" on="1"/>
        <pt x="218" y="393" on="1"/>
        <pt x="383" y="447" on="1"/>
        <pt x="383" y="346" on="1"/>
        <pt x="218" y="293" on="1"/>
        <pt x="218" y="117" on="1"/>
        <pt x="493" y="117" on="1"/>
      </contour>
    </TTGlyph>
    <TTGlyph name="M" xMin="82" yMin="0" xMax="734" yMax="698">
      <contour>
        <pt x="609" y="501" on="1"/>
        <pt x="605" y="501" on="1"/>
        <pt x="551" y="390" on="1"/>
        <pt x="408" y="126" on="1"/>
        <pt x="265" y="390" on="1"/>
        <pt x="211" y="501" on="1"/>
        <pt x="207" y="501" on="1"/>
        <pt x="207" y="0" on="1"/>
        <pt x="82" y="0" on="1"/>
        <pt x="82" y="698" on="1"/>
        <pt x="231" y="698" on="1"/>
        <pt x="410" y="357" on="1"/>
        <pt x="414" y="357" on="1"/>
        <pt x="591" y="698" on="1"/>
        <pt x="734" y="698" on="1"/>
        <pt x="734" y="0" on="1"/>
        <pt x="609" y="0" on="1"/>
      </contour>
    </TTGlyph>
    <TTGlyph name="N" xMin="82" yMin="0" xMax="637" yMax="698">
      <contour>
        <pt x="282" y="358" on="1"/>
        <pt x="210" y="503" on="1"/>
        <pt x="207" y="503" on="1"/>
        <pt x="207" y="0" on="1"/>
        <pt x="82" y="0" on="1"/>
        <pt x="82" y="698" on="1"/>
        <pt x="227" y="698" on="1"/>
        <pt x="437" y="340" on="1"/>
        <pt x="509" y="195" on="1"/>
        <pt x="512" y="195" on="1"/>
        <pt x="512" y="698" on="1"/>
        <pt x="637" y="698" on="1"/>
        <pt x="637" y="0" on="1"/>
        <pt x="492" y="0" on="1"/>
      </contour>
    </TTGlyph>
    <TTGlyph name="Ntilde" xMin="82" yMin="0" xMax="637" yMax="907">
      <component glyphName="tilde.case" x="59" y="0" flags="0x4"/>
      <component glyphName="N" x="0" y="0" flags="0x4"/>
    </TTGlyph>
    <TTGlyph name="O" xMin="52" yMin="-12" xMax="660" yMax="710">
      <contour>
        <pt x="356" y="-12" on="1"/>
        <pt x="287" y="-12" on="0"/>
        <pt x="175" y="34" on="0"/>
        <pt x="96" y="126" on="0"/>
        <pt x="52" y="260" on="0"/>
        <pt x="52" y="349" on="1"/>
        <pt x="52" y="437" on="0"/>
        <pt x="96" y="572" on="0"/>
        <pt x="175" y="664" on="0"/>
        <pt x="287" y="710" on="0"/>
        <pt x="356" y="710" on="1"/>
        <pt x="425" y="710" on="0"/>
        <pt x="537" y="664" on="0"/>
        <pt x="617" y="572" on="0"/>
        <pt x="660" y="437" on="0"/>
        <pt x="660" y="349" on="1"/>
        <pt x="660" y="260" on="0"/>
        <pt x="617" y="126" on="0"/>
        <pt x="537" y="34" on="0"/>
        <pt x="425" y="-12" on="0"/>
      </contour>
      <contour>
        <pt x="356" y="105" on="1"/>
        <pt x="431" y="105" on="0"/>
        <pt x="520" y="205" on="0"/>
        <pt x="520" y="295" on="1"/>
        <pt x="520" y="403" on="1"/>
        <pt x="520" y="493" on="0"/>
        <pt x="431" y="593" on="0"/>
        <pt x="356" y="593" on="1"/>
        <pt x="281" y="593" on="0"/>
        <pt x="192" y="493" on="0"/>
        <pt x="192" y="403" on="1"/>
        <pt x="192" y="295" on="1"/>
        <pt x="192" y="205" on="0"/>
        <pt x="281" y="105" on="0"/>
      </contour>
    </TTGlyph>
    <TTGlyph name="OE" xMin="52" yMin="-12" xMax="937" yMax="710">
      <contour>
        <pt x="479" y="0" on="1"/>
        <pt x="455" y="-6" on="0"/>
        <pt x="392" y="-12" on="0"/>
        <pt x="360" y="-12" on="1"/>
        <pt x="290" y="-12" on="0"/>
        <pt x="176" y="34" on="0"/>
        <pt x="96" y="126" on="0"/>
        <pt x="52" y="260" on="0"/>
        <pt x="52" y="349" on="1"/>
        <pt x="52" y="437" on="0"/>
        <pt x="96" y="572" on="0"/>
        <pt x="176" y="664" on="0"/>
        <pt x="290" y="710" on="0"/>
        <pt x="360" y="710" on="1"/>
        <pt x="392" y="710" on="0"/>
        <pt x="456" y="704" on="0"/>
        <pt x="484" y="698" on="1"/>
        <pt x="937" y="698" on="1"/>
        <pt x="937" y="581" on="1"/>
        <pt x="607" y="581" on="1"/>
        <pt x="607" y="412" on="1"/>
        <pt x="898" y="412" on="1"/>
        <pt x="898" y="295" on="1"/>
        <pt x="607" y="295" on="1"/>
        <pt x="607" y="117" on="1"/>
        <pt x="937" y="117" on="1"/>
        <pt x="937" y="0" on="1"/>
      </contour>
      <contour>
        <pt x="363" y="105" on="1"/>
        <pt x="422" y="105" on="0"/>
        <pt x="475" y="117" on="1"/>
        <pt x="475" y="580" on="1"/>
        <pt x="449" y="586" on="0"/>
        <pt x="392" y="593" on="0"/>
        <pt x="363" y="593" on="1"/>
        <pt x="280" y="593" on="0"/>
        <pt x="192" y="493" on="0"/>
        <pt x="192" y="403" on="1"/>
        <pt x="192" y="295" on="1"/>
        <pt x="192" y="205" on="0"/>
        <pt x="280" y="105" on="0"/>
      </contour>
    </TTGlyph>
    <TTGlyph name="Oacute" xMin="52" yMin="-12" xMax="660" yMax="969">
      <component glyphName="O" x="0" y="0" flags="0x204"/>
      <component glyphName="acute.case" x="56" y="0" flags="0x4"/>
    </TTGlyph>
    <TTGlyph name="Ocircumflex" xMin="52" yMin="-12" xMax="660" yMax="950">
      <component glyphName="O" x="0" y="0" flags="0x204"/>
      <component glyphName="circumflex.case" x="56" y="0" flags="0x4"/>
    </TTGlyph>
    <TTGlyph name="Odieresis" xMin="52" yMin="-12" xMax="660" yMax="907">
      <component glyphName="O" x="0" y="0" flags="0x204"/>
      <component glyphName="dieresis.case" x="56" y="0" flags="0x4"/>
    </TTGlyph>
    <TTGlyph name="Ograve" xMin="52" yMin="-12" xMax="660" yMax="969">
      <component glyphName="O" x="0" y="0" flags="0x204"/>
      <component glyphName="grave.case" x="56" y="0" flags="0x4"/>
    </TTGlyph>
    <TTGlyph name="Omega" xMin="52" yMin="0" xMax="669" yMax="710">
      <contour>
        <pt x="52" y="117" on="1"/>
        <pt x="211" y="117" on="1"/>
        <pt x="211" y="127" on="1"/>
        <pt x="140" y="161" on="0"/>
        <pt x="56" y="292" on="0"/>
        <pt x="56" y="394" on="1"/>
        <pt x="56" y="458" on="0"/>
        <pt x="96" y="572" on="0"/>
        <pt x="173" y="659" on="0"/>
        <pt x="287" y="710" on="0"/>
        <pt x="361" y="710" on="1"/>
        <pt x="435" y="710" on="0"/>
        <pt x="549" y="659" on="0"/>
        <pt x="626" y="572" on="0"/>
        <pt x="665" y="458" on="0"/>
        <pt x="665" y="394" on="1"/>
        <pt x="665" y="292" on="0"/>
        <pt x="581" y="161" on="0"/>
        <pt x="510" y="127" on="1"/>
        <pt x="510" y="117" on="1"/>
        <pt x="669" y="117" on="1"/>
        <pt x="669" y="0" on="1"/>
        <pt x="412" y="0" on="1"/>
        <pt x="412" y="178" on="1"/>
        <pt x="435" y="185" on="0"/>
        <pt x="476" y="219" on="0"/>
        <pt x="507" y="264" on="0"/>
        <pt x="525" y="318" on="0"/>
        <pt x="525" y="347" on="1"/>
        <pt x="525" y="431" on="1"/>
        <pt x="525" y="461" on="0"/>
        <pt x="502" y="520" on="0"/>
        <pt x="460" y="565" on="0"/>
        <pt x="399" y="593" on="0"/>
        <pt x="361" y="593" on="1"/>
        <pt x="322" y="593" on="0"/>
        <pt x="261" y="565" on="0"/>
        <pt x="219" y="520" on="0"/>
        <pt x="196" y="461" on="0"/>
        <pt x="196" y="431" on="1"/>
        <pt x="196" y="347" on="1"/>
        <pt x="196" y="318" on="0"/>
        <pt x="214" y="264" on="0"/>
        <pt x="245" y="219" on="0"/>
        <pt x="286" y="185" on="0"/>
        <pt x="309" y="178" on="1"/>
        <pt x="309" y="0" on="1"/>
        <pt x="52" y="0" on="1"/>
      </contour>
    </TTGlyph>
    <TTGlyph name="Oslash" xMin="52" yMin="-53" xMax="660" yMax="751">
      <contour>
        <pt x="356" y="-12" on="1"/>
        <pt x="268" y="-12" on="0"/>
        <pt x="199" y="28" on="1"/>
        <pt x="144" y="-53" on="1"/>
        <pt x="63" y="0" on="1"/>
        <pt x="126" y="92" on="1"/>
        <pt x="52" y="184" on="0"/>
        <pt x="52" y="349" on="1"/>
        <pt x="52" y="437" on="0"/>
        <pt x="96" y="572" on="0"/>
        <pt x="175" y="664" on="0"/>
        <pt x="287" y="710" on="0"/>
        <pt x="356" y="710" on="1"/>
        <pt x="445" y="710" on="0"/>
        <pt x="513" y="670" on="1"/>
        <pt x="568" y="751" on="1"/>
        <pt x="650" y="698" on="1"/>
        <pt x="587" y="606" on="1"/>
        <pt x="622" y="561" on="0"/>
        <pt x="660" y="433" on="0"/>
        <pt x="660" y="349" on="1"/>
        <pt x="660" y="260" on="0"/>
        <pt x="617" y="126" on="0"/>
        <pt x="537" y="34" on="0"/>
        <pt x="425" y="-12" on="0"/>
      </contour>
      <contour>
        <pt x="188" y="293" on="1"/>
        <pt x="188" y="238" on="0"/>
        <pt x="206" y="196" on="1"/>
        <pt x="451" y="573" on="1"/>
        <pt x="413" y="600" on="0"/>
        <pt x="356" y="600" on="1"/>
        <pt x="278" y="600" on="0"/>
        <pt x="188" y="497" on="0"/>
        <pt x="188" y="405" on="1"/>
      </contour>
      <contour>
        <pt x="525" y="405" on="1"/>
        <pt x="525" y="433" on="0"/>
        <pt x="515" y="481" on="0"/>
        <pt x="507" y="502" on="1"/>
        <pt x="261" y="125" on="1"/>
        <pt x="298" y="98" on="0"/>
        <pt x="356" y="98" on="1"/>
        <pt x="434" y="98" on="0"/>
        <pt x="525" y="201" on="0"/>
        <pt x="525" y="293" on="1"/>
      </contour>
    </TTGlyph>
    <TTGlyph name="Otilde" xMin="52" yMin="-12" xMax="660" yMax="907">
      <component glyphName="O" x="0" y="0" flags="0x204"/>
      <component glyphName="tilde.case" x="56" y="0" flags="0x4"/>
    </TTGlyph>
    <TTGlyph name="P" xMin="82" yMin="0" xMax="603" yMax="698">
      <contour>
        <pt x="82" y="0" on="1"/>
        <pt x="82" y="698" on="1"/>
        <pt x="396" y="698" on="1"/>
        <pt x="444" y="698" on="0"/>
        <pt x="521" y="667" on="0"/>
        <pt x="575" y="610" on="0"/>
        <pt x="603" y="530" on="0"/>
        <pt x="603" y="482" on="1"/>
        <pt x="603" y="433" on="0"/>
        <pt x="575" y="354" on="0"/>
        <pt x="521" y="297" on="0"/>
        <pt x="444" y="266" on="0"/>
        <pt x="396" y="266" on="1"/>
        <pt x="214" y="266" on="1"/>
        <pt x="214" y="0" on="1"/>
      </contour>
      <contour>
        <pt x="214" y="380" on="1"/>
        <pt x="384" y="380" on="1"/>
        <pt x="422" y="380" on="0"/>
        <pt x="466" y="421" on="0"/>
        <pt x="466" y="459" on="1"/>
        <pt x="466" y="505" on="1"/>
        <pt x="466" y="543" on="0"/>
        <pt x="422" y="583" on="0"/>
        <pt x="384" y="583" on="1"/>
        <pt x="214" y="583" on="1"/>
      </contour>
    </TTGlyph>
    <TTGlyph name="Q" xMin="52" yMin="-178" xMax="660" yMax="710">
      <contour>
        <pt x="532" y="-178" on="1"/>
        <pt x="435" y="-178" on="1"/>
        <pt x="366" y="-178" on="0"/>
        <pt x="301" y="-111" on="0"/>
        <pt x="301" y="-50" on="1"/>
        <pt x="301" y="-8" on="1"/>
        <pt x="187" y="9" on="0"/>
        <pt x="52" y="191" on="0"/>
        <pt x="52" y="349" on="1"/>
        <pt x="52" y="437" on="0"/>
        <pt x="96" y="572" on="0"/>
        <pt x="175" y="664" on="0"/>
        <pt x="287" y="710" on="0"/>
        <pt x="356" y="710" on="1"/>
        <pt x="425" y="710" on="0"/>
        <pt x="537" y="664" on="0"/>
        <pt x="617" y="572" on="0"/>
        <pt x="660" y="437" on="0"/>
        <pt x="660" y="349" on="1"/>
        <pt x="660" y="194" on="0"/>
        <pt x="534" y="16" on="0"/>
        <pt x="425" y="-5" on="1"/>
        <pt x="425" y="-70" on="1"/>
        <pt x="532" y="-70" on="1"/>
      </contour>
      <contour>
        <pt x="356" y="105" on="1"/>
        <pt x="431" y="105" on="0"/>
        <pt x="520" y="205" on="0"/>
        <pt x="520" y="295" on="1"/>
        <pt x="520" y="403" on="1"/>
        <pt x="520" y="493" on="0"/>
        <pt x="431" y="593" on="0"/>
        <pt x="356" y="593" on="1"/>
        <pt x="281" y="593" on="0"/>
        <pt x="192" y="493" on="0"/>
        <pt x="192" y="403" on="1"/>
        <pt x="192" y="295" on="1"/>
        <pt x="192" y="205" on="0"/>
        <pt x="281" y="105" on="0"/>
      </contour>
    </TTGlyph>
    <TTGlyph name="R" xMin="82" yMin="0" xMax="616" yMax="698">
      <contour>
        <pt x="214" y="0" on="1"/>
        <pt x="82" y="0" on="1"/>
        <pt x="82" y="698" on="1"/>
        <pt x="397" y="698" on="1"/>
        <pt x="445" y="698" on="0"/>
        <pt x="521" y="668" on="0"/>
        <pt x="574" y="611" on="0"/>
        <pt x="603" y="531" on="0"/>
        <pt x="603" y="482" on="1"/>
        <pt x="603" y="410" on="0"/>
        <pt x="538" y="306" on="0"/>
        <pt x="473" y="284" on="1"/>
        <pt x="616" y="0" on="1"/>
        <pt x="469" y="0" on="1"/>
        <pt x="339" y="269" on="1"/>
        <pt x="214" y="269" on="1"/>
      </contour>
      <contour>
        <pt x="384" y="380" on="1"/>
        <pt x="422" y="380" on="0"/>
        <pt x="466" y="421" on="0"/>
        <pt x="466" y="459" on="1"/>
        <pt x="466" y="505" on="1"/>
        <pt x="466" y="543" on="0"/>
        <pt x="422" y="583" on="0"/>
        <pt x="384" y="583" on="1"/>
        <pt x="214" y="583" on="1"/>
        <pt x="214" y="380" on="1"/>
      </contour>
    </TTGlyph>
    <TTGlyph name="S" xMin="39" yMin="-12" xMax="561" yMax="710">
      <contour>
        <pt x="299" y="-12" on="1"/>
        <pt x="209" y="-12" on="0"/>
        <pt x="84" y="52" on="0"/>
        <pt x="39" y="104" on="1"/>
        <pt x="128" y="190" on="1"/>
        <pt x="164" y="148" on="0"/>
        <pt x="253" y="104" on="0"/>
        <pt x="307" y="104" on="1"/>
        <pt x="368" y="104" on="0"/>
        <pt x="430" y="157" on="0"/>
        <pt x="430" y="202" on="1"/>
        <pt x="430" y="237" on="0"/>
        <pt x="390" y="281" on="0"/>
        <pt x="335" y="291" on="1"/>
        <pt x="269" y="301" on="1"/>
        <pt x="60" y="334" on="0"/>
        <pt x="60" y="504" on="1"/>
        <pt x="60" y="551" on="0"/>
        <pt x="95" y="627" on="0"/>
        <pt x="161" y="681" on="0"/>
        <pt x="254" y="710" on="0"/>
        <pt x="313" y="710" on="1"/>
        <pt x="392" y="710" on="0"/>
        <pt x="510" y="658" on="0"/>
        <pt x="552" y="607" on="1"/>
        <pt x="462" y="522" on="1"/>
        <pt x="436" y="554" on="0"/>
        <pt x="362" y="594" on="0"/>
        <pt x="306" y="594" on="1"/>
        <pt x="249" y="594" on="0"/>
        <pt x="192" y="551" on="0"/>
        <pt x="192" y="512" on="1"/>
        <pt x="192" y="472" on="0"/>
        <pt x="238" y="434" on="0"/>
        <pt x="289" y="425" on="1"/>
        <pt x="354" y="413" on="1"/>
        <pt x="460" y="394" on="0"/>
        <pt x="561" y="297" on="0"/>
        <pt x="561" y="210" on="1"/>
        <pt x="561" y="160" on="0"/>
        <pt x="526" y="79" on="0"/>
        <pt x="459" y="20" on="0"/>
        <pt x="362" y="-12" on="0"/>
      </contour>
    </TTGlyph>
    <TTGlyph name="Scaron" xMin="39" yMin="-12" xMax="561" yMax="959">
      <component glyphName="S" x="0" y="0" flags="0x204"/>
      <component glyphName="caron.case" x="4" y="0" flags="0x4"/>
    </TTGlyph>
    <TTGlyph name="T" xMin="26" yMin="0" xMax="554" yMax="698">
      <contour>
        <pt x="356" y="581" on="1"/>
        <pt x="356" y="0" on="1"/>
        <pt x="224" y="0" on="1"/>
        <pt x="224" y="581" on="1"/>
        <pt x="26" y="581" on="1"/>
        <pt x="26" y="698" on="1"/>
        <pt x="554" y="698" on="1"/>
        <pt x="554" y="581" on="1"/>
      </contour>
    </TTGlyph>
    <TTGlyph name="Thorn" xMin="82" yMin="0" xMax="603" yMax="698">
      <contour>
        <pt x="82" y="0" on="1"/>
        <pt x="82" y="698" on="1"/>
        <pt x="214" y="698" on="1"/>
        <pt x="214" y="571" on="1"/>
        <pt x="396" y="571" on="1"/>
        <pt x="444" y="571" on="0"/>
        <pt x="521" y="539" on="0"/>
        <pt x="575" y="482" on="0"/>
        <pt x="603" y="403" on="0"/>
        <pt x="603" y="355" on="1"/>
        <pt x="603" y="307" on="0"/>
        <pt x="575" y="227" on="0"/>
        <pt x="521" y="170" on="0"/>
        <pt x="444" y="138" on="0"/>
        <pt x="396" y="138" on="1"/>
        <pt x="214" y="138" on="1"/>
        <pt x="214" y="0" on="1"/>
      </contour>
      <contour>
        <pt x="214" y="254" on="1"/>
        <pt x="384" y="254" on="1"/>
        <pt x="422" y="254" on="0"/>
        <pt x="466" y="294" on="0"/>
        <pt x="466" y="332" on="1"/>
        <pt x="466" y="378" on="1"/>
        <pt x="466" y="416" on="0"/>
        <pt x="422" y="456" on="0"/>
        <pt x="384" y="456" on="1"/>
        <pt x="214" y="456" on="1"/>
      </contour>
    </TTGlyph>
    <TTGlyph name="U" xMin="77" yMin="-12" xMax="613" yMax="698">
      <contour>
        <pt x="207" y="698" on="1"/>
        <pt x="207" y="269" on="1"/>
        <pt x="207" y="187" on="0"/>
        <pt x="270" y="105" on="0"/>
        <pt x="345" y="105" on="1"/>
        <pt x="420" y="105" on="0"/>
        <pt x="483" y="187" on="0"/>
        <pt x="483" y="269" on="1"/>
        <pt x="483" y="698" on="1"/>
        <pt x="613" y="698" on="1"/>
        <pt x="613" y="286" on="1"/>
        <pt x="613" y="209" on="0"/>
        <pt x="584" y="97" on="0"/>
        <pt x="520" y="23" on="0"/>
        <pt x="417" y="-12" on="0"/>
        <pt x="344" y="-12" on="1"/>
        <pt x="270" y="-12" on="0"/>
        <pt x="169" y="23" on="0"/>
        <pt x="105" y="97" on="0"/>
        <pt x="77" y="209" on="0"/>
        <pt x="77" y="286" on="1"/>
        <pt x="77" y="698" on="1"/>
      </contour>
    </TTGlyph>
    <TTGlyph name="Uacute" xMin="77" yMin="-12" xMax="613" yMax="969">
      <component glyphName="U" x="0" y="0" flags="0x4"/>
      <component glyphName="acute.case" x="44" y="0" flags="0x4"/>
    </TTGlyph>
    <TTGlyph name="Ucircumflex" xMin="77" yMin="-12" xMax="613" yMax="950">
      <component glyphName="circumflex.case" x="44" y="0" flags="0x4"/>
      <component glyphName="U" x="0" y="0" flags="0x4"/>
    </TTGlyph>
    <TTGlyph name="Udieresis" xMin="77" yMin="-12" xMax="613" yMax="907">
      <component glyphName="U" x="0" y="0" flags="0x4"/>
      <component glyphName="dieresis.case" x="44" y="0" flags="0x4"/>
    </TTGlyph>
    <TTGlyph name="Ugrave" xMin="77" yMin="-12" xMax="613" yMax="969">
      <component glyphName="grave.case" x="44" y="0" flags="0x4"/>
      <component glyphName="U" x="0" y="0" flags="0x4"/>
    </TTGlyph>
    <TTGlyph name="V" xMin="16" yMin="0" xMax="622" yMax="698">
      <contour>
        <pt x="244" y="0" on="1"/>
        <pt x="16" y="698" on="1"/>
        <pt x="151" y="698" on="1"/>
        <pt x="258" y="358" on="1"/>
        <pt x="320" y="126" on="1"/>
        <pt x="323" y="126" on="1"/>
        <pt x="384" y="358" on="1"/>
        <pt x="491" y="698" on="1"/>
        <pt x="622" y="698" on="1"/>
        <pt x="394" y="0" on="1"/>
      </contour>
    </TTGlyph>
    <TTGlyph name="W" xMin="26" yMin="0" xMax="922" yMax="698">
      <contour>
        <pt x="188" y="0" on="1"/>
        <pt x="26" y="698" on="1"/>
        <pt x="158" y="698" on="1"/>
        <pt x="227" y="363" on="1"/>
        <pt x="270" y="149" on="1"/>
        <pt x="273" y="149" on="1"/>
        <pt x="323" y="363" on="1"/>
        <pt x="403" y="698" on="1"/>
        <pt x="549" y="698" on="1"/>
        <pt x="629" y="363" on="1"/>
        <pt x="678" y="149" on="1"/>
        <pt x="681" y="149" on="1"/>
        <pt x="725" y="363" on="1"/>
        <pt x="796" y="698" on="1"/>
        <pt x="922" y="698" on="1"/>
        <pt x="755" y="0" on="1"/>
        <pt x="606" y="0" on="1"/>
        <pt x="517" y="369" on="1"/>
        <pt x="474" y="553" on="1"/>
        <pt x="472" y="553" on="1"/>
        <pt x="427" y="369" on="1"/>
        <pt x="338" y="0" on="1"/>
      </contour>
    </TTGlyph>
    <TTGlyph name="X" xMin="18" yMin="0" xMax="637" yMax="698">
      <contour>
        <pt x="637" y="0" on="1"/>
        <pt x="483" y="0" on="1"/>
        <pt x="323" y="268" on="1"/>
        <pt x="320" y="268" on="1"/>
        <pt x="162" y="0" on="1"/>
        <pt x="18" y="0" on="1"/>
        <pt x="244" y="358" on="1"/>
        <pt x="28" y="698" on="1"/>
        <pt x="182" y="698" on="1"/>
        <pt x="330" y="450" on="1"/>
        <pt x="333" y="450" on="1"/>
        <pt x="483" y="698" on="1"/>
        <pt x="627" y="698" on="1"/>
        <pt x="409" y="358" on="1"/>
      </contour>
    </TTGlyph>
    <TTGlyph name="Y" xMin="10" yMin="0" xMax="622" yMax="698">
      <contour>
        <pt x="249" y="0" on="1"/>
        <pt x="249" y="274" on="1"/>
        <pt x="10" y="698" on="1"/>
        <pt x="158" y="698" on="1"/>
        <pt x="319" y="403" on="1"/>
        <pt x="321" y="403" on="1"/>
        <pt x="478" y="698" on="1"/>
        <pt x="622" y="698" on="1"/>
        <pt x="382" y="275" on="1"/>
        <pt x="382" y="0" on="1"/>
      </contour>
    </TTGlyph>
    <TTGlyph name="Yacute" xMin="10" yMin="0" xMax="622" yMax="969">
      <component glyphName="Y" x="0" y="0" flags="0x204"/>
      <component glyphName="acute.case" x="17" y="0" flags="0x4"/>
    </TTGlyph>
    <TTGlyph name="Ydieresis" xMin="10" yMin="0" xMax="622" yMax="907">
      <component glyphName="Y" x="0" y="0" flags="0x204"/>
      <component glyphName="dieresis.case" x="17" y="0" flags="0x4"/>
    </TTGlyph>
    <TTGlyph name="Z" xMin="38" yMin="0" xMax="561" yMax="698">
      <contour>
        <pt x="561" y="0" on="1"/>
        <pt x="38" y="0" on="1"/>
        <pt x="38" y="118" on="1"/>
        <pt x="399" y="581" on="1"/>
        <pt x="56" y="581" on="1"/>
        <pt x="56" y="698" on="1"/>
        <pt x="551" y="698" on="1"/>
        <pt x="551" y="580" on="1"/>
        <pt x="189" y="117" on="1"/>
        <pt x="561" y="117" on="1"/>
      </contour>
    </TTGlyph>
    <TTGlyph name="Zcaron" xMin="38" yMin="0" xMax="561" yMax="959">
      <component glyphName="Z" x="0" y="0" flags="0x204"/>
      <component glyphName="caron.case" x="1" y="0" flags="0x4"/>
    </TTGlyph>
    <TTGlyph name="a" xMin="37" yMin="-12" xMax="529" yMax="534">
      <contour>
        <pt x="458" y="0" on="1"/>
        <pt x="416" y="0" on="0"/>
        <pt x="367" y="49" on="0"/>
        <pt x="361" y="90" on="1"/>
        <pt x="355" y="90" on="1"/>
        <pt x="342" y="39" on="0"/>
        <pt x="262" y="-12" on="0"/>
        <pt x="203" y="-12" on="1"/>
        <pt x="123" y="-12" on="0"/>
        <pt x="37" y="72" on="0"/>
        <pt x="37" y="142" on="1"/>
        <pt x="37" y="223" on="0"/>
        <pt x="153" y="302" on="0"/>
        <pt x="260" y="302" on="1"/>
        <pt x="349" y="302" on="1"/>
        <pt x="349" y="340" on="1"/>
        <pt x="349" y="384" on="0"/>
        <pt x="303" y="432" on="0"/>
        <pt x="252" y="432" on="1"/>
        <pt x="207" y="432" on="0"/>
        <pt x="152" y="393" on="0"/>
        <pt x="133" y="366" on="1"/>
        <pt x="57" y="434" on="1"/>
        <pt x="86" y="479" on="0"/>
        <pt x="182" y="534" on="0"/>
        <pt x="261" y="534" on="1"/>
        <pt x="367" y="534" on="0"/>
        <pt x="477" y="438" on="0"/>
        <pt x="477" y="348" on="1"/>
        <pt x="477" y="102" on="1"/>
        <pt x="529" y="102" on="1"/>
        <pt x="529" y="0" on="1"/>
      </contour>
      <contour>
        <pt x="246" y="81" on="1"/>
        <pt x="289" y="81" on="0"/>
        <pt x="349" y="119" on="0"/>
        <pt x="349" y="156" on="1"/>
        <pt x="349" y="225" on="1"/>
        <pt x="267" y="225" on="1"/>
        <pt x="167" y="225" on="0"/>
        <pt x="167" y="161" on="1"/>
        <pt x="167" y="144" on="1"/>
        <pt x="167" y="112" on="0"/>
        <pt x="208" y="81" on="0"/>
      </contour>
    </TTGlyph>
    <TTGlyph name="a.alt01" xMin="45" yMin="-12" xMax="526" yMax="534">
      <contour>
        <pt x="398" y="87" on="1"/>
        <pt x="393" y="87" on="1"/>
        <pt x="379" y="42" on="0"/>
        <pt x="301" y="-12" on="0"/>
        <pt x="249" y="-12" on="1"/>
        <pt x="150" y="-12" on="0"/>
        <pt x="45" y="130" on="0"/>
        <pt x="45" y="262" on="1"/>
        <pt x="45" y="393" on="0"/>
        <pt x="150" y="534" on="0"/>
        <pt x="249" y="534" on="1"/>
        <pt x="301" y="534" on="0"/>
        <pt x="379" y="481" on="0"/>
        <pt x="393" y="436" on="1"/>
        <pt x="398" y="436" on="1"/>
        <pt x="398" y="522" on="1"/>
        <pt x="526" y="522" on="1"/>
        <pt x="526" y="0" on="1"/>
        <pt x="398" y="0" on="1"/>
      </contour>
      <contour>
        <pt x="290" y="94" on="1"/>
        <pt x="336" y="94" on="0"/>
        <pt x="398" y="138" on="0"/>
        <pt x="398" y="179" on="1"/>
        <pt x="398" y="345" on="1"/>
        <pt x="398" y="383" on="0"/>
        <pt x="336" y="429" on="0"/>
        <pt x="290" y="429" on="1"/>
        <pt x="240" y="429" on="0"/>
        <pt x="179" y="362" on="0"/>
        <pt x="179" y="306" on="1"/>
        <pt x="179" y="216" on="1"/>
        <pt x="179" y="160" on="0"/>
        <pt x="240" y="94" on="0"/>
      </contour>
    </TTGlyph>
    <TTGlyph name="aacute" xMin="37" yMin="-12" xMax="529" yMax="805">
      <component glyphName="a" x="0" y="0" flags="0x204"/>
      <component glyphName="acute" x="-36" y="0" flags="0x4"/>
    </TTGlyph>
    <TTGlyph name="aacute.alt01" xMin="45" yMin="-12" xMax="526" yMax="805">
      <component glyphName="a.alt01" x="0" y="0" flags="0x204"/>
      <component glyphName="acute" x="4" y="0" flags="0x4"/>
    </TTGlyph>
    <TTGlyph name="acircumflex" xMin="37" yMin="-12" xMax="529" yMax="786">
      <component glyphName="a" x="0" y="0" flags="0x204"/>
      <component glyphName="circumflex" x="-36" y="0" flags="0x4"/>
    </TTGlyph>
    <TTGlyph name="acircumflex.alt01" xMin="45" yMin="-12" xMax="526" yMax="786">
      <component glyphName="a.alt01" x="0" y="0" flags="0x204"/>
      <component glyphName="circumflex" x="4" y="0" flags="0x4"/>
    </TTGlyph>
    <TTGlyph name="acute" xMin="236" yMin="581" xMax="439" yMax="805">
      <contour>
        <pt x="313" y="581" on="1"/>
        <pt x="236" y="618" on="1"/>
        <pt x="331" y="805" on="1"/>
        <pt x="439" y="752" on="1"/>
      </contour>
    </TTGlyph>
    <TTGlyph name="acute.case" xMin="236" yMin="744" xMax="439" yMax="969">
      <contour>
        <pt x="313" y="744" on="1"/>
        <pt x="236" y="782" on="1"/>
        <pt x="331" y="969" on="1"/>
        <pt x="439" y="915" on="1"/>
      </contour>
    </TTGlyph>
    <TTGlyph name="adieresis" xMin="37" yMin="-12" xMax="529" yMax="742">
      <component glyphName="a" x="0" y="0" flags="0x204"/>
      <component glyphName="dieresis" x="-36" y="0" flags="0x4"/>
    </TTGlyph>
    <TTGlyph name="adieresis.alt01" xMin="45" yMin="-12" xMax="526" yMax="742">
      <component glyphName="a.alt01" x="0" y="0" flags="0x204"/>
      <component glyphName="dieresis" x="4" y="0" flags="0x4"/>
    </TTGlyph>
    <TTGlyph name="ae" xMin="37" yMin="-12" xMax="825" yMax="534">
      <contour>
        <pt x="267" y="229" on="1"/>
        <pt x="219" y="228" on="0"/>
        <pt x="167" y="195" on="0"/>
        <pt x="167" y="163" on="1"/>
        <pt x="167" y="147" on="1"/>
        <pt x="167" y="115" on="0"/>
        <pt x="207" y="81" on="0"/>
        <pt x="247" y="81" on="1"/>
        <pt x="289" y="81" on="0"/>
        <pt x="349" y="119" on="0"/>
        <pt x="349" y="156" on="1"/>
        <pt x="349" y="229" on="1"/>
      </contour>
      <contour>
        <pt x="692" y="308" on="1"/>
        <pt x="692" y="317" on="1"/>
        <pt x="692" y="371" on="0"/>
        <pt x="639" y="438" on="0"/>
        <pt x="589" y="438" on="1"/>
        <pt x="538" y="438" on="0"/>
        <pt x="478" y="370" on="0"/>
        <pt x="478" y="316" on="1"/>
        <pt x="478" y="308" on="1"/>
      </contour>
      <contour>
        <pt x="607" y="92" on="1"/>
        <pt x="654" y="92" on="0"/>
        <pt x="718" y="132" on="0"/>
        <pt x="740" y="161" on="1"/>
        <pt x="809" y="84" on="1"/>
        <pt x="777" y="39" on="0"/>
        <pt x="667" y="-12" on="0"/>
        <pt x="596" y="-12" on="1"/>
        <pt x="558" y="-12" on="0"/>
        <pt x="492" y="6" on="0"/>
        <pt x="441" y="36" on="0"/>
        <pt x="405" y="74" on="0"/>
        <pt x="396" y="95" on="1"/>
        <pt x="390" y="95" on="1"/>
        <pt x="383" y="75" on="0"/>
        <pt x="354" y="37" on="0"/>
        <pt x="308" y="7" on="0"/>
        <pt x="245" y="-12" on="0"/>
        <pt x="203" y="-12" on="1"/>
        <pt x="124" y="-12" on="0"/>
        <pt x="37" y="74" on="0"/>
        <pt x="37" y="143" on="1"/>
        <pt x="37" y="184" on="0"/>
        <pt x="69" y="246" on="0"/>
        <pt x="127" y="287" on="0"/>
        <pt x="209" y="308" on="0"/>
        <pt x="260" y="308" on="1"/>
        <pt x="349" y="308" on="1"/>
        <pt x="349" y="340" on="1"/>
        <pt x="349" y="384" on="0"/>
        <pt x="303" y="432" on="0"/>
        <pt x="253" y="432" on="1"/>
        <pt x="207" y="432" on="0"/>
        <pt x="152" y="394" on="0"/>
        <pt x="133" y="366" on="1"/>
        <pt x="57" y="434" on="1"/>
        <pt x="86" y="479" on="0"/>
        <pt x="182" y="534" on="0"/>
        <pt x="261" y="534" on="1"/>
        <pt x="321" y="534" on="0"/>
        <pt x="393" y="485" on="0"/>
        <pt x="413" y="448" on="1"/>
        <pt x="419" y="448" on="1"/>
        <pt x="439" y="485" on="0"/>
        <pt x="529" y="534" on="0"/>
        <pt x="592" y="534" on="1"/>
        <pt x="653" y="534" on="0"/>
        <pt x="741" y="492" on="0"/>
        <pt x="798" y="420" on="0"/>
        <pt x="825" y="325" on="0"/>
        <pt x="825" y="271" on="1"/>
        <pt x="825" y="229" on="1"/>
        <pt x="477" y="229" on="1"/>
        <pt x="477" y="216" on="1"/>
        <pt x="477" y="160" on="0"/>
        <pt x="545" y="92" on="0"/>
      </contour>
    </TTGlyph>
    <TTGlyph name="agrave" xMin="37" yMin="-12" xMax="529" yMax="805">
      <component glyphName="a" x="0" y="0" flags="0x204"/>
      <component glyphName="grave" x="-36" y="0" flags="0x4"/>
    </TTGlyph>
    <TTGlyph name="agrave.alt01" xMin="45" yMin="-12" xMax="526" yMax="805">
      <component glyphName="a.alt01" x="0" y="0" flags="0x204"/>
      <component glyphName="grave" x="4" y="0" flags="0x4"/>
    </TTGlyph>
    <TTGlyph name="ampersand" xMin="56" yMin="-12" xMax="703" yMax="710">
      <contour>
        <pt x="488" y="64" on="1"/>
        <pt x="473" y="51" on="0"/>
        <pt x="435" y="24" on="0"/>
        <pt x="386" y="2" on="0"/>
        <pt x="325" y="-12" on="0"/>
        <pt x="287" y="-12" on="1"/>
        <pt x="231" y="-12" on="0"/>
        <pt x="144" y="18" on="0"/>
        <pt x="86" y="70" on="0"/>
        <pt x="56" y="141" on="0"/>
        <pt x="56" y="182" on="1"/>
        <pt x="56" y="219" on="0"/>
        <pt x="78" y="276" on="0"/>
        <pt x="116" y="323" on="0"/>
        <pt x="168" y="360" on="0"/>
        <pt x="197" y="377" on="1"/>
        <pt x="166" y="412" on="0"/>
        <pt x="119" y="495" on="0"/>
        <pt x="119" y="543" on="1"/>
        <pt x="119" y="577" on="0"/>
        <pt x="147" y="638" on="0"/>
        <pt x="200" y="684" on="0"/>
        <pt x="274" y="710" on="0"/>
        <pt x="320" y="710" on="1"/>
        <pt x="361" y="710" on="0"/>
        <pt x="431" y="688" on="0"/>
        <pt x="482" y="648" on="0"/>
        <pt x="511" y="590" on="0"/>
        <pt x="511" y="553" on="1"/>
        <pt x="511" y="520" on="0"/>
        <pt x="488" y="465" on="0"/>
        <pt x="448" y="420" on="0"/>
        <pt x="396" y="381" on="0"/>
        <pt x="366" y="364" on="1"/>
        <pt x="488" y="232" on="1"/>
        <pt x="502" y="266" on="0"/>
        <pt x="517" y="342" on="0"/>
        <pt x="519" y="380" on="1"/>
        <pt x="676" y="380" on="1"/>
        <pt x="676" y="273" on="1"/>
        <pt x="611" y="273" on="1"/>
        <pt x="596" y="205" on="0"/>
        <pt x="565" y="149" on="1"/>
        <pt x="703" y="0" on="1"/>
        <pt x="546" y="0" on="1"/>
      </contour>
      <contour>
        <pt x="316" y="611" on="1"/>
        <pt x="284" y="611" on="0"/>
        <pt x="242" y="574" on="0"/>
        <pt x="242" y="543" on="1"/>
        <pt x="242" y="536" on="1"/>
        <pt x="242" y="513" on="0"/>
        <pt x="271" y="468" on="0"/>
        <pt x="302" y="433" on="1"/>
        <pt x="340" y="456" on="0"/>
        <pt x="389" y="506" on="0"/>
        <pt x="389" y="539" on="1"/>
        <pt x="389" y="545" on="1"/>
        <pt x="389" y="577" on="0"/>
        <pt x="346" y="611" on="0"/>
      </contour>
      <contour>
        <pt x="304" y="95" on="1"/>
        <pt x="340" y="95" on="0"/>
        <pt x="398" y="117" on="0"/>
        <pt x="420" y="136" on="1"/>
        <pt x="261" y="308" on="1"/>
        <pt x="226" y="287" on="0"/>
        <pt x="187" y="240" on="0"/>
        <pt x="187" y="204" on="1"/>
        <pt x="187" y="193" on="1"/>
        <pt x="187" y="149" on="0"/>
        <pt x="247" y="95" on="0"/>
      </contour>
    </TTGlyph>
    <TTGlyph name="approxequal" xMin="57" yMin="108" xMax="547" yMax="503">
      <component glyphName="asciitilde" x="2" y="111" flags="0x204"/>
      <component glyphName="asciitilde" x="2" y="-111" flags="0x4"/>
    </TTGlyph>
    <TTGlyph name="aring" xMin="37" yMin="-12" xMax="529" yMax="833">
      <component glyphName="a" x="0" y="0" flags="0x204"/>
      <component glyphName="ring" x="-36" y="0" flags="0x4"/>
    </TTGlyph>
    <TTGlyph name="aring.alt01" xMin="45" yMin="-12" xMax="526" yMax="833">
      <component glyphName="a.alt01" x="0" y="0" flags="0x204"/>
      <component glyphName="ring" x="4" y="0" flags="0x4"/>
    </TTGlyph>
    <TTGlyph name="asciicircum" xMin="44" yMin="283" xMax="556" yMax="698">
      <contour>
        <pt x="454" y="283" on="1"/>
        <pt x="301" y="563" on="1"/>
        <pt x="295" y="563" on="1"/>
        <pt x="141" y="283" on="1"/>
        <pt x="44" y="332" on="1"/>
        <pt x="246" y="698" on="1"/>
        <pt x="356" y="698" on="1"/>
        <pt x="556" y="332" on="1"/>
      </contour>
    </TTGlyph>
    <TTGlyph name="asciitilde" xMin="55" yMin="219" xMax="545" yMax="392">
      <contour>
        <pt x="417" y="219" on="1"/>
        <pt x="380" y="219" on="0"/>
        <pt x="324" y="238" on="0"/>
        <pt x="290" y="255" on="1"/>
        <pt x="263" y="269" on="0"/>
        <pt x="210" y="289" on="0"/>
        <pt x="179" y="289" on="1"/>
        <pt x="156" y="289" on="0"/>
        <pt x="122" y="275" on="0"/>
        <pt x="100" y="260" on="1"/>
        <pt x="55" y="332" on="1"/>
        <pt x="74" y="358" on="0"/>
        <pt x="135" y="392" on="0"/>
        <pt x="183" y="392" on="1"/>
        <pt x="220" y="392" on="0"/>
        <pt x="276" y="373" on="0"/>
        <pt x="310" y="356" on="1"/>
        <pt x="337" y="342" on="0"/>
        <pt x="390" y="323" on="0"/>
        <pt x="421" y="323" on="1"/>
        <pt x="444" y="323" on="0"/>
        <pt x="478" y="336" on="0"/>
        <pt x="500" y="351" on="1"/>
        <pt x="545" y="279" on="1"/>
        <pt x="526" y="253" on="0"/>
        <pt x="465" y="219" on="0"/>
      </contour>
    </TTGlyph>
    <TTGlyph name="asterisk" xMin="33" yMin="282" xMax="523" yMax="747">
      <contour>
        <pt x="178" y="282" on="1"/>
        <pt x="88" y="344" on="1"/>
        <pt x="204" y="486" on="1"/>
        <pt x="33" y="536" on="1"/>
        <pt x="67" y="636" on="1"/>
        <pt x="231" y="570" on="1"/>
        <pt x="222" y="747" on="1"/>
        <pt x="334" y="747" on="1"/>
        <pt x="326" y="570" on="1"/>
        <pt x="489" y="636" on="1"/>
        <pt x="523" y="536" on="1"/>
        <pt x="352" y="486" on="1"/>
        <pt x="468" y="344" on="1"/>
        <pt x="378" y="283" on="1"/>
        <pt x="278" y="433" on="1"/>
      </contour>
    </TTGlyph>
    <TTGlyph name="at" xMin="62" yMin="-121" xMax="840" yMax="709">
      <contour>
        <pt x="674" y="-121" on="1"/>
        <pt x="458" y="-121" on="1"/>
        <pt x="365" y="-121" on="0"/>
        <pt x="218" y="-61" on="0"/>
        <pt x="116" y="47" on="0"/>
        <pt x="62" y="198" on="0"/>
        <pt x="62" y="290" on="1"/>
        <pt x="62" y="382" on="0"/>
        <pt x="118" y="536" on="0"/>
        <pt x="221" y="647" on="0"/>
        <pt x="368" y="709" on="0"/>
        <pt x="460" y="709" on="1"/>
        <pt x="542" y="709" on="0"/>
        <pt x="681" y="659" on="0"/>
        <pt x="783" y="563" on="0"/>
        <pt x="840" y="422" on="0"/>
        <pt x="840" y="331" on="1"/>
        <pt x="840" y="274" on="0"/>
        <pt x="816" y="181" on="0"/>
        <pt x="769" y="114" on="0"/>
        <pt x="701" y="78" on="0"/>
        <pt x="657" y="78" on="1"/>
        <pt x="605" y="78" on="0"/>
        <pt x="543" y="128" on="0"/>
        <pt x="539" y="170" on="1"/>
        <pt x="534" y="170" on="1"/>
        <pt x="521" y="128" on="0"/>
        <pt x="465" y="80" on="0"/>
        <pt x="417" y="80" on="1"/>
        <pt x="383" y="80" on="0"/>
        <pt x="325" y="107" on="0"/>
        <pt x="282" y="159" on="0"/>
        <pt x="257" y="238" on="0"/>
        <pt x="257" y="290" on="1"/>
        <pt x="257" y="342" on="0"/>
        <pt x="282" y="422" on="0"/>
        <pt x="325" y="474" on="0"/>
        <pt x="383" y="501" on="0"/>
        <pt x="417" y="501" on="1"/>
        <pt x="459" y="501" on="0"/>
        <pt x="512" y="456" on="0"/>
        <pt x="523" y="424" on="1"/>
        <pt x="528" y="424" on="1"/>
        <pt x="528" y="492" on="1"/>
        <pt x="626" y="492" on="1"/>
        <pt x="626" y="213" on="1"/>
        <pt x="626" y="184" on="0"/>
        <pt x="650" y="158" on="0"/>
        <pt x="673" y="158" on="1"/>
        <pt x="711" y="158" on="0"/>
        <pt x="755" y="238" on="0"/>
        <pt x="755" y="317" on="1"/>
        <pt x="755" y="350" on="1"/>
        <pt x="755" y="415" on="0"/>
        <pt x="711" y="519" on="0"/>
        <pt x="632" y="591" on="0"/>
        <pt x="524" y="630" on="0"/>
        <pt x="460" y="630" on="1"/>
        <pt x="389" y="630" on="0"/>
        <pt x="274" y="582" on="0"/>
        <pt x="192" y="498" on="0"/>
        <pt x="148" y="382" on="0"/>
        <pt x="148" y="313" on="1"/>
        <pt x="148" y="269" on="1"/>
        <pt x="148" y="200" on="0"/>
        <pt x="192" y="86" on="0"/>
        <pt x="273" y="4" on="0"/>
        <pt x="387" y="-41" on="0"/>
        <pt x="458" y="-41" on="1"/>
        <pt x="674" y="-41" on="1"/>
      </contour>
      <contour>
        <pt x="450" y="163" on="1"/>
        <pt x="483" y="163" on="0"/>
        <pt x="528" y="206" on="0"/>
        <pt x="528" y="235" on="1"/>
        <pt x="528" y="353" on="1"/>
        <pt x="528" y="381" on="0"/>
        <pt x="484" y="418" on="0"/>
        <pt x="450" y="418" on="1"/>
        <pt x="408" y="418" on="0"/>
        <pt x="363" y="367" on="0"/>
        <pt x="363" y="326" on="1"/>
        <pt x="363" y="255" on="1"/>
        <pt x="363" y="213" on="0"/>
        <pt x="408" y="163" on="0"/>
      </contour>
    </TTGlyph>
    <TTGlyph name="atilde" xMin="37" yMin="-12" xMax="529" yMax="744">
      <component glyphName="a" x="0" y="0" flags="0x204"/>
      <component glyphName="tilde" x="-36" y="0" flags="0x4"/>
    </TTGlyph>
    <TTGlyph name="atilde.alt01" xMin="45" yMin="-12" xMax="526" yMax="744">
      <component glyphName="a.alt01" x="0" y="0" flags="0x204"/>
      <component glyphName="tilde" x="4" y="0" flags="0x4"/>
    </TTGlyph>
    <TTGlyph name="b" xMin="74" yMin="-12" xMax="555" yMax="740">
      <contour>
        <pt x="74" y="740" on="1"/>
        <pt x="202" y="740" on="1"/>
        <pt x="202" y="436" on="1"/>
        <pt x="206" y="436" on="1"/>
        <pt x="220" y="481" on="0"/>
        <pt x="298" y="534" on="0"/>
        <pt x="350" y="534" on="1"/>
        <pt x="450" y="534" on="0"/>
        <pt x="555" y="393" on="0"/>
        <pt x="555" y="262" on="1"/>
        <pt x="555" y="130" on="0"/>
        <pt x="450" y="-12" on="0"/>
        <pt x="350" y="-12" on="1"/>
        <pt x="298" y="-12" on="0"/>
        <pt x="221" y="42" on="0"/>
        <pt x="206" y="87" on="1"/>
        <pt x="202" y="87" on="1"/>
        <pt x="202" y="0" on="1"/>
        <pt x="74" y="0" on="1"/>
      </contour>
      <contour>
        <pt x="309" y="94" on="1"/>
        <pt x="359" y="94" on="0"/>
        <pt x="421" y="160" on="0"/>
        <pt x="421" y="216" on="1"/>
        <pt x="421" y="306" on="1"/>
        <pt x="421" y="362" on="0"/>
        <pt x="359" y="429" on="0"/>
        <pt x="309" y="429" on="1"/>
        <pt x="263" y="429" on="0"/>
        <pt x="202" y="383" on="0"/>
        <pt x="202" y="345" on="1"/>
        <pt x="202" y="179" on="1"/>
        <pt x="202" y="138" on="0"/>
        <pt x="263" y="94" on="0"/>
      </contour>
    </TTGlyph>
    <TTGlyph name="backslash" xMin="37" yMin="-151" xMax="431" yMax="740">
      <contour>
        <pt x="324" y="-151" on="1"/>
        <pt x="37" y="740" on="1"/>
        <pt x="144" y="740" on="1"/>
        <pt x="431" y="-151" on="1"/>
      </contour>
    </TTGlyph>
    <TTGlyph name="bar" xMin="134" yMin="-138" xMax="242" yMax="760">
      <contour>
        <pt x="134" y="-138" on="1"/>
        <pt x="134" y="760" on="1"/>
        <pt x="242" y="760" on="1"/>
        <pt x="242" y="-138" on="1"/>
      </contour>
    </TTGlyph>
    <TTGlyph name="braceleft" xMin="20" yMin="-138" xMax="310" yMax="760">
      <contour>
        <pt x="209" y="-138" on="1"/>
        <pt x="168" y="-138" on="0"/>
        <pt x="117" y="-88" on="0"/>
        <pt x="117" y="-43" on="1"/>
        <pt x="117" y="171" on="1"/>
        <pt x="117" y="215" on="0"/>
        <pt x="62" y="260" on="0"/>
        <pt x="20" y="260" on="1"/>
        <pt x="20" y="363" on="1"/>
        <pt x="62" y="363" on="0"/>
        <pt x="117" y="408" on="0"/>
        <pt x="117" y="451" on="1"/>
        <pt x="117" y="665" on="1"/>
        <pt x="117" y="710" on="0"/>
        <pt x="168" y="760" on="0"/>
        <pt x="209" y="760" on="1"/>
        <pt x="310" y="760" on="1"/>
        <pt x="310" y="668" on="1"/>
        <pt x="234" y="668" on="1"/>
        <pt x="234" y="443" on="1"/>
        <pt x="234" y="419" on="0"/>
        <pt x="218" y="376" on="0"/>
        <pt x="190" y="342" on="0"/>
        <pt x="153" y="319" on="0"/>
        <pt x="132" y="315" on="1"/>
        <pt x="132" y="307" on="1"/>
        <pt x="153" y="303" on="0"/>
        <pt x="190" y="280" on="0"/>
        <pt x="218" y="246" on="0"/>
        <pt x="234" y="203" on="0"/>
        <pt x="234" y="179" on="1"/>
        <pt x="234" y="-46" on="1"/>
        <pt x="310" y="-46" on="1"/>
        <pt x="310" y="-138" on="1"/>
      </contour>
    </TTGlyph>
    <TTGlyph name="braceright" xMin="53" yMin="-138" xMax="343" yMax="760">
      <contour>
        <pt x="155" y="760" on="1"/>
        <pt x="195" y="760" on="0"/>
        <pt x="247" y="710" on="0"/>
        <pt x="247" y="665" on="1"/>
        <pt x="247" y="451" on="1"/>
        <pt x="247" y="408" on="0"/>
        <pt x="301" y="363" on="0"/>
        <pt x="343" y="363" on="1"/>
        <pt x="343" y="260" on="1"/>
        <pt x="301" y="260" on="0"/>
        <pt x="247" y="215" on="0"/>
        <pt x="247" y="171" on="1"/>
        <pt x="247" y="-43" on="1"/>
        <pt x="247" y="-88" on="0"/>
        <pt x="195" y="-138" on="0"/>
        <pt x="155" y="-138" on="1"/>
        <pt x="53" y="-138" on="1"/>
        <pt x="53" y="-46" on="1"/>
        <pt x="130" y="-46" on="1"/>
        <pt x="130" y="180" on="1"/>
        <pt x="130" y="204" on="0"/>
        <pt x="146" y="247" on="0"/>
        <pt x="173" y="281" on="0"/>
        <pt x="210" y="304" on="0"/>
        <pt x="231" y="308" on="1"/>
        <pt x="231" y="315" on="1"/>
        <pt x="210" y="319" on="0"/>
        <pt x="173" y="342" on="0"/>
        <pt x="146" y="376" on="0"/>
        <pt x="130" y="419" on="0"/>
        <pt x="130" y="443" on="1"/>
        <pt x="130" y="668" on="1"/>
        <pt x="53" y="668" on="1"/>
        <pt x="53" y="760" on="1"/>
      </contour>
    </TTGlyph>
    <TTGlyph name="bracketleft" xMin="82" yMin="-138" xMax="276" yMax="760">
      <contour>
        <pt x="82" y="-138" on="1"/>
        <pt x="82" y="760" on="1"/>
        <pt x="276" y="760" on="1"/>
        <pt x="276" y="668" on="1"/>
        <pt x="199" y="668" on="1"/>
        <pt x="199" y="-46" on="1"/>
        <pt x="276" y="-46" on="1"/>
        <pt x="276" y="-138" on="1"/>
      </contour>
    </TTGlyph>
    <TTGlyph name="bracketright" xMin="53" yMin="-138" xMax="247" yMax="760">
      <contour>
        <pt x="247" y="760" on="1"/>
        <pt x="247" y="-138" on="1"/>
        <pt x="53" y="-138" on="1"/>
        <pt x="53" y="-46" on="1"/>
        <pt x="130" y="-46" on="1"/>
        <pt x="130" y="668" on="1"/>
        <pt x="53" y="668" on="1"/>
        <pt x="53" y="760" on="1"/>
      </contour>
    </TTGlyph>
    <TTGlyph name="breve" xMin="121" yMin="584" xMax="479" yMax="777">
      <contour>
        <pt x="300" y="584" on="1"/>
        <pt x="257" y="584" on="0"/>
        <pt x="197" y="614" on="0"/>
        <pt x="155" y="661" on="0"/>
        <pt x="130" y="716" on="0"/>
        <pt x="121" y="741" on="1"/>
        <pt x="192" y="777" on="1"/>
        <pt x="212" y="744" on="1"/>
        <pt x="232" y="712" on="0"/>
        <pt x="270" y="675" on="0"/>
        <pt x="300" y="675" on="1"/>
        <pt x="330" y="675" on="0"/>
        <pt x="369" y="712" on="0"/>
        <pt x="389" y="744" on="1"/>
        <pt x="409" y="777" on="1"/>
        <pt x="479" y="741" on="1"/>
        <pt x="470" y="716" on="0"/>
        <pt x="443" y="661" on="0"/>
        <pt x="401" y="614" on="0"/>
        <pt x="342" y="584" on="0"/>
      </contour>
    </TTGlyph>
    <TTGlyph name="breve.case" xMin="121" yMin="748" xMax="479" yMax="940">
      <contour>
        <pt x="300" y="748" on="1"/>
        <pt x="257" y="748" on="0"/>
        <pt x="196" y="778" on="0"/>
        <pt x="155" y="824" on="0"/>
        <pt x="129" y="879" on="0"/>
        <pt x="121" y="904" on="1"/>
        <pt x="192" y="940" on="1"/>
        <pt x="211" y="908" on="1"/>
        <pt x="231" y="876" on="0"/>
        <pt x="269" y="839" on="0"/>
        <pt x="300" y="839" on="1"/>
        <pt x="331" y="839" on="0"/>
        <pt x="370" y="876" on="0"/>
        <pt x="390" y="908" on="1"/>
        <pt x="409" y="940" on="1"/>
        <pt x="479" y="904" on="1"/>
        <pt x="471" y="879" on="0"/>
        <pt x="444" y="824" on="0"/>
        <pt x="402" y="778" on="0"/>
        <pt x="342" y="748" on="0"/>
      </contour>
    </TTGlyph>
    <TTGlyph name="brokenbar" xMin="134" yMin="-138" xMax="242" yMax="760">
      <contour>
        <pt x="134" y="402" on="1"/>
        <pt x="134" y="760" on="1"/>
        <pt x="242" y="760" on="1"/>
        <pt x="242" y="402" on="1"/>
      </contour>
      <contour>
        <pt x="134" y="-138" on="1"/>
        <pt x="134" y="220" on="1"/>
        <pt x="242" y="220" on="1"/>
        <pt x="242" y="-138" on="1"/>
      </contour>
    </TTGlyph>
    <TTGlyph name="bullet" xMin="66" yMin="161" xMax="354" yMax="440">
      <contour>
        <pt x="210" y="161" on="1"/>
        <pt x="171" y="161" on="0"/>
        <pt x="116" y="179" on="0"/>
        <pt x="81" y="212" on="0"/>
        <pt x="66" y="257" on="0"/>
        <pt x="66" y="284" on="1"/>
        <pt x="66" y="317" on="1"/>
        <pt x="66" y="344" on="0"/>
        <pt x="81" y="389" on="0"/>
        <pt x="116" y="422" on="0"/>
        <pt x="171" y="440" on="0"/>
        <pt x="210" y="440" on="1"/>
        <pt x="249" y="440" on="0"/>
        <pt x="304" y="422" on="0"/>
        <pt x="338" y="389" on="0"/>
        <pt x="354" y="344" on="0"/>
        <pt x="354" y="317" on="1"/>
        <pt x="354" y="284" on="1"/>
        <pt x="354" y="257" on="0"/>
        <pt x="338" y="212" on="0"/>
        <pt x="304" y="179" on="0"/>
        <pt x="249" y="161" on="0"/>
      </contour>
    </TTGlyph>
    <TTGlyph name="c" xMin="39" yMin="-12" xMax="488" yMax="534">
      <contour>
        <pt x="280" y="-12" on="1"/>
        <pt x="222" y="-12" on="0"/>
        <pt x="132" y="26" on="0"/>
        <pt x="71" y="98" on="0"/>
        <pt x="39" y="199" on="0"/>
        <pt x="39" y="262" on="1"/>
        <pt x="39" y="325" on="0"/>
        <pt x="71" y="425" on="0"/>
        <pt x="132" y="496" on="0"/>
        <pt x="222" y="534" on="0"/>
        <pt x="280" y="534" on="1"/>
        <pt x="359" y="534" on="0"/>
        <pt x="462" y="464" on="0"/>
        <pt x="485" y="402" on="1"/>
        <pt x="380" y="355" on="1"/>
        <pt x="371" y="388" on="0"/>
        <pt x="322" y="431" on="0"/>
        <pt x="280" y="431" on="1"/>
        <pt x="226" y="431" on="0"/>
        <pt x="173" y="363" on="0"/>
        <pt x="173" y="308" on="1"/>
        <pt x="173" y="213" on="1"/>
        <pt x="173" y="158" on="0"/>
        <pt x="226" y="91" on="0"/>
        <pt x="280" y="91" on="1"/>
        <pt x="326" y="91" on="0"/>
        <pt x="376" y="138" on="0"/>
        <pt x="390" y="173" on="1"/>
        <pt x="488" y="126" on="1"/>
        <pt x="462" y="57" on="0"/>
        <pt x="356" y="-12" on="0"/>
      </contour>
    </TTGlyph>
    <TTGlyph name="caron" xMin="116" yMin="591" xMax="484" yMax="795">
      <contour>
        <pt x="242" y="591" on="1"/>
        <pt x="116" y="745" on="1"/>
        <pt x="180" y="795" on="1"/>
        <pt x="300" y="679" on="1"/>
        <pt x="420" y="795" on="1"/>
        <pt x="484" y="745" on="1"/>
        <pt x="358" y="591" on="1"/>
      </contour>
    </TTGlyph>
    <TTGlyph name="caron.case" xMin="116" yMin="754" xMax="484" yMax="959">
      <contour>
        <pt x="242" y="754" on="1"/>
        <pt x="116" y="908" on="1"/>
        <pt x="180" y="959" on="1"/>
        <pt x="300" y="843" on="1"/>
        <pt x="420" y="959" on="1"/>
        <pt x="484" y="908" on="1"/>
        <pt x="358" y="754" on="1"/>
      </contour>
    </TTGlyph>
    <TTGlyph name="ccedilla" xMin="39" yMin="-211" xMax="488" yMax="534">
      <contour>
        <pt x="280" y="534" on="1"/>
        <pt x="359" y="534" on="0"/>
        <pt x="462" y="464" on="0"/>
        <pt x="485" y="402" on="1"/>
        <pt x="380" y="355" on="1"/>
        <pt x="371" y="388" on="0"/>
        <pt x="322" y="431" on="0"/>
        <pt x="280" y="431" on="1"/>
        <pt x="226" y="431" on="0"/>
        <pt x="173" y="363" on="0"/>
        <pt x="173" y="308" on="1"/>
        <pt x="173" y="213" on="1"/>
        <pt x="173" y="158" on="0"/>
        <pt x="226" y="91" on="0"/>
        <pt x="280" y="91" on="1"/>
        <pt x="326" y="91" on="0"/>
        <pt x="376" y="138" on="0"/>
        <pt x="390" y="173" on="1"/>
        <pt x="488" y="126" on="1"/>
        <pt x="464" y="60" on="0"/>
        <pt x="364" y="-9" on="0"/>
        <pt x="293" y="-12" on="1"/>
        <pt x="284" y="-57" on="1"/>
        <pt x="288" y="-60" on="1"/>
        <pt x="310" y="-54" on="0"/>
        <pt x="333" y="-54" on="1"/>
        <pt x="363" y="-54" on="0"/>
        <pt x="405" y="-87" on="0"/>
        <pt x="405" y="-122" on="1"/>
        <pt x="405" y="-146" on="0"/>
        <pt x="384" y="-180" on="0"/>
        <pt x="349" y="-201" on="0"/>
        <pt x="303" y="-211" on="0"/>
        <pt x="279" y="-211" on="1"/>
        <pt x="230" y="-211" on="0"/>
        <pt x="174" y="-182" on="0"/>
        <pt x="162" y="-167" on="1"/>
        <pt x="206" y="-116" on="1"/>
        <pt x="216" y="-128" on="0"/>
        <pt x="247" y="-145" on="0"/>
        <pt x="270" y="-145" on="1"/>
        <pt x="289" y="-145" on="0"/>
        <pt x="314" y="-132" on="0"/>
        <pt x="314" y="-118" on="1"/>
        <pt x="314" y="-112" on="0"/>
        <pt x="308" y="-100" on="0"/>
        <pt x="292" y="-89" on="0"/>
        <pt x="264" y="-80" on="0"/>
        <pt x="241" y="-77" on="1"/>
        <pt x="218" y="-75" on="1"/>
        <pt x="232" y="-8" on="1"/>
        <pt x="138" y="7" on="0"/>
        <pt x="39" y="150" on="0"/>
        <pt x="39" y="262" on="1"/>
        <pt x="39" y="325" on="0"/>
        <pt x="71" y="425" on="0"/>
        <pt x="132" y="496" on="0"/>
        <pt x="222" y="534" on="0"/>
      </contour>
    </TTGlyph>
    <TTGlyph name="cedilla" xMin="197" yMin="-211" xMax="439" yMax="27">
      <contour>
        <pt x="313" y="-211" on="1"/>
        <pt x="265" y="-211" on="0"/>
        <pt x="209" y="-182" on="0"/>
        <pt x="197" y="-167" on="1"/>
        <pt x="240" y="-116" on="1"/>
        <pt x="250" y="-128" on="0"/>
        <pt x="282" y="-145" on="0"/>
        <pt x="305" y="-145" on="1"/>
        <pt x="324" y="-145" on="0"/>
        <pt x="349" y="-132" on="0"/>
        <pt x="349" y="-118" on="1"/>
        <pt x="349" y="-106" on="0"/>
        <pt x="321" y="-82" on="0"/>
        <pt x="276" y="-77" on="1"/>
        <pt x="253" y="-75" on="1"/>
        <pt x="274" y="27" on="1"/>
        <pt x="336" y="27" on="1"/>
        <pt x="319" y="-57" on="1"/>
        <pt x="322" y="-60" on="1"/>
        <pt x="344" y="-54" on="0"/>
        <pt x="368" y="-54" on="1"/>
        <pt x="397" y="-54" on="0"/>
        <pt x="439" y="-87" on="0"/>
        <pt x="439" y="-122" on="1"/>
        <pt x="439" y="-146" on="0"/>
        <pt x="418" y="-180" on="0"/>
        <pt x="383" y="-201" on="0"/>
        <pt x="338" y="-211" on="0"/>
      </contour>
    </TTGlyph>
    <TTGlyph name="cent" xMin="43" yMin="-114" xMax="504" yMax="630">
      <contour>
        <pt x="236" y="-114" on="1"/>
        <pt x="236" y="-8" on="1"/>
        <pt x="144" y="9" on="0"/>
        <pt x="43" y="148" on="0"/>
        <pt x="43" y="258" on="1"/>
        <pt x="43" y="368" on="0"/>
        <pt x="145" y="507" on="0"/>
        <pt x="236" y="524" on="1"/>
        <pt x="236" y="630" on="1"/>
        <pt x="335" y="630" on="1"/>
        <pt x="335" y="525" on="1"/>
        <pt x="396" y="517" on="0"/>
        <pt x="475" y="452" on="0"/>
        <pt x="496" y="404" on="1"/>
        <pt x="403" y="353" on="1"/>
        <pt x="392" y="379" on="0"/>
        <pt x="355" y="416" on="0"/>
        <pt x="328" y="424" on="1"/>
        <pt x="328" y="91" on="1"/>
        <pt x="357" y="99" on="0"/>
        <pt x="399" y="138" on="0"/>
        <pt x="413" y="166" on="1"/>
        <pt x="504" y="113" on="1"/>
        <pt x="481" y="64" on="0"/>
        <pt x="398" y="-1" on="0"/>
        <pt x="335" y="-9" on="1"/>
        <pt x="335" y="-114" on="1"/>
      </contour>
      <contour>
        <pt x="168" y="215" on="1"/>
        <pt x="168" y="170" on="0"/>
        <pt x="206" y="106" on="0"/>
        <pt x="244" y="93" on="1"/>
        <pt x="244" y="423" on="1"/>
        <pt x="206" y="411" on="0"/>
        <pt x="168" y="346" on="0"/>
        <pt x="168" y="301" on="1"/>
      </contour>
    </TTGlyph>
    <TTGlyph name="circumflex" xMin="116" yMin="582" xMax="484" yMax="786">
      <contour>
        <pt x="358" y="786" on="1"/>
        <pt x="484" y="632" on="1"/>
        <pt x="420" y="582" on="1"/>
        <pt x="300" y="697" on="1"/>
        <pt x="180" y="582" on="1"/>
        <pt x="116" y="632" on="1"/>
        <pt x="242" y="786" on="1"/>
      </contour>
    </TTGlyph>
    <TTGlyph name="circumflex.case" xMin="116" yMin="745" xMax="484" yMax="950">
      <contour>
        <pt x="358" y="950" on="1"/>
        <pt x="484" y="796" on="1"/>
        <pt x="420" y="745" on="1"/>
        <pt x="300" y="861" on="1"/>
        <pt x="180" y="745" on="1"/>
        <pt x="116" y="796" on="1"/>
        <pt x="242" y="950" on="1"/>
      </contour>
    </TTGlyph>
    <TTGlyph name="colon" xMin="79" yMin="-11" xMax="239" yMax="533">
      <component glyphName="period" x="10" y="0" flags="0x4"/>
      <component glyphName="period" x="10" y="379" flags="0x4"/>
    </TTGlyph>
    <TTGlyph name="comma" xMin="38" yMin="-143" xMax="231" yMax="154">
      <contour>
        <pt x="151" y="154" on="1"/>
        <pt x="192" y="154" on="0"/>
        <pt x="231" y="112" on="0"/>
        <pt x="231" y="80" on="1"/>
        <pt x="231" y="62" on="1"/>
        <pt x="231" y="35" on="0"/>
        <pt x="216" y="-23" on="0"/>
        <pt x="189" y="-77" on="0"/>
        <pt x="152" y="-125" on="0"/>
        <pt x="129" y="-143" on="1"/>
        <pt x="38" y="-143" on="1"/>
        <pt x="72" y="-110" on="0"/>
        <pt x="118" y="-47" on="0"/>
        <pt x="130" y="-9" on="1"/>
        <pt x="99" y="-4" on="0"/>
        <pt x="71" y="35" on="0"/>
        <pt x="71" y="62" on="1"/>
        <pt x="71" y="80" on="1"/>
        <pt x="71" y="112" on="0"/>
        <pt x="109" y="154" on="0"/>
      </contour>
    </TTGlyph>
    <TTGlyph name="copyright" xMin="50" yMin="-12" xMax="738" yMax="710">
      <contour>
        <pt x="394" y="-12" on="1"/>
        <pt x="319" y="-12" on="0"/>
        <pt x="193" y="38" on="0"/>
        <pt x="102" y="132" on="0"/>
        <pt x="50" y="265" on="0"/>
        <pt x="50" y="349" on="1"/>
        <pt x="50" y="433" on="0"/>
        <pt x="102" y="566" on="0"/>
        <pt x="193" y="660" on="0"/>
        <pt x="319" y="710" on="0"/>
        <pt x="394" y="710" on="1"/>
        <pt x="468" y="710" on="0"/>
        <pt x="594" y="660" on="0"/>
        <pt x="686" y="566" on="0"/>
        <pt x="738" y="433" on="0"/>
        <pt x="738" y="349" on="1"/>
        <pt x="738" y="265" on="0"/>
        <pt x="686" y="132" on="0"/>
        <pt x="594" y="38" on="0"/>
        <pt x="468" y="-12" on="0"/>
      </contour>
      <contour>
        <pt x="394" y="51" on="1"/>
        <pt x="453" y="51" on="0"/>
        <pt x="553" y="92" on="0"/>
        <pt x="625" y="163" on="0"/>
        <pt x="665" y="260" on="0"/>
        <pt x="665" y="316" on="1"/>
        <pt x="665" y="382" on="1"/>
        <pt x="665" y="438" on="0"/>
        <pt x="625" y="535" on="0"/>
        <pt x="553" y="606" on="0"/>
        <pt x="453" y="647" on="0"/>
        <pt x="394" y="647" on="1"/>
        <pt x="335" y="647" on="0"/>
        <pt x="235" y="606" on="0"/>
        <pt x="163" y="535" on="0"/>
        <pt x="122" y="438" on="0"/>
        <pt x="122" y="382" on="1"/>
        <pt x="122" y="316" on="1"/>
        <pt x="122" y="260" on="0"/>
        <pt x="163" y="163" on="0"/>
        <pt x="235" y="92" on="0"/>
        <pt x="335" y="51" on="0"/>
      </contour>
      <contour>
        <pt x="401" y="140" on="1"/>
        <pt x="355" y="140" on="0"/>
        <pt x="283" y="170" on="0"/>
        <pt x="233" y="225" on="0"/>
        <pt x="206" y="302" on="0"/>
        <pt x="206" y="349" on="1"/>
        <pt x="206" y="396" on="0"/>
        <pt x="233" y="473" on="0"/>
        <pt x="283" y="528" on="0"/>
        <pt x="355" y="558" on="0"/>
        <pt x="401" y="558" on="1"/>
        <pt x="467" y="558" on="0"/>
        <pt x="548" y="500" on="0"/>
        <pt x="568" y="452" on="1"/>
        <pt x="480" y="409" on="1"/>
        <pt x="469" y="435" on="0"/>
        <pt x="433" y="467" on="0"/>
        <pt x="401" y="467" on="1"/>
        <pt x="365" y="467" on="0"/>
        <pt x="325" y="423" on="0"/>
        <pt x="325" y="387" on="1"/>
        <pt x="325" y="311" on="1"/>
        <pt x="325" y="275" on="0"/>
        <pt x="365" y="231" on="0"/>
        <pt x="401" y="231" on="1"/>
        <pt x="433" y="231" on="0"/>
        <pt x="474" y="264" on="0"/>
        <pt x="488" y="290" on="1"/>
        <pt x="575" y="247" on="1"/>
        <pt x="555" y="202" on="0"/>
        <pt x="473" y="140" on="0"/>
      </contour>
    </TTGlyph>
    <TTGlyph name="currency" xMin="12" yMin="50" xMax="612" yMax="648">
      <contour>
        <pt x="312" y="111" on="1"/>
        <pt x="232" y="111" on="0"/>
        <pt x="178" y="145" on="1"/>
        <pt x="84" y="50" on="1"/>
        <pt x="12" y="120" on="1"/>
        <pt x="108" y="216" on="1"/>
        <pt x="76" y="271" on="0"/>
        <pt x="76" y="349" on="1"/>
        <pt x="76" y="427" on="0"/>
        <pt x="108" y="482" on="1"/>
        <pt x="12" y="578" on="1"/>
        <pt x="84" y="648" on="1"/>
        <pt x="178" y="553" on="1"/>
        <pt x="232" y="587" on="0"/>
        <pt x="312" y="587" on="1"/>
        <pt x="392" y="587" on="0"/>
        <pt x="446" y="553" on="1"/>
        <pt x="540" y="648" on="1"/>
        <pt x="612" y="578" on="1"/>
        <pt x="516" y="482" on="1"/>
        <pt x="548" y="427" on="0"/>
        <pt x="548" y="349" on="1"/>
        <pt x="548" y="271" on="0"/>
        <pt x="516" y="216" on="1"/>
        <pt x="612" y="120" on="1"/>
        <pt x="540" y="50" on="1"/>
        <pt x="446" y="145" on="1"/>
        <pt x="392" y="111" on="0"/>
      </contour>
      <contour>
        <pt x="312" y="206" on="1"/>
        <pt x="362" y="206" on="0"/>
        <pt x="419" y="264" on="0"/>
        <pt x="419" y="320" on="1"/>
        <pt x="419" y="378" on="1"/>
        <pt x="419" y="434" on="0"/>
        <pt x="362" y="492" on="0"/>
        <pt x="312" y="492" on="1"/>
        <pt x="262" y="492" on="0"/>
        <pt x="205" y="434" on="0"/>
        <pt x="205" y="378" on="1"/>
        <pt x="205" y="320" on="1"/>
        <pt x="205" y="264" on="0"/>
        <pt x="262" y="206" on="0"/>
      </contour>
    </TTGlyph>
    <TTGlyph name="d" xMin="45" yMin="-12" xMax="526" yMax="740">
      <contour>
        <pt x="398" y="87" on="1"/>
        <pt x="393" y="87" on="1"/>
        <pt x="379" y="42" on="0"/>
        <pt x="301" y="-12" on="0"/>
        <pt x="249" y="-12" on="1"/>
        <pt x="150" y="-12" on="0"/>
        <pt x="45" y="130" on="0"/>
        <pt x="45" y="262" on="1"/>
        <pt x="45" y="393" on="0"/>
        <pt x="150" y="534" on="0"/>
        <pt x="249" y="534" on="1"/>
        <pt x="301" y="534" on="0"/>
        <pt x="379" y="481" on="0"/>
        <pt x="393" y="436" on="1"/>
        <pt x="398" y="436" on="1"/>
        <pt x="398" y="740" on="1"/>
        <pt x="526" y="740" on="1"/>
        <pt x="526" y="0" on="1"/>
        <pt x="398" y="0" on="1"/>
      </contour>
      <contour>
        <pt x="290" y="94" on="1"/>
        <pt x="336" y="94" on="0"/>
        <pt x="398" y="138" on="0"/>
        <pt x="398" y="179" on="1"/>
        <pt x="398" y="345" on="1"/>
        <pt x="398" y="383" on="0"/>
        <pt x="336" y="429" on="0"/>
        <pt x="290" y="429" on="1"/>
        <pt x="240" y="429" on="0"/>
        <pt x="179" y="362" on="0"/>
        <pt x="179" y="306" on="1"/>
        <pt x="179" y="216" on="1"/>
        <pt x="179" y="160" on="0"/>
        <pt x="240" y="94" on="0"/>
      </contour>
    </TTGlyph>
    <TTGlyph name="dagger" xMin="33" yMin="-200" xMax="498" yMax="740">
      <contour>
        <pt x="211" y="-200" on="1"/>
        <pt x="211" y="421" on="1"/>
        <pt x="33" y="421" on="1"/>
        <pt x="33" y="516" on="1"/>
        <pt x="211" y="516" on="1"/>
        <pt x="211" y="740" on="1"/>
        <pt x="320" y="740" on="1"/>
        <pt x="320" y="516" on="1"/>
        <pt x="498" y="516" on="1"/>
        <pt x="498" y="421" on="1"/>
        <pt x="320" y="421" on="1"/>
        <pt x="320" y="-200" on="1"/>
      </contour>
    </TTGlyph>
    <TTGlyph name="daggerdbl" xMin="40" yMin="-200" xMax="505" yMax="740">
      <contour>
        <pt x="218" y="-200" on="1"/>
        <pt x="218" y="24" on="1"/>
        <pt x="40" y="24" on="1"/>
        <pt x="40" y="119" on="1"/>
        <pt x="218" y="119" on="1"/>
        <pt x="218" y="421" on="1"/>
        <pt x="40" y="421" on="1"/>
        <pt x="40" y="516" on="1"/>
        <pt x="218" y="516" on="1"/>
        <pt x="218" y="740" on="1"/>
        <pt x="327" y="740" on="1"/>
        <pt x="327" y="516" on="1"/>
        <pt x="505" y="516" on="1"/>
        <pt x="505" y="421" on="1"/>
        <pt x="327" y="421" on="1"/>
        <pt x="327" y="119" on="1"/>
        <pt x="505" y="119" on="1"/>
        <pt x="505" y="24" on="1"/>
        <pt x="327" y="24" on="1"/>
        <pt x="327" y="-200" on="1"/>
      </contour>
    </TTGlyph>
    <TTGlyph name="degree" xMin="55" yMin="343" xMax="415" yMax="710">
      <contour>
        <pt x="235" y="343" on="1"/>
        <pt x="197" y="343" on="0"/>
        <pt x="131" y="371" on="0"/>
        <pt x="83" y="420" on="0"/>
        <pt x="55" y="488" on="0"/>
        <pt x="55" y="527" on="1"/>
        <pt x="55" y="566" on="0"/>
        <pt x="83" y="633" on="0"/>
        <pt x="131" y="682" on="0"/>
        <pt x="197" y="710" on="0"/>
        <pt x="235" y="710" on="1"/>
        <pt x="273" y="710" on="0"/>
        <pt x="339" y="682" on="0"/>
        <pt x="387" y="633" on="0"/>
        <pt x="415" y="566" on="0"/>
        <pt x="415" y="527" on="1"/>
        <pt x="415" y="488" on="0"/>
        <pt x="387" y="420" on="0"/>
        <pt x="339" y="371" on="0"/>
        <pt x="273" y="343" on="0"/>
      </contour>
      <contour>
        <pt x="235" y="429" on="1"/>
        <pt x="275" y="429" on="0"/>
        <pt x="323" y="485" on="0"/>
        <pt x="323" y="527" on="1"/>
        <pt x="323" y="569" on="0"/>
        <pt x="275" y="624" on="0"/>
        <pt x="235" y="624" on="1"/>
        <pt x="194" y="624" on="0"/>
        <pt x="147" y="569" on="0"/>
        <pt x="147" y="527" on="1"/>
        <pt x="147" y="485" on="0"/>
        <pt x="194" y="429" on="0"/>
      </contour>
    </TTGlyph>
    <TTGlyph name="dieresis" xMin="124" yMin="605" xMax="476" yMax="742">
      <contour>
        <pt x="195" y="605" on="1"/>
        <pt x="156" y="605" on="0"/>
        <pt x="124" y="638" on="0"/>
        <pt x="124" y="663" on="1"/>
        <pt x="124" y="684" on="1"/>
        <pt x="124" y="709" on="0"/>
        <pt x="156" y="742" on="0"/>
        <pt x="195" y="742" on="1"/>
        <pt x="234" y="742" on="0"/>
        <pt x="266" y="709" on="0"/>
        <pt x="266" y="684" on="1"/>
        <pt x="266" y="663" on="1"/>
        <pt x="266" y="638" on="0"/>
        <pt x="234" y="605" on="0"/>
      </contour>
      <contour>
        <pt x="405" y="605" on="1"/>
        <pt x="366" y="605" on="0"/>
        <pt x="334" y="638" on="0"/>
        <pt x="334" y="663" on="1"/>
        <pt x="334" y="684" on="1"/>
        <pt x="334" y="709" on="0"/>
        <pt x="366" y="742" on="0"/>
        <pt x="405" y="742" on="1"/>
        <pt x="444" y="742" on="0"/>
        <pt x="476" y="709" on="0"/>
        <pt x="476" y="684" on="1"/>
        <pt x="476" y="663" on="1"/>
        <pt x="476" y="638" on="0"/>
        <pt x="444" y="605" on="0"/>
      </contour>
    </TTGlyph>
    <TTGlyph name="dieresis.case" xMin="124" yMin="769" xMax="476" yMax="907">
      <contour>
        <pt x="195" y="769" on="1"/>
        <pt x="156" y="769" on="0"/>
        <pt x="124" y="802" on="0"/>
        <pt x="124" y="827" on="1"/>
        <pt x="124" y="848" on="1"/>
        <pt x="124" y="873" on="0"/>
        <pt x="156" y="907" on="0"/>
        <pt x="195" y="907" on="1"/>
        <pt x="234" y="907" on="0"/>
        <pt x="266" y="873" on="0"/>
        <pt x="266" y="848" on="1"/>
        <pt x="266" y="827" on="1"/>
        <pt x="266" y="802" on="0"/>
        <pt x="234" y="769" on="0"/>
      </contour>
      <contour>
        <pt x="405" y="769" on="1"/>
        <pt x="366" y="769" on="0"/>
        <pt x="334" y="802" on="0"/>
        <pt x="334" y="827" on="1"/>
        <pt x="334" y="848" on="1"/>
        <pt x="334" y="873" on="0"/>
        <pt x="366" y="907" on="0"/>
        <pt x="405" y="907" on="1"/>
        <pt x="444" y="907" on="0"/>
        <pt x="476" y="873" on="0"/>
        <pt x="476" y="848" on="1"/>
        <pt x="476" y="827" on="1"/>
        <pt x="476" y="802" on="0"/>
        <pt x="444" y="769" on="0"/>
      </contour>
    </TTGlyph>
    <TTGlyph name="divide" xMin="67" yMin="35" xMax="533" yMax="575">
      <contour>
        <pt x="67" y="254" on="1"/>
        <pt x="67" y="357" on="1"/>
        <pt x="533" y="357" on="1"/>
        <pt x="533" y="254" on="1"/>
      </contour>
      <contour>
        <pt x="300" y="35" on="1"/>
        <pt x="257" y="35" on="0"/>
        <pt x="220" y="72" on="0"/>
        <pt x="220" y="98" on="1"/>
        <pt x="220" y="121" on="1"/>
        <pt x="220" y="147" on="0"/>
        <pt x="257" y="184" on="0"/>
        <pt x="300" y="184" on="1"/>
        <pt x="343" y="184" on="0"/>
        <pt x="380" y="147" on="0"/>
        <pt x="380" y="121" on="1"/>
        <pt x="380" y="98" on="1"/>
        <pt x="380" y="72" on="0"/>
        <pt x="343" y="35" on="0"/>
      </contour>
      <contour>
        <pt x="300" y="426" on="1"/>
        <pt x="257" y="426" on="0"/>
        <pt x="220" y="463" on="0"/>
        <pt x="220" y="489" on="1"/>
        <pt x="220" y="512" on="1"/>
        <pt x="220" y="538" on="0"/>
        <pt x="257" y="575" on="0"/>
        <pt x="300" y="575" on="1"/>
        <pt x="343" y="575" on="0"/>
        <pt x="380" y="538" on="0"/>
        <pt x="380" y="512" on="1"/>
        <pt x="380" y="489" on="1"/>
        <pt x="380" y="463" on="0"/>
        <pt x="343" y="426" on="0"/>
      </contour>
    </TTGlyph>
    <TTGlyph name="dollar" xMin="38" yMin="-82" xMax="553" yMax="780">
      <contour>
        <pt x="256" y="-82" on="1"/>
        <pt x="256" y="7" on="1"/>
        <pt x="180" y="13" on="0"/>
        <pt x="76" y="72" on="0"/>
        <pt x="38" y="116" on="1"/>
        <pt x="119" y="190" on="1"/>
        <pt x="148" y="156" on="0"/>
        <pt x="220" y="113" on="0"/>
        <pt x="265" y="107" on="1"/>
        <pt x="265" y="310" on="1"/>
        <pt x="155" y="333" on="0"/>
        <pt x="58" y="428" on="0"/>
        <pt x="58" y="502" on="1"/>
        <pt x="58" y="582" on="0"/>
        <pt x="162" y="679" on="0"/>
        <pt x="256" y="690" on="1"/>
        <pt x="256" y="780" on="1"/>
        <pt x="355" y="780" on="1"/>
        <pt x="355" y="690" on="1"/>
        <pt x="418" y="683" on="0"/>
        <pt x="509" y="635" on="0"/>
        <pt x="543" y="593" on="1"/>
        <pt x="461" y="522" on="1"/>
        <pt x="441" y="546" on="0"/>
        <pt x="386" y="582" on="0"/>
        <pt x="346" y="590" on="1"/>
        <pt x="346" y="404" on="1"/>
        <pt x="453" y="379" on="0"/>
        <pt x="553" y="290" on="0"/>
        <pt x="553" y="212" on="1"/>
        <pt x="553" y="135" on="0"/>
        <pt x="453" y="24" on="0"/>
        <pt x="355" y="10" on="1"/>
        <pt x="355" y="-82" on="1"/>
      </contour>
      <contour>
        <pt x="179" y="507" on="1"/>
        <pt x="179" y="472" on="0"/>
        <pt x="220" y="434" on="0"/>
        <pt x="265" y="422" on="1"/>
        <pt x="265" y="591" on="1"/>
        <pt x="179" y="576" on="0"/>
      </contour>
      <contour>
        <pt x="433" y="203" on="1"/>
        <pt x="433" y="233" on="0"/>
        <pt x="396" y="278" on="0"/>
        <pt x="346" y="292" on="1"/>
        <pt x="346" y="108" on="1"/>
        <pt x="388" y="117" on="0"/>
        <pt x="433" y="168" on="0"/>
      </contour>
    </TTGlyph>
    <TTGlyph name="dotaccent" xMin="222" yMin="598" xMax="378" yMax="748">
      <contour>
        <pt x="300" y="598" on="1"/>
        <pt x="257" y="598" on="0"/>
        <pt x="222" y="635" on="0"/>
        <pt x="222" y="661" on="1"/>
        <pt x="222" y="685" on="1"/>
        <pt x="222" y="712" on="0"/>
        <pt x="257" y="748" on="0"/>
        <pt x="300" y="748" on="1"/>
        <pt x="343" y="748" on="0"/>
        <pt x="378" y="712" on="0"/>
        <pt x="378" y="685" on="1"/>
        <pt x="378" y="661" on="1"/>
        <pt x="378" y="635" on="0"/>
        <pt x="343" y="598" on="0"/>
      </contour>
    </TTGlyph>
    <TTGlyph name="dotaccent.case" xMin="221" yMin="760" xMax="379" yMax="915">
      <contour>
        <pt x="300" y="760" on="1"/>
        <pt x="256" y="760" on="0"/>
        <pt x="221" y="797" on="0"/>
        <pt x="221" y="825" on="1"/>
        <pt x="221" y="850" on="1"/>
        <pt x="221" y="878" on="0"/>
        <pt x="256" y="915" on="0"/>
        <pt x="300" y="915" on="1"/>
        <pt x="344" y="915" on="0"/>
        <pt x="379" y="878" on="0"/>
        <pt x="379" y="850" on="1"/>
        <pt x="379" y="825" on="1"/>
        <pt x="379" y="797" on="0"/>
        <pt x="344" y="760" on="0"/>
      </contour>
    </TTGlyph>
    <TTGlyph name="dotlessi" xMin="74" yMin="0" xMax="202" yMax="522">
      <contour>
        <pt x="74" y="0" on="1"/>
        <pt x="74" y="522" on="1"/>
        <pt x="202" y="522" on="1"/>
        <pt x="202" y="0" on="1"/>
      </contour>
    </TTGlyph>
    <TTGlyph name="e" xMin="39" yMin="-12" xMax="519" yMax="534">
      <contour>
        <pt x="285" y="-12" on="1"/>
        <pt x="227" y="-12" on="0"/>
        <pt x="136" y="27" on="0"/>
        <pt x="73" y="98" on="0"/>
        <pt x="39" y="199" on="0"/>
        <pt x="39" y="262" on="1"/>
        <pt x="39" y="324" on="0"/>
        <pt x="72" y="424" on="0"/>
        <pt x="134" y="495" on="0"/>
        <pt x="224" y="534" on="0"/>
        <pt x="281" y="534" on="1"/>
        <pt x="342" y="534" on="0"/>
        <pt x="432" y="492" on="0"/>
        <pt x="490" y="420" on="0"/>
        <pt x="519" y="325" on="0"/>
        <pt x="519" y="271" on="1"/>
        <pt x="519" y="229" on="1"/>
        <pt x="172" y="229" on="1"/>
        <pt x="172" y="216" on="1"/>
        <pt x="172" y="159" on="0"/>
        <pt x="236" y="90" on="0"/>
        <pt x="299" y="90" on="1"/>
        <pt x="347" y="90" on="0"/>
        <pt x="408" y="130" on="0"/>
        <pt x="432" y="161" on="1"/>
        <pt x="501" y="84" on="1"/>
        <pt x="469" y="39" on="0"/>
        <pt x="358" y="-12" on="0"/>
      </contour>
      <contour>
        <pt x="283" y="438" on="1"/>
        <pt x="232" y="438" on="0"/>
        <pt x="172" y="370" on="0"/>
        <pt x="172" y="316" on="1"/>
        <pt x="172" y="308" on="1"/>
        <pt x="386" y="308" on="1"/>
        <pt x="386" y="317" on="1"/>
        <pt x="386" y="371" on="0"/>
        <pt x="333" y="438" on="0"/>
      </contour>
    </TTGlyph>
    <TTGlyph name="eacute" xMin="39" yMin="-12" xMax="519" yMax="805">
      <component glyphName="acute" x="-14" y="0" flags="0x4"/>
      <component glyphName="e" x="0" y="0" flags="0x4"/>
    </TTGlyph>
    <TTGlyph name="ecircumflex" xMin="39" yMin="-12" xMax="519" yMax="786">
      <component glyphName="circumflex" x="-14" y="0" flags="0x4"/>
      <component glyphName="e" x="0" y="0" flags="0x4"/>
    </TTGlyph>
    <TTGlyph name="edieresis" xMin="39" yMin="-12" xMax="519" yMax="742">
      <component glyphName="dieresis" x="-14" y="0" flags="0x4"/>
      <component glyphName="e" x="0" y="0" flags="0x4"/>
    </TTGlyph>
    <TTGlyph name="egrave" xMin="39" yMin="-12" xMax="519" yMax="805">
      <component glyphName="e" x="0" y="0" flags="0x204"/>
      <component glyphName="grave" x="-14" y="0" flags="0x4"/>
    </TTGlyph>
    <TTGlyph name="eight" xMin="45" yMin="-12" xMax="555" yMax="710">
      <contour>
        <pt x="300" y="-12" on="1"/>
        <pt x="239" y="-12" on="0"/>
        <pt x="144" y="19" on="0"/>
        <pt x="79" y="73" on="0"/>
        <pt x="45" y="147" on="0"/>
        <pt x="45" y="191" on="1"/>
        <pt x="45" y="259" on="0"/>
        <pt x="120" y="344" on="0"/>
        <pt x="183" y="361" on="1"/>
        <pt x="183" y="369" on="1"/>
        <pt x="131" y="388" on="0"/>
        <pt x="66" y="468" on="0"/>
        <pt x="66" y="529" on="1"/>
        <pt x="66" y="569" on="0"/>
        <pt x="97" y="635" on="0"/>
        <pt x="157" y="683" on="0"/>
        <pt x="244" y="710" on="0"/>
        <pt x="300" y="710" on="1"/>
        <pt x="356" y="710" on="0"/>
        <pt x="443" y="683" on="0"/>
        <pt x="503" y="635" on="0"/>
        <pt x="534" y="569" on="0"/>
        <pt x="534" y="529" on="1"/>
        <pt x="534" y="468" on="0"/>
        <pt x="469" y="388" on="0"/>
        <pt x="417" y="369" on="1"/>
        <pt x="417" y="361" on="1"/>
        <pt x="480" y="344" on="0"/>
        <pt x="555" y="259" on="0"/>
        <pt x="555" y="191" on="1"/>
        <pt x="555" y="147" on="0"/>
        <pt x="521" y="73" on="0"/>
        <pt x="456" y="19" on="0"/>
        <pt x="361" y="-12" on="0"/>
      </contour>
      <contour>
        <pt x="300" y="91" on="1"/>
        <pt x="357" y="91" on="0"/>
        <pt x="418" y="143" on="0"/>
        <pt x="418" y="190" on="1"/>
        <pt x="418" y="211" on="1"/>
        <pt x="418" y="258" on="0"/>
        <pt x="357" y="310" on="0"/>
        <pt x="300" y="310" on="1"/>
        <pt x="243" y="310" on="0"/>
        <pt x="182" y="258" on="0"/>
        <pt x="182" y="211" on="1"/>
        <pt x="182" y="190" on="1"/>
        <pt x="182" y="143" on="0"/>
        <pt x="243" y="91" on="0"/>
      </contour>
      <contour>
        <pt x="300" y="408" on="1"/>
        <pt x="353" y="408" on="0"/>
        <pt x="409" y="456" on="0"/>
        <pt x="409" y="500" on="1"/>
        <pt x="409" y="516" on="1"/>
        <pt x="409" y="559" on="0"/>
        <pt x="353" y="607" on="0"/>
        <pt x="300" y="607" on="1"/>
        <pt x="247" y="607" on="0"/>
        <pt x="191" y="559" on="0"/>
        <pt x="191" y="516" on="1"/>
        <pt x="191" y="500" on="1"/>
        <pt x="191" y="456" on="0"/>
        <pt x="247" y="408" on="0"/>
      </contour>
    </TTGlyph>
    <TTGlyph name="eight.loclIWR" xMin="51" yMin="-12" xMax="549" yMax="620">
      <contour>
        <pt x="300" y="-12" on="1"/>
        <pt x="240" y="-12" on="0"/>
        <pt x="147" y="15" on="0"/>
        <pt x="84" y="62" on="0"/>
        <pt x="51" y="126" on="0"/>
        <pt x="51" y="164" on="1"/>
        <pt x="51" y="224" on="0"/>
        <pt x="124" y="300" on="0"/>
        <pt x="185" y="314" on="1"/>
        <pt x="185" y="322" on="1"/>
        <pt x="133" y="339" on="0"/>
        <pt x="72" y="410" on="0"/>
        <pt x="72" y="462" on="1"/>
        <pt x="72" y="496" on="0"/>
        <pt x="102" y="554" on="0"/>
        <pt x="160" y="596" on="0"/>
        <pt x="245" y="620" on="0"/>
        <pt x="300" y="620" on="1"/>
        <pt x="355" y="620" on="0"/>
        <pt x="440" y="596" on="0"/>
        <pt x="498" y="554" on="0"/>
        <pt x="528" y="496" on="0"/>
        <pt x="528" y="462" on="1"/>
        <pt x="528" y="410" on="0"/>
        <pt x="466" y="339" on="0"/>
        <pt x="414" y="322" on="1"/>
        <pt x="414" y="314" on="1"/>
        <pt x="475" y="300" on="0"/>
        <pt x="549" y="224" on="0"/>
        <pt x="549" y="164" on="1"/>
        <pt x="549" y="126" on="0"/>
        <pt x="516" y="62" on="0"/>
        <pt x="453" y="15" on="0"/>
        <pt x="360" y="-12" on="0"/>
      </contour>
      <contour>
        <pt x="300" y="85" on="1"/>
        <pt x="355" y="85" on="0"/>
        <pt x="413" y="127" on="0"/>
        <pt x="413" y="165" on="1"/>
        <pt x="413" y="184" on="1"/>
        <pt x="413" y="222" on="0"/>
        <pt x="355" y="264" on="0"/>
        <pt x="300" y="264" on="1"/>
        <pt x="245" y="264" on="0"/>
        <pt x="187" y="222" on="0"/>
        <pt x="187" y="184" on="1"/>
        <pt x="187" y="165" on="1"/>
        <pt x="187" y="127" on="0"/>
        <pt x="245" y="85" on="0"/>
      </contour>
      <contour>
        <pt x="300" y="359" on="1"/>
        <pt x="351" y="359" on="0"/>
        <pt x="404" y="398" on="0"/>
        <pt x="404" y="434" on="1"/>
        <pt x="404" y="448" on="1"/>
        <pt x="404" y="484" on="0"/>
        <pt x="351" y="523" on="0"/>
        <pt x="300" y="523" on="1"/>
        <pt x="249" y="523" on="0"/>
        <pt x="196" y="484" on="0"/>
        <pt x="196" y="448" on="1"/>
        <pt x="196" y="434" on="1"/>
        <pt x="196" y="398" on="0"/>
        <pt x="249" y="359" on="0"/>
      </contour>
    </TTGlyph>
    <TTGlyph name="ellipsis" xMin="69" yMin="-11" xMax="799" yMax="154">
      <component glyphName="period" x="0" y="0" flags="0x4"/>
      <component glyphName="period" x="285" y="0" flags="0x4"/>
      <component glyphName="period" x="570" y="0" flags="0x4"/>
    </TTGlyph>
    <TTGlyph name="emdash" xMin="36" yMin="250" xMax="744" yMax="358">
      <contour>
        <pt x="36" y="250" on="1"/>
        <pt x="36" y="358" on="1"/>
        <pt x="744" y="358" on="1"/>
        <pt x="744" y="250" on="1"/>
      </contour>
    </TTGlyph>
    <TTGlyph name="endash" xMin="36" yMin="250" xMax="552" yMax="358">
      <contour>
        <pt x="36" y="250" on="1"/>
        <pt x="36" y="358" on="1"/>
        <pt x="552" y="358" on="1"/>
        <pt x="552" y="250" on="1"/>
      </contour>
    </TTGlyph>
    <TTGlyph name="equal" xMin="67" yMin="142" xMax="533" yMax="468">
      <contour>
        <pt x="67" y="365" on="1"/>
        <pt x="67" y="468" on="1"/>
        <pt x="533" y="468" on="1"/>
        <pt x="533" y="365" on="1"/>
      </contour>
      <contour>
        <pt x="67" y="142" on="1"/>
        <pt x="67" y="246" on="1"/>
        <pt x="533" y="246" on="1"/>
        <pt x="533" y="142" on="1"/>
      </contour>
    </TTGlyph>
    <TTGlyph name="eth" xMin="43" yMin="-12" xMax="540" yMax="753">
      <contour>
        <pt x="461" y="699" on="1"/>
        <pt x="387" y="651" on="1"/>
        <pt x="456" y="579" on="0"/>
        <pt x="540" y="391" on="0"/>
        <pt x="540" y="276" on="1"/>
        <pt x="540" y="202" on="0"/>
        <pt x="504" y="93" on="0"/>
        <pt x="439" y="22" on="0"/>
        <pt x="349" y="-12" on="0"/>
        <pt x="294" y="-12" on="1"/>
        <pt x="235" y="-12" on="0"/>
        <pt x="142" y="25" on="0"/>
        <pt x="77" y="93" on="0"/>
        <pt x="43" y="191" on="0"/>
        <pt x="43" y="251" on="1"/>
        <pt x="43" y="307" on="0"/>
        <pt x="72" y="399" on="0"/>
        <pt x="126" y="465" on="0"/>
        <pt x="203" y="501" on="0"/>
        <pt x="250" y="501" on="1"/>
        <pt x="304" y="501" on="0"/>
        <pt x="377" y="448" on="0"/>
        <pt x="398" y="403" on="1"/>
        <pt x="404" y="406" on="1"/>
        <pt x="392" y="457" on="0"/>
        <pt x="331" y="549" on="0"/>
        <pt x="288" y="591" on="1"/>
        <pt x="202" y="537" on="1"/>
        <pt x="156" y="592" on="1"/>
        <pt x="234" y="639" on="1"/>
        <pt x="199" y="668" on="0"/>
        <pt x="122" y="718" on="0"/>
        <pt x="83" y="740" on="1"/>
        <pt x="278" y="740" on="1"/>
        <pt x="292" y="732" on="0"/>
        <pt x="318" y="711" on="0"/>
        <pt x="332" y="700" on="1"/>
        <pt x="416" y="753" on="1"/>
      </contour>
      <contour>
        <pt x="292" y="86" on="1"/>
        <pt x="345" y="86" on="0"/>
        <pt x="407" y="154" on="0"/>
        <pt x="407" y="215" on="1"/>
        <pt x="407" y="273" on="1"/>
        <pt x="407" y="334" on="0"/>
        <pt x="345" y="402" on="0"/>
        <pt x="292" y="402" on="1"/>
        <pt x="238" y="402" on="0"/>
        <pt x="176" y="334" on="0"/>
        <pt x="176" y="273" on="1"/>
        <pt x="176" y="215" on="1"/>
        <pt x="176" y="154" on="0"/>
        <pt x="238" y="86" on="0"/>
      </contour>
    </TTGlyph>
    <TTGlyph name="exclam" xMin="74" yMin="-12" xMax="235" yMax="698">
      <contour>
        <pt x="128" y="210" on="1"/>
        <pt x="87" y="501" on="1"/>
        <pt x="87" y="698" on="1"/>
        <pt x="223" y="698" on="1"/>
        <pt x="223" y="501" on="1"/>
        <pt x="184" y="210" on="1"/>
      </contour>
      <contour>
        <pt x="155" y="-12" on="1"/>
        <pt x="112" y="-12" on="0"/>
        <pt x="74" y="28" on="0"/>
        <pt x="74" y="59" on="1"/>
        <pt x="74" y="79" on="1"/>
        <pt x="74" y="110" on="0"/>
        <pt x="112" y="150" on="0"/>
        <pt x="155" y="150" on="1"/>
        <pt x="197" y="150" on="0"/>
        <pt x="235" y="110" on="0"/>
        <pt x="235" y="79" on="1"/>
        <pt x="235" y="59" on="1"/>
        <pt x="235" y="28" on="0"/>
        <pt x="197" y="-12" on="0"/>
      </contour>
    </TTGlyph>
    <TTGlyph name="exclamdown" xMin="74" yMin="-176" xMax="235" yMax="534">
      <contour>
        <pt x="86" y="-176" on="1"/>
        <pt x="86" y="21" on="1"/>
        <pt x="126" y="313" on="1"/>
        <pt x="182" y="313" on="1"/>
        <pt x="222" y="21" on="1"/>
        <pt x="222" y="-176" on="1"/>
      </contour>
      <contour>
        <pt x="155" y="372" on="1"/>
        <pt x="112" y="372" on="0"/>
        <pt x="74" y="412" on="0"/>
        <pt x="74" y="443" on="1"/>
        <pt x="74" y="464" on="1"/>
        <pt x="74" y="494" on="0"/>
        <pt x="112" y="534" on="0"/>
        <pt x="155" y="534" on="1"/>
        <pt x="197" y="534" on="0"/>
        <pt x="235" y="494" on="0"/>
        <pt x="235" y="464" on="1"/>
        <pt x="235" y="443" on="1"/>
        <pt x="235" y="412" on="0"/>
        <pt x="197" y="372" on="0"/>
      </contour>
    </TTGlyph>
    <TTGlyph name="f" xMin="23" yMin="0" xMax="335" yMax="740">
      <contour>
        <pt x="100" y="421" on="1"/>
        <pt x="23" y="421" on="1"/>
        <pt x="23" y="522" on="1"/>
        <pt x="100" y="522" on="1"/>
        <pt x="100" y="597" on="1"/>
        <pt x="100" y="666" on="0"/>
        <pt x="173" y="740" on="0"/>
        <pt x="244" y="740" on="1"/>
        <pt x="335" y="740" on="1"/>
        <pt x="335" y="638" on="1"/>
        <pt x="228" y="638" on="1"/>
        <pt x="228" y="522" on="1"/>
        <pt x="335" y="522" on="1"/>
        <pt x="335" y="421" on="1"/>
        <pt x="228" y="421" on="1"/>
        <pt x="228" y="0" on="1"/>
        <pt x="100" y="0" on="1"/>
      </contour>
    </TTGlyph>
    <TTGlyph name="fi" xMin="23" yMin="0" xMax="561" yMax="746">
      <contour>
        <pt x="100" y="421" on="1"/>
        <pt x="23" y="421" on="1"/>
        <pt x="23" y="522" on="1"/>
        <pt x="100" y="522" on="1"/>
        <pt x="100" y="597" on="1"/>
        <pt x="100" y="666" on="0"/>
        <pt x="173" y="740" on="0"/>
        <pt x="244" y="740" on="1"/>
        <pt x="335" y="740" on="1"/>
        <pt x="335" y="638" on="1"/>
        <pt x="228" y="638" on="1"/>
        <pt x="228" y="522" on="1"/>
        <pt x="550" y="522" on="1"/>
        <pt x="550" y="0" on="1"/>
        <pt x="422" y="0" on="1"/>
        <pt x="422" y="421" on="1"/>
        <pt x="228" y="421" on="1"/>
        <pt x="228" y="0" on="1"/>
        <pt x="100" y="0" on="1"/>
      </contour>
      <contour>
        <pt x="486" y="598" on="1"/>
        <pt x="446" y="598" on="0"/>
        <pt x="411" y="634" on="0"/>
        <pt x="411" y="662" on="1"/>
        <pt x="411" y="682" on="1"/>
        <pt x="411" y="710" on="0"/>
        <pt x="446" y="746" on="0"/>
        <pt x="486" y="746" on="1"/>
        <pt x="525" y="746" on="0"/>
        <pt x="561" y="710" on="0"/>
        <pt x="561" y="682" on="1"/>
        <pt x="561" y="662" on="1"/>
        <pt x="561" y="634" on="0"/>
        <pt x="525" y="598" on="0"/>
      </contour>
    </TTGlyph>
    <TTGlyph name="five" xMin="55" yMin="-12" xMax="553" yMax="698">
      <contour>
        <pt x="515" y="584" on="1"/>
        <pt x="201" y="584" on="1"/>
        <pt x="185" y="350" on="1"/>
        <pt x="192" y="350" on="1"/>
        <pt x="203" y="372" on="0"/>
        <pt x="229" y="410" on="0"/>
        <pt x="263" y="436" on="0"/>
        <pt x="308" y="451" on="0"/>
        <pt x="340" y="451" on="1"/>
        <pt x="385" y="451" on="0"/>
        <pt x="463" y="421" on="0"/>
        <pt x="520" y="364" on="0"/>
        <pt x="553" y="282" on="0"/>
        <pt x="553" y="230" on="1"/>
        <pt x="553" y="177" on="0"/>
        <pt x="519" y="89" on="0"/>
        <pt x="453" y="24" on="0"/>
        <pt x="357" y="-12" on="0"/>
        <pt x="295" y="-12" on="1"/>
        <pt x="247" y="-12" on="0"/>
        <pt x="171" y="9" on="0"/>
        <pt x="113" y="45" on="0"/>
        <pt x="71" y="92" on="0"/>
        <pt x="55" y="118" on="1"/>
        <pt x="151" y="192" on="1"/>
        <pt x="163" y="172" on="0"/>
        <pt x="189" y="137" on="0"/>
        <pt x="224" y="111" on="0"/>
        <pt x="267" y="96" on="0"/>
        <pt x="296" y="96" on="1"/>
        <pt x="355" y="96" on="0"/>
        <pt x="416" y="162" on="0"/>
        <pt x="416" y="219" on="1"/>
        <pt x="416" y="227" on="1"/>
        <pt x="416" y="281" on="0"/>
        <pt x="354" y="343" on="0"/>
        <pt x="299" y="343" on="1"/>
        <pt x="256" y="343" on="0"/>
        <pt x="202" y="310" on="0"/>
        <pt x="186" y="291" on="1"/>
        <pt x="78" y="306" on="1"/>
        <pt x="104" y="698" on="1"/>
        <pt x="515" y="698" on="1"/>
      </contour>
    </TTGlyph>
    <TTGlyph name="five.loclIWR" xMin="51" yMin="-12" xMax="539" yMax="608">
      <contour>
        <pt x="195" y="496" on="1"/>
        <pt x="179" y="307" on="1"/>
        <pt x="187" y="307" on="1"/>
        <pt x="213" y="359" on="0"/>
        <pt x="279" y="403" on="0"/>
        <pt x="331" y="403" on="1"/>
        <pt x="377" y="403" on="0"/>
        <pt x="454" y="374" on="0"/>
        <pt x="509" y="322" on="0"/>
        <pt x="539" y="249" on="0"/>
        <pt x="539" y="206" on="1"/>
        <pt x="539" y="157" on="0"/>
        <pt x="503" y="76" on="0"/>
        <pt x="436" y="19" on="0"/>
        <pt x="343" y="-12" on="0"/>
        <pt x="286" y="-12" on="1"/>
        <pt x="130" y="-12" on="0"/>
        <pt x="51" y="106" on="1"/>
        <pt x="145" y="179" on="1"/>
        <pt x="176" y="133" on="0"/>
        <pt x="241" y="94" on="0"/>
        <pt x="287" y="94" on="1"/>
        <pt x="341" y="94" on="0"/>
        <pt x="401" y="146" on="0"/>
        <pt x="401" y="194" on="1"/>
        <pt x="401" y="204" on="1"/>
        <pt x="401" y="249" on="0"/>
        <pt x="342" y="298" on="0"/>
        <pt x="292" y="298" on="1"/>
        <pt x="227" y="298" on="0"/>
        <pt x="180" y="254" on="1"/>
        <pt x="73" y="268" on="1"/>
        <pt x="98" y="608" on="1"/>
        <pt x="501" y="608" on="1"/>
        <pt x="501" y="496" on="1"/>
      </contour>
    </TTGlyph>
    <TTGlyph name="fl" xMin="23" yMin="0" xMax="621" yMax="740">
      <component glyphName="l" x="350" y="0" flags="0x4"/>
      <component glyphName="f" x="0" y="0" flags="0x4"/>
    </TTGlyph>
    <TTGlyph name="florin" xMin="3" yMin="-134" xMax="469" yMax="698">
      <contour>
        <pt x="13" y="-32" on="1"/>
        <pt x="137" y="-32" on="1"/>
        <pt x="168" y="266" on="1"/>
        <pt x="51" y="266" on="1"/>
        <pt x="62" y="372" on="1"/>
        <pt x="178" y="372" on="1"/>
        <pt x="197" y="556" on="1"/>
        <pt x="203" y="619" on="0"/>
        <pt x="282" y="698" on="0"/>
        <pt x="356" y="698" on="1"/>
        <pt x="469" y="698" on="1"/>
        <pt x="458" y="596" on="1"/>
        <pt x="329" y="596" on="1"/>
        <pt x="306" y="372" on="1"/>
        <pt x="444" y="372" on="1"/>
        <pt x="435" y="266" on="1"/>
        <pt x="295" y="266" on="1"/>
        <pt x="269" y="7" on="1"/>
        <pt x="262" y="-55" on="0"/>
        <pt x="184" y="-134" on="0"/>
        <pt x="110" y="-134" on="1"/>
        <pt x="3" y="-134" on="1"/>
      </contour>
    </TTGlyph>
    <TTGlyph name="four" xMin="32" yMin="0" xMax="564" yMax="698">
      <contour>
        <pt x="348" y="0" on="1"/>
        <pt x="348" y="135" on="1"/>
        <pt x="32" y="135" on="1"/>
        <pt x="32" y="247" on="1"/>
        <pt x="310" y="698" on="1"/>
        <pt x="473" y="698" on="1"/>
        <pt x="473" y="237" on="1"/>
        <pt x="564" y="237" on="1"/>
        <pt x="564" y="135" on="1"/>
        <pt x="473" y="135" on="1"/>
        <pt x="473" y="0" on="1"/>
      </contour>
      <contour>
        <pt x="140" y="237" on="1"/>
        <pt x="348" y="237" on="1"/>
        <pt x="348" y="570" on="1"/>
        <pt x="340" y="570" on="1"/>
      </contour>
    </TTGlyph>
    <TTGlyph name="four.loclIWR" xMin="37" yMin="0" xMax="556" yMax="608">
      <contour>
        <pt x="343" y="119" on="1"/>
        <pt x="37" y="119" on="1"/>
        <pt x="37" y="229" on="1"/>
        <pt x="308" y="608" on="1"/>
        <pt x="467" y="608" on="1"/>
        <pt x="467" y="218" on="1"/>
        <pt x="556" y="218" on="1"/>
        <pt x="556" y="119" on="1"/>
        <pt x="467" y="119" on="1"/>
        <pt x="467" y="0" on="1"/>
        <pt x="343" y="0" on="1"/>
      </contour>
      <contour>
        <pt x="343" y="218" on="1"/>
        <pt x="343" y="485" on="1"/>
        <pt x="336" y="485" on="1"/>
        <pt x="144" y="218" on="1"/>
      </contour>
    </TTGlyph>
    <TTGlyph name="fraction" xMin="-233" yMin="0" xMax="380" yMax="698">
      <contour>
        <pt x="-233" y="0" on="1"/>
        <pt x="284" y="698" on="1"/>
        <pt x="380" y="698" on="1"/>
        <pt x="-137" y="0" on="1"/>
      </contour>
    </TTGlyph>
    <TTGlyph name="g" xMin="28" yMin="-212" xMax="545" yMax="614">
      <contour>
        <pt x="545" y="-44" on="1"/>
        <pt x="545" y="-85" on="0"/>
        <pt x="516" y="-148" on="0"/>
        <pt x="450" y="-190" on="0"/>
        <pt x="346" y="-212" on="0"/>
        <pt x="271" y="-212" on="1"/>
        <pt x="205" y="-212" on="0"/>
        <pt x="113" y="-195" on="0"/>
        <pt x="54" y="-164" on="0"/>
        <pt x="28" y="-118" on="0"/>
        <pt x="28" y="-89" on="1"/>
        <pt x="28" y="-45" on="0"/>
        <pt x="77" y="4" on="0"/>
        <pt x="121" y="11" on="1"/>
        <pt x="121" y="22" on="1"/>
        <pt x="89" y="30" on="0"/>
        <pt x="54" y="77" on="0"/>
        <pt x="54" y="109" on="1"/>
        <pt x="54" y="129" on="0"/>
        <pt x="70" y="160" on="0"/>
        <pt x="97" y="182" on="0"/>
        <pt x="131" y="197" on="0"/>
        <pt x="150" y="201" on="1"/>
        <pt x="150" y="205" on="1"/>
        <pt x="102" y="227" on="0"/>
        <pt x="55" y="305" on="0"/>
        <pt x="55" y="357" on="1"/>
        <pt x="55" y="437" on="0"/>
        <pt x="165" y="534" on="0"/>
        <pt x="271" y="534" on="1"/>
        <pt x="295" y="534" on="0"/>
        <pt x="342" y="528" on="0"/>
        <pt x="362" y="521" on="1"/>
        <pt x="362" y="538" on="1"/>
        <pt x="362" y="614" on="0"/>
        <pt x="436" y="614" on="1"/>
        <pt x="517" y="614" on="1"/>
        <pt x="517" y="516" on="1"/>
        <pt x="406" y="516" on="1"/>
        <pt x="406" y="502" on="1"/>
        <pt x="447" y="479" on="0"/>
        <pt x="487" y="405" on="0"/>
        <pt x="487" y="357" on="1"/>
        <pt x="487" y="278" on="0"/>
        <pt x="378" y="182" on="0"/>
        <pt x="271" y="182" on="1"/>
        <pt x="225" y="182" on="0"/>
        <pt x="191" y="191" on="1"/>
        <pt x="176" y="184" on="0"/>
        <pt x="154" y="161" on="0"/>
        <pt x="154" y="144" on="1"/>
        <pt x="154" y="105" on="0"/>
        <pt x="222" y="105" on="1"/>
        <pt x="362" y="105" on="1"/>
        <pt x="458" y="105" on="0"/>
        <pt x="545" y="26" on="0"/>
      </contour>
      <contour>
        <pt x="425" y="-59" on="1"/>
        <pt x="425" y="-34" on="0"/>
        <pt x="385" y="-6" on="0"/>
        <pt x="336" y="-6" on="1"/>
        <pt x="158" y="-6" on="1"/>
        <pt x="131" y="-26" on="0"/>
        <pt x="131" y="-60" on="1"/>
        <pt x="131" y="-90" on="0"/>
        <pt x="181" y="-124" on="0"/>
        <pt x="241" y="-124" on="1"/>
        <pt x="305" y="-124" on="1"/>
        <pt x="368" y="-124" on="0"/>
        <pt x="425" y="-92" on="0"/>
      </contour>
      <contour>
        <pt x="271" y="269" on="1"/>
        <pt x="365" y="269" on="0"/>
        <pt x="365" y="349" on="1"/>
        <pt x="365" y="366" on="1"/>
        <pt x="365" y="446" on="0"/>
        <pt x="271" y="446" on="1"/>
        <pt x="177" y="446" on="0"/>
        <pt x="177" y="366" on="1"/>
        <pt x="177" y="349" on="1"/>
        <pt x="177" y="269" on="0"/>
      </contour>
    </TTGlyph>
    <TTGlyph name="g.alt01" xMin="45" yMin="-212" xMax="526" yMax="534">
      <contour>
        <pt x="526" y="28" on="1"/>
        <pt x="526" y="-86" on="0"/>
        <pt x="401" y="-212" on="0"/>
        <pt x="277" y="-212" on="1"/>
        <pt x="205" y="-212" on="0"/>
        <pt x="107" y="-170" on="0"/>
        <pt x="77" y="-138" on="1"/>
        <pt x="147" y="-56" on="1"/>
        <pt x="198" y="-110" on="0"/>
        <pt x="275" y="-110" on="1"/>
        <pt x="337" y="-110" on="0"/>
        <pt x="398" y="-44" on="0"/>
        <pt x="398" y="16" on="1"/>
        <pt x="398" y="97" on="1"/>
        <pt x="393" y="97" on="1"/>
        <pt x="379" y="52" on="0"/>
        <pt x="302" y="-2" on="0"/>
        <pt x="249" y="-2" on="1"/>
        <pt x="150" y="-2" on="0"/>
        <pt x="45" y="138" on="0"/>
        <pt x="45" y="266" on="1"/>
        <pt x="45" y="394" on="0"/>
        <pt x="150" y="534" on="0"/>
        <pt x="249" y="534" on="1"/>
        <pt x="301" y="534" on="0"/>
        <pt x="379" y="480" on="0"/>
        <pt x="393" y="435" on="1"/>
        <pt x="398" y="435" on="1"/>
        <pt x="398" y="522" on="1"/>
        <pt x="526" y="522" on="1"/>
      </contour>
      <contour>
        <pt x="291" y="104" on="1"/>
        <pt x="337" y="104" on="0"/>
        <pt x="398" y="148" on="0"/>
        <pt x="398" y="189" on="1"/>
        <pt x="398" y="345" on="1"/>
        <pt x="398" y="383" on="0"/>
        <pt x="337" y="429" on="0"/>
        <pt x="291" y="429" on="1"/>
        <pt x="241" y="429" on="0"/>
        <pt x="179" y="361" on="0"/>
        <pt x="179" y="306" on="1"/>
        <pt x="179" y="227" on="1"/>
        <pt x="179" y="172" on="0"/>
        <pt x="241" y="104" on="0"/>
      </contour>
    </TTGlyph>
    <TTGlyph name="g.alt02" xMin="28" yMin="-212" xMax="545" yMax="534">
      <contour>
        <pt x="545" y="-44" on="1"/>
        <pt x="545" y="-85" on="0"/>
        <pt x="516" y="-148" on="0"/>
        <pt x="450" y="-190" on="0"/>
        <pt x="346" y="-212" on="0"/>
        <pt x="271" y="-212" on="1"/>
        <pt x="205" y="-212" on="0"/>
        <pt x="113" y="-195" on="0"/>
        <pt x="54" y="-164" on="0"/>
        <pt x="28" y="-118" on="0"/>
        <pt x="28" y="-89" on="1"/>
        <pt x="28" y="-45" on="0"/>
        <pt x="77" y="4" on="0"/>
        <pt x="121" y="11" on="1"/>
        <pt x="121" y="22" on="1"/>
        <pt x="89" y="30" on="0"/>
        <pt x="54" y="77" on="0"/>
        <pt x="54" y="109" on="1"/>
        <pt x="54" y="129" on="0"/>
        <pt x="70" y="160" on="0"/>
        <pt x="97" y="182" on="0"/>
        <pt x="131" y="197" on="0"/>
        <pt x="150" y="201" on="1"/>
        <pt x="150" y="205" on="1"/>
        <pt x="102" y="227" on="0"/>
        <pt x="55" y="305" on="0"/>
        <pt x="55" y="357" on="1"/>
        <pt x="55" y="437" on="0"/>
        <pt x="165" y="534" on="0"/>
        <pt x="271" y="534" on="1"/>
        <pt x="294" y="534" on="0"/>
        <pt x="343" y="529" on="0"/>
        <pt x="363" y="522" on="1"/>
        <pt x="534" y="522" on="1"/>
        <pt x="534" y="434" on="1"/>
        <pt x="465" y="434" on="1"/>
        <pt x="487" y="401" on="0"/>
        <pt x="487" y="357" on="1"/>
        <pt x="487" y="278" on="0"/>
        <pt x="378" y="182" on="0"/>
        <pt x="271" y="182" on="1"/>
        <pt x="225" y="182" on="0"/>
        <pt x="191" y="191" on="1"/>
        <pt x="176" y="184" on="0"/>
        <pt x="154" y="161" on="0"/>
        <pt x="154" y="144" on="1"/>
        <pt x="154" y="105" on="0"/>
        <pt x="222" y="105" on="1"/>
        <pt x="362" y="105" on="1"/>
        <pt x="458" y="105" on="0"/>
        <pt x="545" y="26" on="0"/>
      </contour>
      <contour>
        <pt x="271" y="269" on="1"/>
        <pt x="365" y="269" on="0"/>
        <pt x="365" y="349" on="1"/>
        <pt x="365" y="366" on="1"/>
        <pt x="365" y="446" on="0"/>
        <pt x="271" y="446" on="1"/>
        <pt x="177" y="446" on="0"/>
        <pt x="177" y="366" on="1"/>
        <pt x="177" y="349" on="1"/>
        <pt x="177" y="269" on="0"/>
      </contour>
      <contour>
        <pt x="425" y="-59" on="1"/>
        <pt x="425" y="-34" on="0"/>
        <pt x="385" y="-6" on="0"/>
        <pt x="336" y="-6" on="1"/>
        <pt x="158" y="-6" on="1"/>
        <pt x="131" y="-26" on="0"/>
        <pt x="131" y="-60" on="1"/>
        <pt x="131" y="-90" on="0"/>
        <pt x="181" y="-124" on="0"/>
        <pt x="241" y="-124" on="1"/>
        <pt x="305" y="-124" on="1"/>
        <pt x="368" y="-124" on="0"/>
        <pt x="425" y="-92" on="0"/>
      </contour>
    </TTGlyph>
    <TTGlyph name="germandbls" xMin="23" yMin="-12" xMax="651" yMax="752">
      <contour>
        <pt x="651" y="166" on="1"/>
        <pt x="651" y="125" on="0"/>
        <pt x="623" y="59" on="0"/>
        <pt x="573" y="13" on="0"/>
        <pt x="503" y="-12" on="0"/>
        <pt x="461" y="-12" on="1"/>
        <pt x="335" y="-12" on="0"/>
        <pt x="278" y="66" on="1"/>
        <pt x="353" y="140" on="1"/>
        <pt x="376" y="111" on="0"/>
        <pt x="429" y="86" on="0"/>
        <pt x="461" y="86" on="1"/>
        <pt x="494" y="86" on="0"/>
        <pt x="532" y="119" on="0"/>
        <pt x="532" y="151" on="1"/>
        <pt x="532" y="177" on="0"/>
        <pt x="502" y="209" on="0"/>
        <pt x="465" y="220" on="1"/>
        <pt x="434" y="229" on="1"/>
        <pt x="407" y="237" on="0"/>
        <pt x="362" y="260" on="0"/>
        <pt x="330" y="295" on="0"/>
        <pt x="312" y="343" on="0"/>
        <pt x="312" y="375" on="1"/>
        <pt x="312" y="438" on="0"/>
        <pt x="392" y="516" on="0"/>
        <pt x="464" y="527" on="1"/>
        <pt x="464" y="530" on="1"/>
        <pt x="464" y="594" on="0"/>
        <pt x="406" y="654" on="0"/>
        <pt x="346" y="654" on="1"/>
        <pt x="286" y="654" on="0"/>
        <pt x="228" y="594" on="0"/>
        <pt x="228" y="530" on="1"/>
        <pt x="228" y="0" on="1"/>
        <pt x="100" y="0" on="1"/>
        <pt x="100" y="421" on="1"/>
        <pt x="23" y="421" on="1"/>
        <pt x="23" y="522" on="1"/>
        <pt x="100" y="522" on="1"/>
        <pt x="100" y="527" on="1"/>
        <pt x="100" y="579" on="0"/>
        <pt x="135" y="663" on="0"/>
        <pt x="199" y="721" on="0"/>
        <pt x="288" y="752" on="0"/>
        <pt x="343" y="752" on="1"/>
        <pt x="398" y="752" on="0"/>
        <pt x="486" y="721" on="0"/>
        <pt x="549" y="664" on="0"/>
        <pt x="583" y="580" on="0"/>
        <pt x="583" y="528" on="1"/>
        <pt x="583" y="442" on="1"/>
        <pt x="530" y="442" on="1"/>
        <pt x="478" y="442" on="0"/>
        <pt x="431" y="416" on="0"/>
        <pt x="431" y="385" on="1"/>
        <pt x="431" y="357" on="0"/>
        <pt x="465" y="332" on="0"/>
        <pt x="498" y="322" on="1"/>
        <pt x="529" y="312" on="1"/>
        <pt x="589" y="295" on="0"/>
        <pt x="651" y="226" on="0"/>
      </contour>
    </TTGlyph>
    <TTGlyph name="germandbls.alt01" xMin="74" yMin="-200" xMax="568" yMax="740">
      <contour>
        <pt x="74" y="0" on="1"/>
        <pt x="74" y="599" on="1"/>
        <pt x="74" y="661" on="0"/>
        <pt x="144" y="740" on="0"/>
        <pt x="217" y="740" on="1"/>
        <pt x="340" y="740" on="1"/>
        <pt x="340" y="638" on="1"/>
        <pt x="198" y="638" on="1"/>
        <pt x="198" y="522" on="1"/>
        <pt x="535" y="522" on="1"/>
        <pt x="535" y="428" on="1"/>
        <pt x="388" y="220" on="1"/>
        <pt x="473" y="207" on="0"/>
        <pt x="568" y="110" on="0"/>
        <pt x="568" y="19" on="1"/>
        <pt x="568" y="-90" on="0"/>
        <pt x="430" y="-200" on="0"/>
        <pt x="313" y="-200" on="1"/>
        <pt x="249" y="-200" on="1"/>
        <pt x="249" y="-98" on="1"/>
        <pt x="303" y="-98" on="1"/>
        <pt x="373" y="-98" on="0"/>
        <pt x="438" y="-51" on="0"/>
        <pt x="438" y="5" on="1"/>
        <pt x="438" y="31" on="1"/>
        <pt x="438" y="86" on="0"/>
        <pt x="371" y="135" on="0"/>
        <pt x="298" y="135" on="1"/>
        <pt x="277" y="135" on="1"/>
        <pt x="277" y="234" on="1"/>
        <pt x="407" y="421" on="1"/>
        <pt x="198" y="421" on="1"/>
        <pt x="198" y="0" on="1"/>
      </contour>
    </TTGlyph>
    <TTGlyph name="grave" xMin="161" yMin="581" xMax="364" yMax="805">
      <contour>
        <pt x="161" y="752" on="1"/>
        <pt x="269" y="805" on="1"/>
        <pt x="364" y="618" on="1"/>
        <pt x="287" y="581" on="1"/>
      </contour>
    </TTGlyph>
    <TTGlyph name="grave.case" xMin="161" yMin="744" xMax="364" yMax="969">
      <contour>
        <pt x="161" y="915" on="1"/>
        <pt x="269" y="969" on="1"/>
        <pt x="364" y="782" on="1"/>
        <pt x="287" y="744" on="1"/>
      </contour>
    </TTGlyph>
    <TTGlyph name="greater" xMin="99" yMin="-5" xMax="501" yMax="593">
      <contour>
        <pt x="99" y="126" on="1"/>
        <pt x="369" y="291" on="1"/>
        <pt x="369" y="298" on="1"/>
        <pt x="99" y="463" on="1"/>
        <pt x="99" y="593" on="1"/>
        <pt x="501" y="337" on="1"/>
        <pt x="501" y="253" on="1"/>
        <pt x="99" y="-5" on="1"/>
      </contour>
    </TTGlyph>
    <TTGlyph name="greaterequal" xMin="99" yMin="0" xMax="501" yMax="604">
      <contour>
        <pt x="99" y="253" on="1"/>
        <pt x="354" y="365" on="1"/>
        <pt x="354" y="372" on="1"/>
        <pt x="99" y="484" on="1"/>
        <pt x="99" y="604" on="1"/>
        <pt x="501" y="414" on="1"/>
        <pt x="501" y="324" on="1"/>
        <pt x="99" y="133" on="1"/>
      </contour>
      <contour>
        <pt x="99" y="102" on="1"/>
        <pt x="501" y="102" on="1"/>
        <pt x="501" y="0" on="1"/>
        <pt x="99" y="0" on="1"/>
      </contour>
    </TTGlyph>
    <TTGlyph name="guillemotleft" xMin="37" yMin="58" xMax="495" yMax="493">
      <component glyphName="guilsinglleft" x="0" y="0" flags="0x4"/>
      <component glyphName="guilsinglleft" x="232" y="0" flags="0x4"/>
    </TTGlyph>
    <TTGlyph name="guillemotright" xMin="50" yMin="58" xMax="508" yMax="493">
      <component glyphName="guilsinglright" x="0" y="0" flags="0x4"/>
      <component glyphName="guilsinglright" x="232" y="0" flags="0x4"/>
    </TTGlyph>
    <TTGlyph name="guilsinglleft" xMin="37" yMin="58" xMax="263" yMax="493">
      <contour>
        <pt x="225" y="58" on="1"/>
        <pt x="37" y="220" on="1"/>
        <pt x="37" y="331" on="1"/>
        <pt x="225" y="493" on="1"/>
        <pt x="263" y="412" on="1"/>
        <pt x="138" y="275" on="1"/>
        <pt x="263" y="138" on="1"/>
      </contour>
    </TTGlyph>
    <TTGlyph name="guilsinglright" xMin="50" yMin="58" xMax="276" yMax="493">
      <contour>
        <pt x="175" y="275" on="1"/>
        <pt x="50" y="412" on="1"/>
        <pt x="88" y="493" on="1"/>
        <pt x="276" y="331" on="1"/>
        <pt x="276" y="220" on="1"/>
        <pt x="88" y="58" on="1"/>
        <pt x="50" y="138" on="1"/>
      </contour>
    </TTGlyph>
    <TTGlyph name="h" xMin="74" yMin="0" xMax="520" yMax="740">
      <contour>
        <pt x="74" y="740" on="1"/>
        <pt x="202" y="740" on="1"/>
        <pt x="202" y="435" on="1"/>
        <pt x="207" y="435" on="1"/>
        <pt x="223" y="477" on="0"/>
        <pt x="292" y="534" on="0"/>
        <pt x="353" y="534" on="1"/>
        <pt x="434" y="534" on="0"/>
        <pt x="520" y="428" on="0"/>
        <pt x="520" y="330" on="1"/>
        <pt x="520" y="0" on="1"/>
        <pt x="392" y="0" on="1"/>
        <pt x="392" y="317" on="1"/>
        <pt x="392" y="373" on="0"/>
        <pt x="352" y="429" on="0"/>
        <pt x="306" y="429" on="1"/>
        <pt x="286" y="429" on="0"/>
        <pt x="249" y="418" on="0"/>
        <pt x="220" y="397" on="0"/>
        <pt x="202" y="366" on="0"/>
        <pt x="202" y="345" on="1"/>
        <pt x="202" y="0" on="1"/>
        <pt x="74" y="0" on="1"/>
      </contour>
    </TTGlyph>
    <TTGlyph name="hungarumlaut" xMin="144" yMin="581" xMax="532" yMax="802">
      <contour>
        <pt x="215" y="581" on="1"/>
        <pt x="144" y="615" on="1"/>
        <pt x="239" y="802" on="1"/>
        <pt x="341" y="752" on="1"/>
      </contour>
      <contour>
        <pt x="407" y="581" on="1"/>
        <pt x="335" y="615" on="1"/>
        <pt x="430" y="802" on="1"/>
        <pt x="532" y="752" on="1"/>
      </contour>
    </TTGlyph>
    <TTGlyph name="hyphen" xMin="58" yMin="241" xMax="344" yMax="368">
      <contour>
        <pt x="58" y="241" on="1"/>
        <pt x="58" y="368" on="1"/>
        <pt x="344" y="368" on="1"/>
        <pt x="344" y="241" on="1"/>
      </contour>
    </TTGlyph>
    <TTGlyph name="i" xMin="63" yMin="0" xMax="213" yMax="746">
      <contour>
        <pt x="138" y="598" on="1"/>
        <pt x="98" y="598" on="0"/>
        <pt x="63" y="634" on="0"/>
        <pt x="63" y="662" on="1"/>
        <pt x="63" y="682" on="1"/>
        <pt x="63" y="710" on="0"/>
        <pt x="98" y="746" on="0"/>
        <pt x="138" y="746" on="1"/>
        <pt x="177" y="746" on="0"/>
        <pt x="213" y="710" on="0"/>
        <pt x="213" y="682" on="1"/>
        <pt x="213" y="662" on="1"/>
        <pt x="213" y="634" on="0"/>
        <pt x="177" y="598" on="0"/>
      </contour>
      <contour>
        <pt x="74" y="522" on="1"/>
        <pt x="202" y="522" on="1"/>
        <pt x="202" y="0" on="1"/>
        <pt x="74" y="0" on="1"/>
      </contour>
    </TTGlyph>
    <TTGlyph name="iacute" xMin="74" yMin="0" xMax="278" yMax="805">
      <component glyphName="dotlessi" x="0" y="0" flags="0x204"/>
      <component glyphName="acute" x="-161" y="0" flags="0x4"/>
    </TTGlyph>
    <TTGlyph name="icircumflex" xMin="-45" yMin="0" xMax="323" yMax="786">
      <component glyphName="dotlessi" x="0" y="0" flags="0x204"/>
      <component glyphName="circumflex" x="-161" y="0" flags="0x4"/>
    </TTGlyph>
    <TTGlyph name="idieresis" xMin="-37" yMin="0" xMax="315" yMax="742">
      <component glyphName="dotlessi" x="0" y="0" flags="0x204"/>
      <component glyphName="dieresis" x="-161" y="0" flags="0x4"/>
    </TTGlyph>
    <TTGlyph name="igrave" xMin="0" yMin="0" xMax="203" yMax="805">
      <component glyphName="dotlessi" x="0" y="0" flags="0x204"/>
      <component glyphName="grave" x="-161" y="0" flags="0x4"/>
    </TTGlyph>
    <TTGlyph name="ij" xMin="63" yMin="-200" xMax="483" yMax="746">
      <component glyphName="i" x="0" y="0" flags="0x4"/>
      <component glyphName="j" x="270" y="0" flags="0x4"/>
    </TTGlyph>
    <TTGlyph name="infinity" xMin="20" yMin="94" xMax="756" yMax="495">
      <contour>
        <pt x="214" y="94" on="1"/>
        <pt x="123" y="94" on="0"/>
        <pt x="20" y="202" on="0"/>
        <pt x="20" y="294" on="1"/>
        <pt x="20" y="387" on="0"/>
        <pt x="123" y="495" on="0"/>
        <pt x="214" y="495" on="1"/>
        <pt x="285" y="495" on="0"/>
        <pt x="383" y="432" on="0"/>
        <pt x="408" y="358" on="1"/>
        <pt x="414" y="358" on="1"/>
        <pt x="417" y="390" on="0"/>
        <pt x="445" y="441" on="0"/>
        <pt x="486" y="476" on="0"/>
        <pt x="536" y="495" on="0"/>
        <pt x="562" y="495" on="1"/>
        <pt x="653" y="495" on="0"/>
        <pt x="756" y="387" on="0"/>
        <pt x="756" y="294" on="1"/>
        <pt x="756" y="202" on="0"/>
        <pt x="653" y="94" on="0"/>
        <pt x="562" y="94" on="1"/>
        <pt x="491" y="94" on="0"/>
        <pt x="393" y="157" on="0"/>
        <pt x="369" y="231" on="1"/>
        <pt x="363" y="231" on="1"/>
        <pt x="359" y="199" on="0"/>
        <pt x="331" y="148" on="0"/>
        <pt x="290" y="113" on="0"/>
        <pt x="240" y="94" on="0"/>
      </contour>
      <contour>
        <pt x="214" y="194" on="1"/>
        <pt x="259" y="194" on="0"/>
        <pt x="323" y="244" on="0"/>
        <pt x="337" y="286" on="1"/>
        <pt x="321" y="334" on="0"/>
        <pt x="259" y="395" on="0"/>
        <pt x="214" y="395" on="1"/>
        <pt x="178" y="395" on="0"/>
        <pt x="135" y="350" on="0"/>
        <pt x="135" y="308" on="1"/>
        <pt x="135" y="281" on="1"/>
        <pt x="135" y="239" on="0"/>
        <pt x="178" y="194" on="0"/>
      </contour>
      <contour>
        <pt x="562" y="194" on="1"/>
        <pt x="599" y="194" on="0"/>
        <pt x="641" y="239" on="0"/>
        <pt x="641" y="281" on="1"/>
        <pt x="641" y="308" on="1"/>
        <pt x="641" y="350" on="0"/>
        <pt x="599" y="395" on="0"/>
        <pt x="562" y="395" on="1"/>
        <pt x="517" y="395" on="0"/>
        <pt x="453" y="344" on="0"/>
        <pt x="440" y="303" on="1"/>
        <pt x="456" y="255" on="0"/>
        <pt x="517" y="194" on="0"/>
      </contour>
    </TTGlyph>
    <TTGlyph name="integral" xMin="40" yMin="-200" xMax="402" yMax="740">
      <contour>
        <pt x="40" y="-98" on="1"/>
        <pt x="157" y="-98" on="1"/>
        <pt x="157" y="599" on="1"/>
        <pt x="157" y="661" on="0"/>
        <pt x="227" y="740" on="0"/>
        <pt x="301" y="740" on="1"/>
        <pt x="402" y="740" on="1"/>
        <pt x="402" y="638" on="1"/>
        <pt x="285" y="638" on="1"/>
        <pt x="285" y="-59" on="1"/>
        <pt x="285" y="-121" on="0"/>
        <pt x="214" y="-200" on="0"/>
        <pt x="141" y="-200" on="1"/>
        <pt x="40" y="-200" on="1"/>
      </contour>
    </TTGlyph>
    <TTGlyph name="j" xMin="-6" yMin="-200" xMax="213" yMax="746">
      <contour>
        <pt x="74" y="522" on="1"/>
        <pt x="202" y="522" on="1"/>
        <pt x="202" y="-63" on="1"/>
        <pt x="202" y="-129" on="0"/>
        <pt x="136" y="-200" on="0"/>
        <pt x="64" y="-200" on="1"/>
        <pt x="-6" y="-200" on="1"/>
        <pt x="-6" y="-98" on="1"/>
        <pt x="74" y="-98" on="1"/>
      </contour>
      <contour>
        <pt x="138" y="598" on="1"/>
        <pt x="98" y="598" on="0"/>
        <pt x="63" y="634" on="0"/>
        <pt x="63" y="662" on="1"/>
        <pt x="63" y="682" on="1"/>
        <pt x="63" y="710" on="0"/>
        <pt x="98" y="746" on="0"/>
        <pt x="138" y="746" on="1"/>
        <pt x="177" y="746" on="0"/>
        <pt x="213" y="710" on="0"/>
        <pt x="213" y="682" on="1"/>
        <pt x="213" y="662" on="1"/>
        <pt x="213" y="634" on="0"/>
        <pt x="177" y="598" on="0"/>
      </contour>
    </TTGlyph>
    <TTGlyph name="jacute" xMin="-6" yMin="-200" xMax="278" yMax="805">
      <component glyphName="uni0237" x="0" y="0" flags="0x204"/>
      <component glyphName="acute" x="-161" y="0" flags="0x4"/>
    </TTGlyph>
    <TTGlyph name="jcircumflex" xMin="-45" yMin="-200" xMax="323" yMax="786">
      <component glyphName="uni0237" x="0" y="0" flags="0x204"/>
      <component glyphName="circumflex" x="-161" y="0" flags="0x4"/>
    </TTGlyph>
    <TTGlyph name="k" xMin="74" yMin="0" xMax="557" yMax="740">
      <contour>
        <pt x="74" y="740" on="1"/>
        <pt x="202" y="740" on="1"/>
        <pt x="202" y="294" on="1"/>
        <pt x="207" y="294" on="1"/>
        <pt x="276" y="388" on="1"/>
        <pt x="393" y="522" on="1"/>
        <pt x="538" y="522" on="1"/>
        <pt x="358" y="320" on="1"/>
        <pt x="557" y="0" on="1"/>
        <pt x="405" y="0" on="1"/>
        <pt x="271" y="234" on="1"/>
        <pt x="202" y="159" on="1"/>
        <pt x="202" y="0" on="1"/>
        <pt x="74" y="0" on="1"/>
      </contour>
    </TTGlyph>
    <TTGlyph name="l" xMin="74" yMin="0" xMax="271" yMax="740">
      <contour>
        <pt x="202" y="0" on="1"/>
        <pt x="136" y="0" on="0"/>
        <pt x="74" y="66" on="0"/>
        <pt x="74" y="126" on="1"/>
        <pt x="74" y="740" on="1"/>
        <pt x="202" y="740" on="1"/>
        <pt x="202" y="102" on="1"/>
        <pt x="271" y="102" on="1"/>
        <pt x="271" y="0" on="1"/>
      </contour>
    </TTGlyph>
    <TTGlyph name="ldot" xMin="74" yMin="0" xMax="424" yMax="740">
      <component glyphName="l" x="0" y="0" flags="0x4"/>
      <component glyphName="dotaccent" x="46" y="-330" flags="0x4"/>
    </TTGlyph>
    <TTGlyph name="less" xMin="99" yMin="-4" xMax="501" yMax="593">
      <contour>
        <pt x="99" y="252" on="1"/>
        <pt x="99" y="337" on="1"/>
        <pt x="501" y="593" on="1"/>
        <pt x="501" y="463" on="1"/>
        <pt x="231" y="298" on="1"/>
        <pt x="231" y="291" on="1"/>
        <pt x="501" y="126" on="1"/>
        <pt x="501" y="-4" on="1"/>
      </contour>
    </TTGlyph>
    <TTGlyph name="lessequal" xMin="99" yMin="0" xMax="501" yMax="604">
      <contour>
        <pt x="99" y="0" on="1"/>
        <pt x="99" y="102" on="1"/>
        <pt x="501" y="102" on="1"/>
        <pt x="501" y="0" on="1"/>
      </contour>
      <contour>
        <pt x="501" y="484" on="1"/>
        <pt x="246" y="372" on="1"/>
        <pt x="246" y="365" on="1"/>
        <pt x="501" y="253" on="1"/>
        <pt x="501" y="133" on="1"/>
        <pt x="99" y="323" on="1"/>
        <pt x="99" y="413" on="1"/>
        <pt x="501" y="604" on="1"/>
      </contour>
    </TTGlyph>
    <TTGlyph name="logicalnot" xMin="56" yMin="78" xMax="533" yMax="357">
      <contour>
        <pt x="427" y="78" on="1"/>
        <pt x="427" y="254" on="1"/>
        <pt x="56" y="254" on="1"/>
        <pt x="56" y="357" on="1"/>
        <pt x="533" y="357" on="1"/>
        <pt x="533" y="78" on="1"/>
      </contour>
    </TTGlyph>
    <TTGlyph name="lozenge" xMin="51" yMin="0" xMax="549" yMax="698">
      <contour>
        <pt x="259" y="0" on="1"/>
        <pt x="51" y="349" on="1"/>
        <pt x="259" y="698" on="1"/>
        <pt x="341" y="698" on="1"/>
        <pt x="549" y="349" on="1"/>
        <pt x="341" y="0" on="1"/>
      </contour>
      <contour>
        <pt x="303" y="123" on="1"/>
        <pt x="432" y="349" on="1"/>
        <pt x="303" y="575" on="1"/>
        <pt x="297" y="575" on="1"/>
        <pt x="168" y="349" on="1"/>
        <pt x="297" y="123" on="1"/>
      </contour>
    </TTGlyph>
    <TTGlyph name="lslash" xMin="4" yMin="0" xMax="310" yMax="740">
      <contour>
        <pt x="276" y="0" on="1"/>
        <pt x="208" y="0" on="1"/>
        <pt x="142" y="0" on="0"/>
        <pt x="79" y="66" on="0"/>
        <pt x="79" y="126" on="1"/>
        <pt x="79" y="304" on="1"/>
        <pt x="4" y="279" on="1"/>
        <pt x="4" y="376" on="1"/>
        <pt x="79" y="401" on="1"/>
        <pt x="79" y="740" on="1"/>
        <pt x="207" y="740" on="1"/>
        <pt x="207" y="443" on="1"/>
        <pt x="310" y="477" on="1"/>
        <pt x="310" y="380" on="1"/>
        <pt x="207" y="346" on="1"/>
        <pt x="207" y="102" on="1"/>
        <pt x="276" y="102" on="1"/>
      </contour>
    </TTGlyph>
    <TTGlyph name="m" xMin="74" yMin="0" xMax="820" yMax="534">
      <contour>
        <pt x="74" y="0" on="1"/>
        <pt x="74" y="522" on="1"/>
        <pt x="202" y="522" on="1"/>
        <pt x="202" y="435" on="1"/>
        <pt x="207" y="435" on="1"/>
        <pt x="222" y="476" on="0"/>
        <pt x="288" y="534" on="0"/>
        <pt x="347" y="534" on="1"/>
        <pt x="401" y="534" on="0"/>
        <pt x="479" y="482" on="0"/>
        <pt x="498" y="429" on="1"/>
        <pt x="500" y="429" on="1"/>
        <pt x="514" y="473" on="0"/>
        <pt x="597" y="534" on="0"/>
        <pt x="660" y="534" on="1"/>
        <pt x="737" y="534" on="0"/>
        <pt x="820" y="428" on="0"/>
        <pt x="820" y="330" on="1"/>
        <pt x="820" y="0" on="1"/>
        <pt x="692" y="0" on="1"/>
        <pt x="692" y="317" on="1"/>
        <pt x="692" y="429" on="0"/>
        <pt x="608" y="429" on="1"/>
        <pt x="589" y="429" on="0"/>
        <pt x="554" y="418" on="0"/>
        <pt x="527" y="397" on="0"/>
        <pt x="511" y="366" on="0"/>
        <pt x="511" y="345" on="1"/>
        <pt x="511" y="0" on="1"/>
        <pt x="383" y="0" on="1"/>
        <pt x="383" y="317" on="1"/>
        <pt x="383" y="429" on="0"/>
        <pt x="299" y="429" on="1"/>
        <pt x="281" y="429" on="0"/>
        <pt x="246" y="418" on="0"/>
        <pt x="219" y="397" on="0"/>
        <pt x="202" y="366" on="0"/>
        <pt x="202" y="345" on="1"/>
        <pt x="202" y="0" on="1"/>
      </contour>
    </TTGlyph>
    <TTGlyph name="macron" xMin="151" yMin="628" xMax="449" yMax="721">
      <contour>
        <pt x="151" y="721" on="1"/>
        <pt x="449" y="721" on="1"/>
        <pt x="449" y="628" on="1"/>
        <pt x="151" y="628" on="1"/>
      </contour>
    </TTGlyph>
    <TTGlyph name="macron.case" xMin="151" yMin="791" xMax="449" yMax="884">
      <contour>
        <pt x="151" y="884" on="1"/>
        <pt x="449" y="884" on="1"/>
        <pt x="449" y="791" on="1"/>
        <pt x="151" y="791" on="1"/>
      </contour>
    </TTGlyph>
    <TTGlyph name="minus" xMin="67" yMin="254" xMax="533" yMax="357">
      <contour>
        <pt x="67" y="254" on="1"/>
        <pt x="67" y="357" on="1"/>
        <pt x="533" y="357" on="1"/>
        <pt x="533" y="254" on="1"/>
      </contour>
    </TTGlyph>
    <TTGlyph name="mu" xMin="74" yMin="-200" xMax="520" yMax="522">
      <contour>
        <pt x="74" y="-200" on="1"/>
        <pt x="74" y="522" on="1"/>
        <pt x="202" y="522" on="1"/>
        <pt x="202" y="205" on="1"/>
        <pt x="202" y="151" on="0"/>
        <pt x="244" y="94" on="0"/>
        <pt x="290" y="94" on="1"/>
        <pt x="309" y="94" on="0"/>
        <pt x="346" y="104" on="0"/>
        <pt x="374" y="125" on="0"/>
        <pt x="392" y="156" on="0"/>
        <pt x="392" y="177" on="1"/>
        <pt x="392" y="522" on="1"/>
        <pt x="520" y="522" on="1"/>
        <pt x="520" y="0" on="1"/>
        <pt x="392" y="0" on="1"/>
        <pt x="392" y="87" on="1"/>
        <pt x="387" y="87" on="1"/>
        <pt x="373" y="47" on="0"/>
        <pt x="313" y="-12" on="0"/>
        <pt x="263" y="-12" on="1"/>
        <pt x="232" y="-12" on="0"/>
        <pt x="193" y="13" on="0"/>
        <pt x="183" y="33" on="1"/>
        <pt x="178" y="33" on="1"/>
        <pt x="201" y="-88" on="1"/>
        <pt x="201" y="-200" on="1"/>
      </contour>
    </TTGlyph>
    <TTGlyph name="multiply" xMin="83" yMin="77" xMax="517" yMax="524">
      <contour>
        <pt x="300" y="229" on="1"/>
        <pt x="155" y="77" on="1"/>
        <pt x="83" y="150" on="1"/>
        <pt x="228" y="301" on="1"/>
        <pt x="83" y="452" on="1"/>
        <pt x="155" y="524" on="1"/>
        <pt x="300" y="373" on="1"/>
        <pt x="445" y="524" on="1"/>
        <pt x="517" y="452" on="1"/>
        <pt x="372" y="301" on="1"/>
        <pt x="517" y="150" on="1"/>
        <pt x="445" y="77" on="1"/>
      </contour>
    </TTGlyph>
    <TTGlyph name="n" xMin="74" yMin="0" xMax="520" yMax="534">
      <contour>
        <pt x="74" y="0" on="1"/>
        <pt x="74" y="522" on="1"/>
        <pt x="202" y="522" on="1"/>
        <pt x="202" y="435" on="1"/>
        <pt x="207" y="435" on="1"/>
        <pt x="223" y="477" on="0"/>
        <pt x="292" y="534" on="0"/>
        <pt x="353" y="534" on="1"/>
        <pt x="434" y="534" on="0"/>
        <pt x="520" y="428" on="0"/>
        <pt x="520" y="330" on="1"/>
        <pt x="520" y="0" on="1"/>
        <pt x="392" y="0" on="1"/>
        <pt x="392" y="317" on="1"/>
        <pt x="392" y="373" on="0"/>
        <pt x="352" y="429" on="0"/>
        <pt x="306" y="429" on="1"/>
        <pt x="286" y="429" on="0"/>
        <pt x="249" y="418" on="0"/>
        <pt x="220" y="397" on="0"/>
        <pt x="202" y="366" on="0"/>
        <pt x="202" y="345" on="1"/>
        <pt x="202" y="0" on="1"/>
      </contour>
    </TTGlyph>
    <TTGlyph name="nine" xMin="44" yMin="0" xMax="551" yMax="710">
      <contour>
        <pt x="551" y="436" on="1"/>
        <pt x="551" y="361" on="0"/>
        <pt x="506" y="228" on="0"/>
        <pt x="434" y="117" on="0"/>
        <pt x="345" y="30" on="0"/>
        <pt x="301" y="0" on="1"/>
        <pt x="123" y="0" on="1"/>
        <pt x="184" y="44" on="0"/>
        <pt x="282" y="126" on="0"/>
        <pt x="355" y="210" on="0"/>
        <pt x="402" y="301" on="0"/>
        <pt x="414" y="354" on="1"/>
        <pt x="406" y="356" on="1"/>
        <pt x="396" y="336" on="0"/>
        <pt x="369" y="298" on="0"/>
        <pt x="331" y="270" on="0"/>
        <pt x="281" y="253" on="0"/>
        <pt x="248" y="253" on="1"/>
        <pt x="204" y="253" on="0"/>
        <pt x="130" y="283" on="0"/>
        <pt x="75" y="340" on="0"/>
        <pt x="44" y="419" on="0"/>
        <pt x="44" y="469" on="1"/>
        <pt x="44" y="522" on="0"/>
        <pt x="80" y="610" on="0"/>
        <pt x="146" y="674" on="0"/>
        <pt x="239" y="710" on="0"/>
        <pt x="297" y="710" on="1"/>
        <pt x="357" y="710" on="0"/>
        <pt x="451" y="671" on="0"/>
        <pt x="517" y="600" on="0"/>
        <pt x="551" y="499" on="0"/>
      </contour>
      <contour>
        <pt x="297" y="355" on="1"/>
        <pt x="353" y="355" on="0"/>
        <pt x="415" y="416" on="0"/>
        <pt x="415" y="473" on="1"/>
        <pt x="415" y="488" on="1"/>
        <pt x="415" y="545" on="0"/>
        <pt x="353" y="606" on="0"/>
        <pt x="297" y="606" on="1"/>
        <pt x="242" y="606" on="0"/>
        <pt x="179" y="545" on="0"/>
        <pt x="179" y="488" on="1"/>
        <pt x="179" y="473" on="1"/>
        <pt x="179" y="416" on="0"/>
        <pt x="242" y="355" on="0"/>
      </contour>
    </TTGlyph>
    <TTGlyph name="nine.loclIWR" xMin="52" yMin="0" xMax="548" yMax="620">
      <contour>
        <pt x="300" y="620" on="1"/>
        <pt x="357" y="620" on="0"/>
        <pt x="449" y="586" on="0"/>
        <pt x="514" y="524" on="0"/>
        <pt x="548" y="435" on="0"/>
        <pt x="548" y="381" on="1"/>
        <pt x="548" y="327" on="0"/>
        <pt x="514" y="219" on="0"/>
        <pt x="452" y="120" on="0"/>
        <pt x="363" y="33" on="0"/>
        <pt x="308" y="0" on="1"/>
        <pt x="131" y="0" on="1"/>
        <pt x="201" y="47" on="0"/>
        <pt x="299" y="124" on="0"/>
        <pt x="365" y="195" on="0"/>
        <pt x="404" y="264" on="0"/>
        <pt x="413" y="303" on="1"/>
        <pt x="405" y="306" on="1"/>
        <pt x="355" y="214" on="0"/>
        <pt x="250" y="214" on="1"/>
        <pt x="206" y="214" on="0"/>
        <pt x="134" y="242" on="0"/>
        <pt x="81" y="293" on="0"/>
        <pt x="52" y="364" on="0"/>
        <pt x="52" y="407" on="1"/>
        <pt x="52" y="454" on="0"/>
        <pt x="88" y="533" on="0"/>
        <pt x="153" y="589" on="0"/>
        <pt x="244" y="620" on="0"/>
      </contour>
      <contour>
        <pt x="300" y="519" on="1"/>
        <pt x="245" y="519" on="0"/>
        <pt x="186" y="470" on="0"/>
        <pt x="186" y="424" on="1"/>
        <pt x="186" y="410" on="1"/>
        <pt x="186" y="364" on="0"/>
        <pt x="245" y="315" on="0"/>
        <pt x="300" y="315" on="1"/>
        <pt x="355" y="315" on="0"/>
        <pt x="414" y="364" on="0"/>
        <pt x="414" y="410" on="1"/>
        <pt x="414" y="424" on="1"/>
        <pt x="414" y="470" on="0"/>
        <pt x="355" y="519" on="0"/>
      </contour>
    </TTGlyph>
    <TTGlyph name="notequal" xMin="67" yMin="47" xMax="533" yMax="565">
      <contour>
        <pt x="107" y="47" on="1"/>
        <pt x="158" y="142" on="1"/>
        <pt x="67" y="142" on="1"/>
        <pt x="67" y="244" on="1"/>
        <pt x="212" y="244" on="1"/>
        <pt x="276" y="366" on="1"/>
        <pt x="67" y="366" on="1"/>
        <pt x="67" y="468" on="1"/>
        <pt x="330" y="468" on="1"/>
        <pt x="381" y="565" on="1"/>
        <pt x="491" y="565" on="1"/>
        <pt x="439" y="468" on="1"/>
        <pt x="533" y="468" on="1"/>
        <pt x="533" y="366" on="1"/>
        <pt x="386" y="366" on="1"/>
        <pt x="321" y="244" on="1"/>
        <pt x="533" y="244" on="1"/>
        <pt x="533" y="142" on="1"/>
        <pt x="267" y="142" on="1"/>
        <pt x="216" y="47" on="1"/>
      </contour>
    </TTGlyph>
    <TTGlyph name="ntilde" xMin="74" yMin="0" xMax="520" yMax="744">
      <component glyphName="n" x="0" y="0" flags="0x204"/>
      <component glyphName="tilde" x="-3" y="0" flags="0x4"/>
    </TTGlyph>
    <TTGlyph name="numbersign" xMin="26" yMin="0" xMax="630" yMax="698">
      <contour>
        <pt x="379" y="182" on="1"/>
        <pt x="221" y="182" on="1"/>
        <pt x="189" y="0" on="1"/>
        <pt x="104" y="0" on="1"/>
        <pt x="135" y="182" on="1"/>
        <pt x="26" y="182" on="1"/>
        <pt x="26" y="264" on="1"/>
        <pt x="150" y="264" on="1"/>
        <pt x="178" y="434" on="1"/>
        <pt x="70" y="434" on="1"/>
        <pt x="70" y="516" on="1"/>
        <pt x="193" y="516" on="1"/>
        <pt x="224" y="698" on="1"/>
        <pt x="309" y="698" on="1"/>
        <pt x="277" y="516" on="1"/>
        <pt x="436" y="516" on="1"/>
        <pt x="467" y="698" on="1"/>
        <pt x="552" y="698" on="1"/>
        <pt x="521" y="516" on="1"/>
        <pt x="630" y="516" on="1"/>
        <pt x="630" y="434" on="1"/>
        <pt x="506" y="434" on="1"/>
        <pt x="477" y="264" on="1"/>
        <pt x="586" y="264" on="1"/>
        <pt x="586" y="182" on="1"/>
        <pt x="463" y="182" on="1"/>
        <pt x="431" y="0" on="1"/>
        <pt x="347" y="0" on="1"/>
      </contour>
      <contour>
        <pt x="392" y="264" on="1"/>
        <pt x="422" y="434" on="1"/>
        <pt x="264" y="434" on="1"/>
        <pt x="234" y="264" on="1"/>
      </contour>
    </TTGlyph>
    <TTGlyph name="o" xMin="39" yMin="-12" xMax="524" yMax="534">
      <contour>
        <pt x="281" y="-12" on="1"/>
        <pt x="225" y="-12" on="0"/>
        <pt x="136" y="26" on="0"/>
        <pt x="73" y="98" on="0"/>
        <pt x="39" y="199" on="0"/>
        <pt x="39" y="262" on="1"/>
        <pt x="39" y="325" on="0"/>
        <pt x="73" y="425" on="0"/>
        <pt x="136" y="496" on="0"/>
        <pt x="225" y="534" on="0"/>
        <pt x="281" y="534" on="1"/>
        <pt x="337" y="534" on="0"/>
        <pt x="427" y="496" on="0"/>
        <pt x="490" y="425" on="0"/>
        <pt x="524" y="325" on="0"/>
        <pt x="524" y="262" on="1"/>
        <pt x="524" y="199" on="0"/>
        <pt x="490" y="98" on="0"/>
        <pt x="427" y="26" on="0"/>
        <pt x="337" y="-12" on="0"/>
      </contour>
      <contour>
        <pt x="281" y="91" on="1"/>
        <pt x="332" y="91" on="0"/>
        <pt x="390" y="153" on="0"/>
        <pt x="390" y="213" on="1"/>
        <pt x="390" y="310" on="1"/>
        <pt x="390" y="369" on="0"/>
        <pt x="332" y="431" on="0"/>
        <pt x="281" y="431" on="1"/>
        <pt x="231" y="431" on="0"/>
        <pt x="173" y="369" on="0"/>
        <pt x="173" y="310" on="1"/>
        <pt x="173" y="213" on="1"/>
        <pt x="173" y="153" on="0"/>
        <pt x="231" y="91" on="0"/>
      </contour>
    </TTGlyph>
    <TTGlyph name="oacute" xMin="39" yMin="-12" xMax="524" yMax="805">
      <component glyphName="o" x="0" y="0" flags="0x204"/>
      <component glyphName="acute" x="-18" y="0" flags="0x4"/>
    </TTGlyph>
    <TTGlyph name="ocircumflex" xMin="39" yMin="-12" xMax="524" yMax="786">
      <component glyphName="o" x="0" y="0" flags="0x204"/>
      <component glyphName="circumflex" x="-18" y="0" flags="0x4"/>
    </TTGlyph>
    <TTGlyph name="odieresis" xMin="39" yMin="-12" xMax="524" yMax="742">
      <component glyphName="o" x="0" y="0" flags="0x204"/>
      <component glyphName="dieresis" x="-18" y="0" flags="0x4"/>
    </TTGlyph>
    <TTGlyph name="oe" xMin="39" yMin="-12" xMax="871" yMax="534">
      <contour>
        <pt x="281" y="91" on="1"/>
        <pt x="332" y="91" on="0"/>
        <pt x="390" y="153" on="0"/>
        <pt x="390" y="213" on="1"/>
        <pt x="390" y="310" on="1"/>
        <pt x="390" y="369" on="0"/>
        <pt x="332" y="431" on="0"/>
        <pt x="281" y="431" on="1"/>
        <pt x="231" y="431" on="0"/>
        <pt x="173" y="369" on="0"/>
        <pt x="173" y="310" on="1"/>
        <pt x="173" y="213" on="1"/>
        <pt x="173" y="153" on="0"/>
        <pt x="231" y="91" on="0"/>
      </contour>
      <contour>
        <pt x="737" y="308" on="1"/>
        <pt x="737" y="317" on="1"/>
        <pt x="737" y="371" on="0"/>
        <pt x="684" y="438" on="0"/>
        <pt x="634" y="438" on="1"/>
        <pt x="583" y="438" on="0"/>
        <pt x="523" y="370" on="0"/>
        <pt x="523" y="316" on="1"/>
        <pt x="523" y="308" on="1"/>
      </contour>
      <contour>
        <pt x="641" y="-12" on="1"/>
        <pt x="572" y="-12" on="0"/>
        <pt x="477" y="37" on="0"/>
        <pt x="460" y="74" on="1"/>
        <pt x="454" y="74" on="1"/>
        <pt x="434" y="34" on="0"/>
        <pt x="344" y="-12" on="0"/>
        <pt x="281" y="-12" on="1"/>
        <pt x="225" y="-12" on="0"/>
        <pt x="136" y="27" on="0"/>
        <pt x="73" y="99" on="0"/>
        <pt x="39" y="201" on="0"/>
        <pt x="39" y="264" on="1"/>
        <pt x="39" y="327" on="0"/>
        <pt x="73" y="427" on="0"/>
        <pt x="136" y="497" on="0"/>
        <pt x="225" y="534" on="0"/>
        <pt x="281" y="534" on="1"/>
        <pt x="341" y="534" on="0"/>
        <pt x="430" y="493" on="0"/>
        <pt x="454" y="448" on="1"/>
        <pt x="460" y="448" on="1"/>
        <pt x="480" y="488" on="0"/>
        <pt x="571" y="534" on="0"/>
        <pt x="636" y="534" on="1"/>
        <pt x="692" y="534" on="0"/>
        <pt x="780" y="496" on="0"/>
        <pt x="840" y="427" on="0"/>
        <pt x="871" y="330" on="0"/>
        <pt x="871" y="271" on="1"/>
        <pt x="871" y="229" on="1"/>
        <pt x="523" y="229" on="1"/>
        <pt x="523" y="216" on="1"/>
        <pt x="523" y="159" on="0"/>
        <pt x="588" y="90" on="0"/>
        <pt x="653" y="90" on="1"/>
        <pt x="701" y="90" on="0"/>
        <pt x="762" y="130" on="0"/>
        <pt x="786" y="161" on="1"/>
        <pt x="854" y="84" on="1"/>
        <pt x="822" y="39" on="0"/>
        <pt x="713" y="-12" on="0"/>
      </contour>
    </TTGlyph>
    <TTGlyph name="ogonek" xMin="110" yMin="-211" xMax="337" yMax="22">
      <contour>
        <pt x="225" y="-211" on="1"/>
        <pt x="202" y="-211" on="0"/>
        <pt x="160" y="-202" on="0"/>
        <pt x="128" y="-183" on="0"/>
        <pt x="110" y="-151" on="0"/>
        <pt x="110" y="-128" on="1"/>
        <pt x="110" y="-87" on="0"/>
        <pt x="171" y="-30" on="0"/>
        <pt x="224" y="-2" on="1"/>
        <pt x="217" y="22" on="1"/>
        <pt x="299" y="22" on="1"/>
        <pt x="308" y="0" on="1"/>
        <pt x="273" y="-24" on="0"/>
        <pt x="230" y="-58" on="0"/>
        <pt x="207" y="-83" on="0"/>
        <pt x="199" y="-101" on="0"/>
        <pt x="199" y="-110" on="1"/>
        <pt x="199" y="-128" on="0"/>
        <pt x="221" y="-142" on="0"/>
        <pt x="235" y="-142" on="1"/>
        <pt x="252" y="-142" on="0"/>
        <pt x="277" y="-127" on="0"/>
        <pt x="288" y="-116" on="1"/>
        <pt x="337" y="-163" on="1"/>
        <pt x="325" y="-185" on="0"/>
        <pt x="269" y="-211" on="0"/>
      </contour>
    </TTGlyph>
    <TTGlyph name="ograve" xMin="39" yMin="-12" xMax="524" yMax="805">
      <component glyphName="o" x="0" y="0" flags="0x204"/>
      <component glyphName="grave" x="-18" y="0" flags="0x4"/>
    </TTGlyph>
    <TTGlyph name="one" xMin="40" yMin="0" xMax="572" yMax="698">
      <contour>
        <pt x="91" y="0" on="1"/>
        <pt x="91" y="107" on="1"/>
        <pt x="283" y="107" on="1"/>
        <pt x="283" y="603" on="1"/>
        <pt x="274" y="603" on="1"/>
        <pt x="122" y="423" on="1"/>
        <pt x="40" y="492" on="1"/>
        <pt x="213" y="698" on="1"/>
        <pt x="412" y="698" on="1"/>
        <pt x="412" y="107" on="1"/>
        <pt x="572" y="107" on="1"/>
        <pt x="572" y="0" on="1"/>
      </contour>
    </TTGlyph>
    <TTGlyph name="one.loclIWR" xMin="54" yMin="0" xMax="573" yMax="608">
      <contour>
        <pt x="106" y="105" on="1"/>
        <pt x="290" y="105" on="1"/>
        <pt x="290" y="514" on="1"/>
        <pt x="283" y="514" on="1"/>
        <pt x="136" y="352" on="1"/>
        <pt x="54" y="418" on="1"/>
        <pt x="221" y="608" on="1"/>
        <pt x="421" y="608" on="1"/>
        <pt x="421" y="105" on="1"/>
        <pt x="573" y="105" on="1"/>
        <pt x="573" y="0" on="1"/>
        <pt x="106" y="0" on="1"/>
      </contour>
    </TTGlyph>
    <TTGlyph name="onehalf" xMin="16" yMin="0" xMax="834" yMax="698">
      <component glyphName="uni2082" x="516" y="0" flags="0x4"/>
      <component glyphName="onesuperior" x="0" y="0" flags="0x4"/>
      <component glyphName="fraction" x="363" y="0" flags="0x4"/>
    </TTGlyph>
    <TTGlyph name="onequarter" xMin="16" yMin="0" xMax="820" yMax="698">
      <component glyphName="onesuperior" x="0" y="0" flags="0x4"/>
      <component glyphName="fraction" x="363" y="0" flags="0x4"/>
      <component glyphName="uni2084" x="494" y="0" flags="0x4"/>
    </TTGlyph>
    <TTGlyph name="onesuperior" xMin="16" yMin="329" xMax="325" yMax="698">
      <contour>
        <pt x="51" y="329" on="1"/>
        <pt x="51" y="399" on="1"/>
        <pt x="149" y="399" on="1"/>
        <pt x="149" y="627" on="1"/>
        <pt x="143" y="627" on="1"/>
        <pt x="74" y="542" on="1"/>
        <pt x="16" y="587" on="1"/>
        <pt x="106" y="698" on="1"/>
        <pt x="239" y="698" on="1"/>
        <pt x="239" y="399" on="1"/>
        <pt x="325" y="399" on="1"/>
        <pt x="325" y="329" on="1"/>
      </contour>
    </TTGlyph>
    <TTGlyph name="ordfeminine" xMin="44" yMin="330" xMax="392" yMax="704">
      <contour>
        <pt x="392" y="336" on="1"/>
        <pt x="339" y="336" on="1"/>
        <pt x="313" y="336" on="0"/>
        <pt x="273" y="362" on="0"/>
        <pt x="270" y="397" on="1"/>
        <pt x="266" y="397" on="1"/>
        <pt x="255" y="365" on="0"/>
        <pt x="199" y="330" on="0"/>
        <pt x="157" y="330" on="1"/>
        <pt x="105" y="330" on="0"/>
        <pt x="44" y="386" on="0"/>
        <pt x="44" y="436" on="1"/>
        <pt x="44" y="491" on="0"/>
        <pt x="125" y="545" on="0"/>
        <pt x="201" y="545" on="1"/>
        <pt x="261" y="545" on="1"/>
        <pt x="261" y="566" on="1"/>
        <pt x="261" y="601" on="0"/>
        <pt x="230" y="635" on="0"/>
        <pt x="195" y="635" on="1"/>
        <pt x="162" y="635" on="0"/>
        <pt x="120" y="608" on="0"/>
        <pt x="107" y="588" on="1"/>
        <pt x="55" y="633" on="1"/>
        <pt x="72" y="663" on="0"/>
        <pt x="145" y="704" on="0"/>
        <pt x="204" y="704" on="1"/>
        <pt x="273" y="704" on="0"/>
        <pt x="353" y="636" on="0"/>
        <pt x="353" y="570" on="1"/>
        <pt x="353" y="405" on="1"/>
        <pt x="392" y="405" on="1"/>
      </contour>
      <contour>
        <pt x="203" y="492" on="1"/>
        <pt x="134" y="492" on="0"/>
        <pt x="134" y="447" on="1"/>
        <pt x="134" y="435" on="1"/>
        <pt x="134" y="413" on="0"/>
        <pt x="163" y="393" on="0"/>
        <pt x="189" y="393" on="1"/>
        <pt x="219" y="393" on="0"/>
        <pt x="261" y="421" on="0"/>
        <pt x="261" y="448" on="1"/>
        <pt x="261" y="492" on="1"/>
      </contour>
    </TTGlyph>
    <TTGlyph name="ordmasculine" xMin="40" yMin="330" xMax="384" yMax="704">
      <contour>
        <pt x="212" y="330" on="1"/>
        <pt x="131" y="330" on="0"/>
        <pt x="40" y="429" on="0"/>
        <pt x="40" y="517" on="1"/>
        <pt x="40" y="605" on="0"/>
        <pt x="131" y="704" on="0"/>
        <pt x="212" y="704" on="1"/>
        <pt x="293" y="704" on="0"/>
        <pt x="384" y="605" on="0"/>
        <pt x="384" y="517" on="1"/>
        <pt x="384" y="429" on="0"/>
        <pt x="293" y="330" on="0"/>
      </contour>
      <contour>
        <pt x="212" y="400" on="1"/>
        <pt x="249" y="400" on="0"/>
        <pt x="289" y="445" on="0"/>
        <pt x="289" y="487" on="1"/>
        <pt x="289" y="547" on="1"/>
        <pt x="289" y="589" on="0"/>
        <pt x="249" y="634" on="0"/>
        <pt x="212" y="634" on="1"/>
        <pt x="175" y="634" on="0"/>
        <pt x="135" y="589" on="0"/>
        <pt x="135" y="547" on="1"/>
        <pt x="135" y="487" on="1"/>
        <pt x="135" y="445" on="0"/>
        <pt x="175" y="400" on="0"/>
      </contour>
    </TTGlyph>
    <TTGlyph name="oslash" xMin="20" yMin="-47" xMax="551" yMax="569">
      <contour>
        <pt x="20" y="5" on="1"/>
        <pt x="87" y="89" on="1"/>
        <pt x="43" y="157" on="0"/>
        <pt x="43" y="262" on="1"/>
        <pt x="43" y="325" on="0"/>
        <pt x="77" y="425" on="0"/>
        <pt x="140" y="496" on="0"/>
        <pt x="229" y="534" on="0"/>
        <pt x="285" y="534" on="1"/>
        <pt x="364" y="534" on="0"/>
        <pt x="420" y="496" on="1"/>
        <pt x="481" y="569" on="1"/>
        <pt x="551" y="517" on="1"/>
        <pt x="483" y="433" on="1"/>
        <pt x="505" y="399" on="0"/>
        <pt x="528" y="312" on="0"/>
        <pt x="528" y="261" on="1"/>
        <pt x="528" y="198" on="0"/>
        <pt x="494" y="97" on="0"/>
        <pt x="431" y="26" on="0"/>
        <pt x="341" y="-12" on="0"/>
        <pt x="285" y="-12" on="1"/>
        <pt x="207" y="-12" on="0"/>
        <pt x="150" y="25" on="1"/>
        <pt x="90" y="-47" on="1"/>
      </contour>
      <contour>
        <pt x="285" y="85" on="1"/>
        <pt x="337" y="85" on="0"/>
        <pt x="397" y="154" on="0"/>
        <pt x="397" y="216" on="1"/>
        <pt x="397" y="336" on="1"/>
        <pt x="211" y="111" on="1"/>
        <pt x="240" y="85" on="0"/>
      </contour>
      <contour>
        <pt x="175" y="189" on="1"/>
        <pt x="359" y="411" on="1"/>
        <pt x="330" y="437" on="0"/>
        <pt x="285" y="437" on="1"/>
        <pt x="234" y="437" on="0"/>
        <pt x="175" y="368" on="0"/>
        <pt x="175" y="306" on="1"/>
      </contour>
    </TTGlyph>
    <TTGlyph name="otilde" xMin="39" yMin="-12" xMax="524" yMax="744">
      <component glyphName="o" x="0" y="0" flags="0x204"/>
      <component glyphName="tilde" x="-18" y="0" flags="0x4"/>
    </TTGlyph>
    <TTGlyph name="p" xMin="74" yMin="-200" xMax="555" yMax="534">
      <contour>
        <pt x="74" y="522" on="1"/>
        <pt x="202" y="522" on="1"/>
        <pt x="202" y="436" on="1"/>
        <pt x="206" y="436" on="1"/>
        <pt x="220" y="481" on="0"/>
        <pt x="298" y="534" on="0"/>
        <pt x="350" y="534" on="1"/>
        <pt x="450" y="534" on="0"/>
        <pt x="555" y="393" on="0"/>
        <pt x="555" y="262" on="1"/>
        <pt x="555" y="130" on="0"/>
        <pt x="450" y="-12" on="0"/>
        <pt x="350" y="-12" on="1"/>
        <pt x="298" y="-12" on="0"/>
        <pt x="221" y="42" on="0"/>
        <pt x="206" y="87" on="1"/>
        <pt x="202" y="87" on="1"/>
        <pt x="202" y="-200" on="1"/>
        <pt x="74" y="-200" on="1"/>
      </contour>
      <contour>
        <pt x="309" y="94" on="1"/>
        <pt x="359" y="94" on="0"/>
        <pt x="421" y="160" on="0"/>
        <pt x="421" y="216" on="1"/>
        <pt x="421" y="306" on="1"/>
        <pt x="421" y="362" on="0"/>
        <pt x="359" y="429" on="0"/>
        <pt x="309" y="429" on="1"/>
        <pt x="263" y="429" on="0"/>
        <pt x="202" y="383" on="0"/>
        <pt x="202" y="345" on="1"/>
        <pt x="202" y="179" on="1"/>
        <pt x="202" y="138" on="0"/>
        <pt x="263" y="94" on="0"/>
      </contour>
    </TTGlyph>
    <TTGlyph name="paragraph" xMin="37" yMin="-149" xMax="608" yMax="698">
      <contour>
        <pt x="243" y="272" on="1"/>
        <pt x="200" y="272" on="0"/>
        <pt x="125" y="306" on="0"/>
        <pt x="69" y="364" on="0"/>
        <pt x="37" y="441" on="0"/>
        <pt x="37" y="485" on="1"/>
        <pt x="37" y="528" on="0"/>
        <pt x="69" y="606" on="0"/>
        <pt x="125" y="664" on="0"/>
        <pt x="200" y="698" on="0"/>
        <pt x="243" y="698" on="1"/>
        <pt x="608" y="698" on="1"/>
        <pt x="608" y="603" on="1"/>
        <pt x="542" y="603" on="1"/>
        <pt x="542" y="-149" on="1"/>
        <pt x="443" y="-149" on="1"/>
        <pt x="443" y="603" on="1"/>
        <pt x="342" y="603" on="1"/>
        <pt x="342" y="-149" on="1"/>
        <pt x="243" y="-149" on="1"/>
      </contour>
    </TTGlyph>
    <TTGlyph name="parenleft" xMin="50" yMin="-138" xMax="347" yMax="760">
      <contour>
        <pt x="50" y="312" on="1"/>
        <pt x="50" y="384" on="0"/>
        <pt x="77" y="518" on="0"/>
        <pt x="124" y="633" on="0"/>
        <pt x="188" y="727" on="0"/>
        <pt x="226" y="760" on="1"/>
        <pt x="347" y="760" on="1"/>
        <pt x="306" y="722" on="0"/>
        <pt x="241" y="630" on="0"/>
        <pt x="195" y="525" on="0"/>
        <pt x="170" y="409" on="0"/>
        <pt x="170" y="348" on="1"/>
        <pt x="170" y="274" on="1"/>
        <pt x="170" y="212" on="0"/>
        <pt x="195" y="95" on="0"/>
        <pt x="242" y="-10" on="0"/>
        <pt x="307" y="-102" on="0"/>
        <pt x="347" y="-138" on="1"/>
        <pt x="226" y="-138" on="1"/>
        <pt x="189" y="-107" on="0"/>
        <pt x="125" y="-13" on="0"/>
        <pt x="77" y="104" on="0"/>
        <pt x="50" y="239" on="0"/>
      </contour>
    </TTGlyph>
    <TTGlyph name="parenright" xMin="-10" yMin="-138" xMax="287" yMax="760">
      <contour>
        <pt x="287" y="312" on="1"/>
        <pt x="287" y="239" on="0"/>
        <pt x="260" y="104" on="0"/>
        <pt x="212" y="-13" on="0"/>
        <pt x="148" y="-107" on="0"/>
        <pt x="111" y="-138" on="1"/>
        <pt x="-10" y="-138" on="1"/>
        <pt x="30" y="-102" on="0"/>
        <pt x="95" y="-10" on="0"/>
        <pt x="142" y="95" on="0"/>
        <pt x="167" y="212" on="0"/>
        <pt x="167" y="274" on="1"/>
        <pt x="167" y="348" on="1"/>
        <pt x="167" y="409" on="0"/>
        <pt x="142" y="525" on="0"/>
        <pt x="96" y="630" on="0"/>
        <pt x="31" y="722" on="0"/>
        <pt x="-10" y="760" on="1"/>
        <pt x="111" y="760" on="1"/>
        <pt x="149" y="727" on="0"/>
        <pt x="213" y="633" on="0"/>
        <pt x="260" y="518" on="0"/>
        <pt x="287" y="384" on="0"/>
      </contour>
    </TTGlyph>
    <TTGlyph name="partialdiff" xMin="45" yMin="-12" xMax="541" yMax="698">
      <contour>
        <pt x="541" y="273" on="1"/>
        <pt x="541" y="200" on="0"/>
        <pt x="505" y="93" on="0"/>
        <pt x="441" y="22" on="0"/>
        <pt x="350" y="-12" on="0"/>
        <pt x="295" y="-12" on="1"/>
        <pt x="236" y="-12" on="0"/>
        <pt x="144" y="25" on="0"/>
        <pt x="79" y="93" on="0"/>
        <pt x="45" y="191" on="0"/>
        <pt x="45" y="252" on="1"/>
        <pt x="45" y="309" on="0"/>
        <pt x="74" y="402" on="0"/>
        <pt x="127" y="468" on="0"/>
        <pt x="202" y="504" on="0"/>
        <pt x="248" y="504" on="1"/>
        <pt x="299" y="504" on="0"/>
        <pt x="370" y="458" on="0"/>
        <pt x="393" y="419" on="1"/>
        <pt x="401" y="422" on="1"/>
        <pt x="374" y="500" on="0"/>
        <pt x="219" y="635" on="0"/>
        <pt x="104" y="698" on="1"/>
        <pt x="294" y="698" on="1"/>
        <pt x="337" y="672" on="0"/>
        <pt x="425" y="596" on="0"/>
        <pt x="496" y="492" on="0"/>
        <pt x="541" y="358" on="0"/>
      </contour>
      <contour>
        <pt x="293" y="86" on="1"/>
        <pt x="347" y="86" on="0"/>
        <pt x="408" y="152" on="0"/>
        <pt x="408" y="215" on="1"/>
        <pt x="408" y="275" on="1"/>
        <pt x="408" y="338" on="0"/>
        <pt x="347" y="405" on="0"/>
        <pt x="293" y="405" on="1"/>
        <pt x="239" y="405" on="0"/>
        <pt x="178" y="338" on="0"/>
        <pt x="178" y="275" on="1"/>
        <pt x="178" y="215" on="1"/>
        <pt x="178" y="152" on="0"/>
        <pt x="239" y="86" on="0"/>
      </contour>
    </TTGlyph>
    <TTGlyph name="percent" xMin="54" yMin="-12" xMax="906" yMax="710">
      <contour>
        <pt x="180" y="0" on="1"/>
        <pt x="664" y="698" on="1"/>
        <pt x="780" y="698" on="1"/>
        <pt x="296" y="0" on="1"/>
      </contour>
      <contour>
        <pt x="228" y="314" on="1"/>
        <pt x="143" y="314" on="0"/>
        <pt x="54" y="415" on="0"/>
        <pt x="54" y="512" on="1"/>
        <pt x="54" y="609" on="0"/>
        <pt x="143" y="710" on="0"/>
        <pt x="228" y="710" on="1"/>
        <pt x="313" y="710" on="0"/>
        <pt x="401" y="609" on="0"/>
        <pt x="401" y="512" on="1"/>
        <pt x="401" y="415" on="0"/>
        <pt x="313" y="314" on="0"/>
      </contour>
      <contour>
        <pt x="228" y="390" on="1"/>
        <pt x="290" y="390" on="0"/>
        <pt x="290" y="485" on="1"/>
        <pt x="290" y="539" on="1"/>
        <pt x="290" y="634" on="0"/>
        <pt x="228" y="634" on="1"/>
        <pt x="166" y="634" on="0"/>
        <pt x="166" y="539" on="1"/>
        <pt x="166" y="485" on="1"/>
        <pt x="166" y="390" on="0"/>
      </contour>
      <contour>
        <pt x="732" y="-12" on="1"/>
        <pt x="648" y="-12" on="0"/>
        <pt x="559" y="89" on="0"/>
        <pt x="559" y="186" on="1"/>
        <pt x="559" y="283" on="0"/>
        <pt x="648" y="384" on="0"/>
        <pt x="732" y="384" on="1"/>
        <pt x="817" y="384" on="0"/>
        <pt x="906" y="283" on="0"/>
        <pt x="906" y="186" on="1"/>
        <pt x="906" y="89" on="0"/>
        <pt x="817" y="-12" on="0"/>
      </contour>
      <contour>
        <pt x="732" y="64" on="1"/>
        <pt x="794" y="64" on="0"/>
        <pt x="794" y="159" on="1"/>
        <pt x="794" y="213" on="1"/>
        <pt x="794" y="308" on="0"/>
        <pt x="732" y="308" on="1"/>
        <pt x="670" y="308" on="0"/>
        <pt x="670" y="213" on="1"/>
        <pt x="670" y="159" on="1"/>
        <pt x="670" y="64" on="0"/>
      </contour>
    </TTGlyph>
    <TTGlyph name="period" xMin="69" yMin="-11" xMax="229" yMax="154">
      <contour>
        <pt x="149" y="-11" on="1"/>
        <pt x="108" y="-11" on="0"/>
        <pt x="69" y="30" on="0"/>
        <pt x="69" y="62" on="1"/>
        <pt x="69" y="80" on="1"/>
        <pt x="69" y="112" on="0"/>
        <pt x="108" y="154" on="0"/>
        <pt x="149" y="154" on="1"/>
        <pt x="191" y="154" on="0"/>
        <pt x="229" y="112" on="0"/>
        <pt x="229" y="80" on="1"/>
        <pt x="229" y="62" on="1"/>
        <pt x="229" y="30" on="0"/>
        <pt x="191" y="-11" on="0"/>
      </contour>
    </TTGlyph>
    <TTGlyph name="periodcentered" xMin="95" yMin="221" xMax="255" yMax="386">
      <contour>
        <pt x="175" y="221" on="1"/>
        <pt x="134" y="221" on="0"/>
        <pt x="95" y="262" on="0"/>
        <pt x="95" y="294" on="1"/>
        <pt x="95" y="312" on="1"/>
        <pt x="95" y="344" on="0"/>
        <pt x="134" y="386" on="0"/>
        <pt x="175" y="386" on="1"/>
        <pt x="217" y="386" on="0"/>
        <pt x="255" y="344" on="0"/>
        <pt x="255" y="312" on="1"/>
        <pt x="255" y="294" on="1"/>
        <pt x="255" y="262" on="0"/>
        <pt x="217" y="221" on="0"/>
      </contour>
    </TTGlyph>
    <TTGlyph name="perthousand" xMin="54" yMin="-12" xMax="1305" yMax="710">
      <contour>
        <pt x="180" y="0" on="1"/>
        <pt x="664" y="698" on="1"/>
        <pt x="780" y="698" on="1"/>
        <pt x="296" y="0" on="1"/>
      </contour>
      <contour>
        <pt x="228" y="314" on="1"/>
        <pt x="143" y="314" on="0"/>
        <pt x="54" y="415" on="0"/>
        <pt x="54" y="512" on="1"/>
        <pt x="54" y="609" on="0"/>
        <pt x="143" y="710" on="0"/>
        <pt x="228" y="710" on="1"/>
        <pt x="313" y="710" on="0"/>
        <pt x="401" y="609" on="0"/>
        <pt x="401" y="512" on="1"/>
        <pt x="401" y="415" on="0"/>
        <pt x="313" y="314" on="0"/>
      </contour>
      <contour>
        <pt x="228" y="390" on="1"/>
        <pt x="290" y="390" on="0"/>
        <pt x="290" y="485" on="1"/>
        <pt x="290" y="539" on="1"/>
        <pt x="290" y="634" on="0"/>
        <pt x="228" y="634" on="1"/>
        <pt x="166" y="634" on="0"/>
        <pt x="166" y="539" on="1"/>
        <pt x="166" y="485" on="1"/>
        <pt x="166" y="390" on="0"/>
      </contour>
      <contour>
        <pt x="732" y="-12" on="1"/>
        <pt x="648" y="-12" on="0"/>
        <pt x="559" y="89" on="0"/>
        <pt x="559" y="186" on="1"/>
        <pt x="559" y="283" on="0"/>
        <pt x="648" y="384" on="0"/>
        <pt x="732" y="384" on="1"/>
        <pt x="817" y="384" on="0"/>
        <pt x="906" y="283" on="0"/>
        <pt x="906" y="186" on="1"/>
        <pt x="906" y="89" on="0"/>
        <pt x="817" y="-12" on="0"/>
      </contour>
      <contour>
        <pt x="732" y="64" on="1"/>
        <pt x="794" y="64" on="0"/>
        <pt x="794" y="159" on="1"/>
        <pt x="794" y="213" on="1"/>
        <pt x="794" y="308" on="0"/>
        <pt x="732" y="308" on="1"/>
        <pt x="670" y="308" on="0"/>
        <pt x="670" y="213" on="1"/>
        <pt x="670" y="159" on="1"/>
        <pt x="670" y="64" on="0"/>
      </contour>
      <contour>
        <pt x="1132" y="-12" on="1"/>
        <pt x="1047" y="-12" on="0"/>
        <pt x="958" y="89" on="0"/>
        <pt x="958" y="186" on="1"/>
        <pt x="958" y="283" on="0"/>
        <pt x="1047" y="384" on="0"/>
        <pt x="1132" y="384" on="1"/>
        <pt x="1216" y="384" on="0"/>
        <pt x="1305" y="283" on="0"/>
        <pt x="1305" y="186" on="1"/>
        <pt x="1305" y="89" on="0"/>
        <pt x="1216" y="-12" on="0"/>
      </contour>
      <contour>
        <pt x="1132" y="64" on="1"/>
        <pt x="1194" y="64" on="0"/>
        <pt x="1194" y="159" on="1"/>
        <pt x="1194" y="213" on="1"/>
        <pt x="1194" y="308" on="0"/>
        <pt x="1132" y="308" on="1"/>
        <pt x="1070" y="308" on="0"/>
        <pt x="1070" y="213" on="1"/>
        <pt x="1070" y="159" on="1"/>
        <pt x="1070" y="64" on="0"/>
      </contour>
    </TTGlyph>
    <TTGlyph name="pi" xMin="23" yMin="0" xMax="612" yMax="522">
      <contour>
        <pt x="514" y="102" on="1"/>
        <pt x="580" y="102" on="1"/>
        <pt x="580" y="0" on="1"/>
        <pt x="521" y="0" on="1"/>
        <pt x="455" y="0" on="0"/>
        <pt x="386" y="69" on="0"/>
        <pt x="386" y="133" on="1"/>
        <pt x="386" y="420" on="1"/>
        <pt x="236" y="420" on="1"/>
        <pt x="236" y="0" on="1"/>
        <pt x="108" y="0" on="1"/>
        <pt x="108" y="420" on="1"/>
        <pt x="23" y="420" on="1"/>
        <pt x="23" y="522" on="1"/>
        <pt x="612" y="522" on="1"/>
        <pt x="612" y="420" on="1"/>
        <pt x="514" y="420" on="1"/>
      </contour>
    </TTGlyph>
    <TTGlyph name="plus" xMin="67" yMin="63" xMax="533" yMax="549">
      <contour>
        <pt x="244" y="63" on="1"/>
        <pt x="244" y="254" on="1"/>
        <pt x="67" y="254" on="1"/>
        <pt x="67" y="357" on="1"/>
        <pt x="244" y="357" on="1"/>
        <pt x="244" y="549" on="1"/>
        <pt x="356" y="549" on="1"/>
        <pt x="356" y="357" on="1"/>
        <pt x="533" y="357" on="1"/>
        <pt x="533" y="254" on="1"/>
        <pt x="356" y="254" on="1"/>
        <pt x="356" y="63" on="1"/>
      </contour>
    </TTGlyph>
    <TTGlyph name="plusminus" xMin="67" yMin="0" xMax="533" yMax="630">
      <contour>
        <pt x="244" y="175" on="1"/>
        <pt x="244" y="351" on="1"/>
        <pt x="67" y="351" on="1"/>
        <pt x="67" y="455" on="1"/>
        <pt x="244" y="455" on="1"/>
        <pt x="244" y="630" on="1"/>
        <pt x="356" y="630" on="1"/>
        <pt x="356" y="455" on="1"/>
        <pt x="533" y="455" on="1"/>
        <pt x="533" y="351" on="1"/>
        <pt x="356" y="351" on="1"/>
        <pt x="356" y="175" on="1"/>
      </contour>
      <contour>
        <pt x="67" y="0" on="1"/>
        <pt x="67" y="104" on="1"/>
        <pt x="533" y="104" on="1"/>
        <pt x="533" y="0" on="1"/>
      </contour>
    </TTGlyph>
    <TTGlyph name="product" xMin="31" yMin="-200" xMax="689" yMax="698">
      <contour>
        <pt x="125" y="-200" on="1"/>
        <pt x="125" y="581" on="1"/>
        <pt x="31" y="581" on="1"/>
        <pt x="31" y="698" on="1"/>
        <pt x="689" y="698" on="1"/>
        <pt x="689" y="581" on="1"/>
        <pt x="595" y="581" on="1"/>
        <pt x="595" y="-200" on="1"/>
        <pt x="463" y="-200" on="1"/>
        <pt x="463" y="581" on="1"/>
        <pt x="257" y="581" on="1"/>
        <pt x="257" y="-200" on="1"/>
      </contour>
    </TTGlyph>
    <TTGlyph name="q" xMin="45" yMin="-200" xMax="526" yMax="534">
      <contour>
        <pt x="398" y="87" on="1"/>
        <pt x="393" y="87" on="1"/>
        <pt x="379" y="42" on="0"/>
        <pt x="301" y="-12" on="0"/>
        <pt x="249" y="-12" on="1"/>
        <pt x="150" y="-12" on="0"/>
        <pt x="45" y="130" on="0"/>
        <pt x="45" y="262" on="1"/>
        <pt x="45" y="393" on="0"/>
        <pt x="150" y="534" on="0"/>
        <pt x="249" y="534" on="1"/>
        <pt x="301" y="534" on="0"/>
        <pt x="379" y="481" on="0"/>
        <pt x="393" y="436" on="1"/>
        <pt x="398" y="436" on="1"/>
        <pt x="398" y="522" on="1"/>
        <pt x="526" y="522" on="1"/>
        <pt x="526" y="-200" on="1"/>
        <pt x="398" y="-200" on="1"/>
      </contour>
      <contour>
        <pt x="290" y="94" on="1"/>
        <pt x="336" y="94" on="0"/>
        <pt x="398" y="138" on="0"/>
        <pt x="398" y="179" on="1"/>
        <pt x="398" y="345" on="1"/>
        <pt x="398" y="383" on="0"/>
        <pt x="336" y="429" on="0"/>
        <pt x="290" y="429" on="1"/>
        <pt x="240" y="429" on="0"/>
        <pt x="179" y="362" on="0"/>
        <pt x="179" y="306" on="1"/>
        <pt x="179" y="216" on="1"/>
        <pt x="179" y="160" on="0"/>
        <pt x="240" y="94" on="0"/>
      </contour>
    </TTGlyph>
    <TTGlyph name="question" xMin="17" yMin="-12" xMax="463" yMax="710">
      <contour>
        <pt x="164" y="226" on="1"/>
        <pt x="164" y="382" on="1"/>
        <pt x="244" y="385" on="0"/>
        <pt x="327" y="440" on="0"/>
        <pt x="327" y="498" on="1"/>
        <pt x="327" y="512" on="1"/>
        <pt x="327" y="554" on="0"/>
        <pt x="277" y="600" on="0"/>
        <pt x="235" y="600" on="1"/>
        <pt x="190" y="600" on="0"/>
        <pt x="135" y="547" on="0"/>
        <pt x="124" y="505" on="1"/>
        <pt x="17" y="549" on="1"/>
        <pt x="26" y="580" on="0"/>
        <pt x="60" y="638" on="0"/>
        <pt x="114" y="683" on="0"/>
        <pt x="190" y="710" on="0"/>
        <pt x="240" y="710" on="1"/>
        <pt x="291" y="710" on="0"/>
        <pt x="373" y="681" on="0"/>
        <pt x="431" y="628" on="0"/>
        <pt x="463" y="554" on="0"/>
        <pt x="463" y="509" on="1"/>
        <pt x="463" y="465" on="0"/>
        <pt x="434" y="396" on="0"/>
        <pt x="384" y="345" on="0"/>
        <pt x="320" y="314" on="0"/>
        <pt x="286" y="308" on="1"/>
        <pt x="286" y="226" on="1"/>
      </contour>
      <contour>
        <pt x="226" y="-12" on="1"/>
        <pt x="184" y="-12" on="0"/>
        <pt x="146" y="28" on="0"/>
        <pt x="146" y="59" on="1"/>
        <pt x="146" y="79" on="1"/>
        <pt x="146" y="110" on="0"/>
        <pt x="184" y="150" on="0"/>
        <pt x="226" y="150" on="1"/>
        <pt x="269" y="150" on="0"/>
        <pt x="307" y="110" on="0"/>
        <pt x="307" y="79" on="1"/>
        <pt x="307" y="59" on="1"/>
        <pt x="307" y="28" on="0"/>
        <pt x="269" y="-12" on="0"/>
      </contour>
    </TTGlyph>
    <TTGlyph name="questiondown" xMin="30" yMin="-188" xMax="477" yMax="534">
      <contour>
        <pt x="254" y="-188" on="1"/>
        <pt x="203" y="-188" on="0"/>
        <pt x="121" y="-159" on="0"/>
        <pt x="62" y="-106" on="0"/>
        <pt x="30" y="-32" on="0"/>
        <pt x="30" y="13" on="1"/>
        <pt x="30" y="57" on="0"/>
        <pt x="59" y="126" on="0"/>
        <pt x="109" y="177" on="0"/>
        <pt x="173" y="208" on="0"/>
        <pt x="208" y="214" on="1"/>
        <pt x="208" y="297" on="1"/>
        <pt x="329" y="297" on="1"/>
        <pt x="329" y="140" on="1"/>
        <pt x="249" y="137" on="0"/>
        <pt x="166" y="83" on="0"/>
        <pt x="166" y="25" on="1"/>
        <pt x="166" y="11" on="1"/>
        <pt x="166" y="-31" on="0"/>
        <pt x="216" y="-77" on="0"/>
        <pt x="258" y="-77" on="1"/>
        <pt x="303" y="-77" on="0"/>
        <pt x="359" y="-24" on="0"/>
        <pt x="369" y="17" on="1"/>
        <pt x="477" y="-27" on="1"/>
        <pt x="468" y="-58" on="0"/>
        <pt x="433" y="-116" on="0"/>
        <pt x="379" y="-161" on="0"/>
        <pt x="303" y="-188" on="0"/>
      </contour>
      <contour>
        <pt x="268" y="372" on="1"/>
        <pt x="225" y="372" on="0"/>
        <pt x="187" y="412" on="0"/>
        <pt x="187" y="443" on="1"/>
        <pt x="187" y="464" on="1"/>
        <pt x="187" y="494" on="0"/>
        <pt x="225" y="534" on="0"/>
        <pt x="268" y="534" on="1"/>
        <pt x="310" y="534" on="0"/>
        <pt x="348" y="494" on="0"/>
        <pt x="348" y="464" on="1"/>
        <pt x="348" y="443" on="1"/>
        <pt x="348" y="412" on="0"/>
        <pt x="310" y="372" on="0"/>
      </contour>
    </TTGlyph>
    <TTGlyph name="quotedbl" xMin="73" yMin="428" xMax="398" yMax="740">
      <component glyphName="quotesingle" x="0" y="0" flags="0x4"/>
      <component glyphName="quotesingle" x="211" y="0" flags="0x4"/>
    </TTGlyph>
    <TTGlyph name="quotedblbase" xMin="38" yMin="-117" xMax="452" yMax="169">
      <component glyphName="quotesinglbase" x="0" y="0" flags="0x4"/>
      <component glyphName="quotesinglbase" x="225" y="0" flags="0x4"/>
    </TTGlyph>
    <TTGlyph name="quotedblleft" xMin="65" yMin="455" xMax="479" yMax="740">
      <component glyphName="quoteleft" x="0" y="0" flags="0x4"/>
      <component glyphName="quoteleft" x="225" y="0" flags="0x4"/>
    </TTGlyph>
    <TTGlyph name="quotedblright" xMin="38" yMin="465" xMax="452" yMax="750">
      <component glyphName="quoteright" x="0" y="0" flags="0x4"/>
      <component glyphName="quoteright" x="225" y="0" flags="0x4"/>
    </TTGlyph>
    <TTGlyph name="quoteleft" xMin="65" yMin="455" xMax="254" yMax="740">
      <contour>
        <pt x="143" y="455" on="1"/>
        <pt x="102" y="455" on="0"/>
        <pt x="65" y="494" on="0"/>
        <pt x="65" y="523" on="1"/>
        <pt x="65" y="542" on="1"/>
        <pt x="65" y="569" on="0"/>
        <pt x="81" y="624" on="0"/>
        <pt x="108" y="676" on="0"/>
        <pt x="146" y="722" on="0"/>
        <pt x="168" y="740" on="1"/>
        <pt x="254" y="740" on="1"/>
        <pt x="222" y="709" on="0"/>
        <pt x="178" y="649" on="0"/>
        <pt x="167" y="612" on="1"/>
        <pt x="196" y="606" on="0"/>
        <pt x="222" y="569" on="0"/>
        <pt x="222" y="545" on="1"/>
        <pt x="222" y="523" on="1"/>
        <pt x="222" y="494" on="0"/>
        <pt x="185" y="455" on="0"/>
      </contour>
    </TTGlyph>
    <TTGlyph name="quoteright" xMin="38" yMin="465" xMax="227" yMax="750">
      <contour>
        <pt x="149" y="750" on="1"/>
        <pt x="190" y="750" on="0"/>
        <pt x="227" y="711" on="0"/>
        <pt x="227" y="682" on="1"/>
        <pt x="227" y="663" on="1"/>
        <pt x="227" y="636" on="0"/>
        <pt x="212" y="581" on="0"/>
        <pt x="184" y="529" on="0"/>
        <pt x="146" y="483" on="0"/>
        <pt x="124" y="465" on="1"/>
        <pt x="38" y="465" on="1"/>
        <pt x="70" y="495" on="0"/>
        <pt x="114" y="556" on="0"/>
        <pt x="125" y="593" on="1"/>
        <pt x="96" y="598" on="0"/>
        <pt x="70" y="635" on="0"/>
        <pt x="70" y="660" on="1"/>
        <pt x="70" y="682" on="1"/>
        <pt x="70" y="711" on="0"/>
        <pt x="107" y="750" on="0"/>
      </contour>
    </TTGlyph>
    <TTGlyph name="quotesinglbase" xMin="38" yMin="-117" xMax="227" yMax="169">
      <contour>
        <pt x="149" y="169" on="1"/>
        <pt x="191" y="169" on="0"/>
        <pt x="227" y="130" on="0"/>
        <pt x="227" y="99" on="1"/>
        <pt x="227" y="79" on="1"/>
        <pt x="227" y="25" on="0"/>
        <pt x="171" y="-80" on="0"/>
        <pt x="126" y="-117" on="1"/>
        <pt x="38" y="-117" on="1"/>
        <pt x="71" y="-86" on="0"/>
        <pt x="116" y="-26" on="0"/>
        <pt x="127" y="12" on="1"/>
        <pt x="98" y="17" on="0"/>
        <pt x="71" y="55" on="0"/>
        <pt x="71" y="79" on="1"/>
        <pt x="71" y="99" on="1"/>
        <pt x="71" y="130" on="0"/>
        <pt x="107" y="169" on="0"/>
      </contour>
    </TTGlyph>
    <TTGlyph name="quotesingle" xMin="73" yMin="428" xMax="187" yMax="740">
      <contour>
        <pt x="73" y="428" on="1"/>
        <pt x="73" y="740" on="1"/>
        <pt x="187" y="740" on="1"/>
        <pt x="187" y="428" on="1"/>
      </contour>
    </TTGlyph>
    <TTGlyph name="r" xMin="74" yMin="0" xMax="373" yMax="522">
      <contour>
        <pt x="74" y="0" on="1"/>
        <pt x="74" y="522" on="1"/>
        <pt x="202" y="522" on="1"/>
        <pt x="202" y="414" on="1"/>
        <pt x="207" y="414" on="1"/>
        <pt x="212" y="435" on="0"/>
        <pt x="233" y="474" on="0"/>
        <pt x="267" y="504" on="0"/>
        <pt x="314" y="522" on="0"/>
        <pt x="345" y="522" on="1"/>
        <pt x="373" y="522" on="1"/>
        <pt x="373" y="401" on="1"/>
        <pt x="333" y="401" on="1"/>
        <pt x="268" y="401" on="0"/>
        <pt x="202" y="363" on="0"/>
        <pt x="202" y="320" on="1"/>
        <pt x="202" y="0" on="1"/>
      </contour>
    </TTGlyph>
    <TTGlyph name="radical" xMin="18" yMin="0" xMax="580" yMax="698">
      <contour>
        <pt x="221" y="0" on="1"/>
        <pt x="101" y="416" on="1"/>
        <pt x="18" y="416" on="1"/>
        <pt x="18" y="522" on="1"/>
        <pt x="185" y="522" on="1"/>
        <pt x="244" y="314" on="1"/>
        <pt x="298" y="106" on="1"/>
        <pt x="305" y="106" on="1"/>
        <pt x="360" y="314" on="1"/>
        <pt x="470" y="698" on="1"/>
        <pt x="580" y="698" on="1"/>
        <pt x="378" y="0" on="1"/>
      </contour>
    </TTGlyph>
    <TTGlyph name="registered" xMin="33" yMin="298" xMax="435" yMax="710">
      <contour>
        <pt x="234" y="298" on="1"/>
        <pt x="192" y="298" on="0"/>
        <pt x="119" y="329" on="0"/>
        <pt x="64" y="384" on="0"/>
        <pt x="33" y="460" on="0"/>
        <pt x="33" y="504" on="1"/>
        <pt x="33" y="548" on="0"/>
        <pt x="64" y="624" on="0"/>
        <pt x="119" y="679" on="0"/>
        <pt x="192" y="710" on="0"/>
        <pt x="234" y="710" on="1"/>
        <pt x="276" y="710" on="0"/>
        <pt x="349" y="679" on="0"/>
        <pt x="403" y="624" on="0"/>
        <pt x="435" y="548" on="0"/>
        <pt x="435" y="504" on="1"/>
        <pt x="435" y="460" on="0"/>
        <pt x="403" y="384" on="0"/>
        <pt x="349" y="329" on="0"/>
        <pt x="276" y="298" on="0"/>
      </contour>
      <contour>
        <pt x="234" y="343" on="1"/>
        <pt x="265" y="343" on="0"/>
        <pt x="320" y="364" on="0"/>
        <pt x="360" y="403" on="0"/>
        <pt x="384" y="456" on="0"/>
        <pt x="384" y="489" on="1"/>
        <pt x="384" y="519" on="1"/>
        <pt x="384" y="552" on="0"/>
        <pt x="360" y="605" on="0"/>
        <pt x="320" y="644" on="0"/>
        <pt x="265" y="665" on="0"/>
        <pt x="234" y="665" on="1"/>
        <pt x="203" y="665" on="0"/>
        <pt x="148" y="644" on="0"/>
        <pt x="108" y="605" on="0"/>
        <pt x="84" y="552" on="0"/>
        <pt x="84" y="519" on="1"/>
        <pt x="84" y="489" on="1"/>
        <pt x="84" y="456" on="0"/>
        <pt x="108" y="403" on="0"/>
        <pt x="148" y="364" on="0"/>
        <pt x="203" y="343" on="0"/>
      </contour>
      <contour>
        <pt x="207" y="399" on="1"/>
        <pt x="150" y="399" on="1"/>
        <pt x="150" y="608" on="1"/>
        <pt x="249" y="608" on="1"/>
        <pt x="287" y="608" on="0"/>
        <pt x="324" y="569" on="0"/>
        <pt x="324" y="540" on="1"/>
        <pt x="324" y="515" on="0"/>
        <pt x="303" y="483" on="0"/>
        <pt x="286" y="475" on="1"/>
        <pt x="331" y="399" on="1"/>
        <pt x="269" y="399" on="1"/>
        <pt x="234" y="465" on="1"/>
        <pt x="207" y="465" on="1"/>
      </contour>
      <contour>
        <pt x="239" y="508" on="1"/>
        <pt x="266" y="508" on="0"/>
        <pt x="266" y="530" on="1"/>
        <pt x="266" y="542" on="1"/>
        <pt x="266" y="564" on="0"/>
        <pt x="239" y="564" on="1"/>
        <pt x="207" y="564" on="1"/>
        <pt x="207" y="508" on="1"/>
      </contour>
    </TTGlyph>
    <TTGlyph name="ring" xMin="161" yMin="563" xMax="439" yMax="833">
      <contour>
        <pt x="300" y="563" on="1"/>
        <pt x="271" y="563" on="0"/>
        <pt x="220" y="583" on="0"/>
        <pt x="182" y="619" on="0"/>
        <pt x="161" y="669" on="0"/>
        <pt x="161" y="698" on="1"/>
        <pt x="161" y="727" on="0"/>
        <pt x="182" y="777" on="0"/>
        <pt x="220" y="813" on="0"/>
        <pt x="271" y="833" on="0"/>
        <pt x="300" y="833" on="1"/>
        <pt x="329" y="833" on="0"/>
        <pt x="380" y="813" on="0"/>
        <pt x="417" y="777" on="0"/>
        <pt x="439" y="727" on="0"/>
        <pt x="439" y="698" on="1"/>
        <pt x="439" y="669" on="0"/>
        <pt x="417" y="619" on="0"/>
        <pt x="380" y="583" on="0"/>
        <pt x="329" y="563" on="0"/>
      </contour>
      <contour>
        <pt x="300" y="631" on="1"/>
        <pt x="353" y="631" on="0"/>
        <pt x="353" y="683" on="1"/>
        <pt x="353" y="713" on="1"/>
        <pt x="353" y="765" on="0"/>
        <pt x="300" y="765" on="1"/>
        <pt x="247" y="765" on="0"/>
        <pt x="247" y="713" on="1"/>
        <pt x="247" y="683" on="1"/>
        <pt x="247" y="631" on="0"/>
      </contour>
    </TTGlyph>
    <TTGlyph name="ring.case" xMin="161" yMin="727" xMax="439" yMax="996">
      <contour>
        <pt x="300" y="727" on="1"/>
        <pt x="271" y="727" on="0"/>
        <pt x="220" y="747" on="0"/>
        <pt x="182" y="783" on="0"/>
        <pt x="161" y="833" on="0"/>
        <pt x="161" y="862" on="1"/>
        <pt x="161" y="891" on="0"/>
        <pt x="182" y="940" on="0"/>
        <pt x="220" y="976" on="0"/>
        <pt x="271" y="996" on="0"/>
        <pt x="300" y="996" on="1"/>
        <pt x="329" y="996" on="0"/>
        <pt x="380" y="976" on="0"/>
        <pt x="417" y="940" on="0"/>
        <pt x="439" y="891" on="0"/>
        <pt x="439" y="862" on="1"/>
        <pt x="439" y="833" on="0"/>
        <pt x="417" y="783" on="0"/>
        <pt x="380" y="747" on="0"/>
        <pt x="329" y="727" on="0"/>
      </contour>
      <contour>
        <pt x="300" y="794" on="1"/>
        <pt x="326" y="794" on="0"/>
        <pt x="353" y="822" on="0"/>
        <pt x="353" y="846" on="1"/>
        <pt x="353" y="877" on="1"/>
        <pt x="353" y="901" on="0"/>
        <pt x="326" y="929" on="0"/>
        <pt x="300" y="929" on="1"/>
        <pt x="274" y="929" on="0"/>
        <pt x="247" y="901" on="0"/>
        <pt x="247" y="877" on="1"/>
        <pt x="247" y="846" on="1"/>
        <pt x="247" y="822" on="0"/>
        <pt x="274" y="794" on="0"/>
      </contour>
    </TTGlyph>
    <TTGlyph name="s" xMin="29" yMin="-12" xMax="460" yMax="534">
      <contour>
        <pt x="245" y="-12" on="1"/>
        <pt x="170" y="-12" on="0"/>
        <pt x="68" y="39" on="0"/>
        <pt x="29" y="84" on="1"/>
        <pt x="107" y="160" on="1"/>
        <pt x="136" y="127" on="0"/>
        <pt x="205" y="89" on="0"/>
        <pt x="250" y="89" on="1"/>
        <pt x="296" y="89" on="0"/>
        <pt x="337" y="121" on="0"/>
        <pt x="337" y="149" on="1"/>
        <pt x="337" y="172" on="0"/>
        <pt x="308" y="199" on="0"/>
        <pt x="273" y="204" on="1"/>
        <pt x="221" y="211" on="1"/>
        <pt x="136" y="222" on="0"/>
        <pt x="47" y="297" on="0"/>
        <pt x="47" y="369" on="1"/>
        <pt x="47" y="407" on="0"/>
        <pt x="75" y="468" on="0"/>
        <pt x="127" y="511" on="0"/>
        <pt x="200" y="534" on="0"/>
        <pt x="245" y="534" on="1"/>
        <pt x="283" y="534" on="0"/>
        <pt x="342" y="523" on="0"/>
        <pt x="390" y="502" on="0"/>
        <pt x="430" y="471" on="0"/>
        <pt x="449" y="452" on="1"/>
        <pt x="374" y="377" on="1"/>
        <pt x="351" y="401" on="0"/>
        <pt x="287" y="433" on="0"/>
        <pt x="249" y="433" on="1"/>
        <pt x="207" y="433" on="0"/>
        <pt x="170" y="403" on="0"/>
        <pt x="170" y="379" on="1"/>
        <pt x="170" y="353" on="0"/>
        <pt x="201" y="326" on="0"/>
        <pt x="238" y="320" on="1"/>
        <pt x="291" y="313" on="1"/>
        <pt x="460" y="289" on="0"/>
        <pt x="460" y="159" on="1"/>
        <pt x="460" y="121" on="0"/>
        <pt x="429" y="58" on="0"/>
        <pt x="373" y="13" on="0"/>
        <pt x="294" y="-12" on="0"/>
      </contour>
    </TTGlyph>
    <TTGlyph name="scaron" xMin="29" yMin="-12" xMax="460" yMax="795">
      <component glyphName="caron" x="-53" y="0" flags="0x4"/>
      <component glyphName="s" x="0" y="0" flags="0x4"/>
    </TTGlyph>
    <TTGlyph name="section" xMin="58" yMin="-159" xMax="516" yMax="710">
      <contour>
        <pt x="484" y="10" on="1"/>
        <pt x="484" y="-29" on="0"/>
        <pt x="453" y="-92" on="0"/>
        <pt x="398" y="-136" on="0"/>
        <pt x="320" y="-159" on="0"/>
        <pt x="273" y="-159" on="1"/>
        <pt x="222" y="-159" on="0"/>
        <pt x="124" y="-129" on="0"/>
        <pt x="83" y="-92" on="1"/>
        <pt x="148" y="-13" on="1"/>
        <pt x="174" y="-38" on="0"/>
        <pt x="236" y="-65" on="0"/>
        <pt x="274" y="-65" on="1"/>
        <pt x="319" y="-65" on="0"/>
        <pt x="373" y="-28" on="0"/>
        <pt x="373" y="6" on="1"/>
        <pt x="373" y="36" on="0"/>
        <pt x="328" y="71" on="0"/>
        <pt x="281" y="84" on="1"/>
        <pt x="209" y="105" on="1"/>
        <pt x="167" y="117" on="0"/>
        <pt x="109" y="149" on="0"/>
        <pt x="74" y="188" on="0"/>
        <pt x="58" y="231" on="0"/>
        <pt x="58" y="254" on="1"/>
        <pt x="58" y="299" on="0"/>
        <pt x="111" y="371" on="0"/>
        <pt x="165" y="394" on="1"/>
        <pt x="165" y="408" on="1"/>
        <pt x="130" y="431" on="0"/>
        <pt x="89" y="498" on="0"/>
        <pt x="89" y="544" on="1"/>
        <pt x="89" y="583" on="0"/>
        <pt x="120" y="645" on="0"/>
        <pt x="176" y="688" on="0"/>
        <pt x="253" y="710" on="0"/>
        <pt x="300" y="710" on="1"/>
        <pt x="351" y="710" on="0"/>
        <pt x="449" y="681" on="0"/>
        <pt x="491" y="643" on="1"/>
        <pt x="425" y="564" on="1"/>
        <pt x="399" y="588" on="0"/>
        <pt x="339" y="616" on="0"/>
        <pt x="297" y="616" on="1"/>
        <pt x="253" y="616" on="0"/>
        <pt x="200" y="583" on="0"/>
        <pt x="200" y="548" on="1"/>
        <pt x="200" y="519" on="0"/>
        <pt x="245" y="485" on="0"/>
        <pt x="292" y="472" on="1"/>
        <pt x="364" y="451" on="1"/>
        <pt x="406" y="439" on="0"/>
        <pt x="464" y="407" on="0"/>
        <pt x="500" y="368" on="0"/>
        <pt x="516" y="323" on="0"/>
        <pt x="516" y="300" on="1"/>
        <pt x="516" y="255" on="0"/>
        <pt x="463" y="184" on="0"/>
        <pt x="408" y="161" on="1"/>
        <pt x="408" y="148" on="1"/>
        <pt x="443" y="125" on="0"/>
        <pt x="484" y="57" on="0"/>
      </contour>
      <contour>
        <pt x="406" y="262" on="1"/>
        <pt x="406" y="293" on="0"/>
        <pt x="367" y="340" on="0"/>
        <pt x="315" y="354" on="1"/>
        <pt x="244" y="374" on="1"/>
        <pt x="236" y="376" on="0"/>
        <pt x="220" y="381" on="0"/>
        <pt x="212" y="384" on="1"/>
        <pt x="191" y="364" on="0"/>
        <pt x="167" y="319" on="0"/>
        <pt x="167" y="292" on="1"/>
        <pt x="167" y="262" on="0"/>
        <pt x="206" y="216" on="0"/>
        <pt x="258" y="202" on="1"/>
        <pt x="329" y="182" on="1"/>
        <pt x="337" y="180" on="0"/>
        <pt x="354" y="174" on="0"/>
        <pt x="362" y="171" on="1"/>
        <pt x="382" y="191" on="0"/>
        <pt x="406" y="236" on="0"/>
      </contour>
    </TTGlyph>
    <TTGlyph name="semicolon" xMin="46" yMin="-143" xMax="239" yMax="533">
      <component glyphName="comma" x="8" y="0" flags="0x4"/>
      <component glyphName="period" x="10" y="379" flags="0x4"/>
    </TTGlyph>
</ttFont>
